Model Pro.ufo
<glyph name="numbersign" format="2">
  <advance width="833"/>
  <unicode hex="0023"/>
  <outline>
    <contour>
      <point x="148" y="446" type="line"/>
      <point x="318" y="446" type="line"/>
      <point x="234" y="227" type="line"/>
      <point x="69" y="227" type="line"/>
      <point x="69" y="223" type="line"/>
      <point x="232" y="223" type="line"/>
      <point x="185" y="100" type="line"/>
      <point x="190" y="100" type="line"/>
      <point x="237" y="223" type="line"/>
      <point x="447" y="223" type="line"/>
      <point x="400" y="100" type="line"/>
      <point x="405" y="100" type="line"/>
      <point x="452" y="223" type="line"/>
      <point x="610" y="223" type="line"/>
      <point x="610" y="227" type="line"/>
      <point x="454" y="227" type="line"/>
      <point x="538" y="446" type="line"/>
      <point x="689" y="446" type="line"/>
      <point x="689" y="450" type="line"/>
      <point x="540" y="450" type="line"/>
      <point x="587" y="572" type="line"/>
      <point x="582" y="572" type="line"/>
      <point x="534" y="450" type="line"/>
      <point x="325" y="450" type="line"/>
      <point x="372" y="572" type="line"/>
      <point x="367" y="572" type="line"/>
      <point x="320" y="450" type="line"/>
      <point x="148" y="450" type="line"/>
    </contour>
    <contour>
      <point x="449" y="227" type="curve"/>
      <point x="239" y="227" type="line"/>
      <point x="323" y="446" type="line"/>
      <point x="533" y="446" type="line"/>
      <point x="505" y="374"/>
      <point x="476" y="299"/>
    </contour>
  </outline>
</glyph>
<glyph name="parenright" format="2">
  <advance width="599"/>
  <unicode hex="0029"/>
  <outline>
    <contour>
      <point x="-222" y="-390" type="line"/>
      <point x="-10" y="-319"/>
      <point x="205" y="-115"/>
      <point x="316" y="131" type="curve" smooth="yes"/>
      <point x="416" y="356"/>
      <point x="434" y="625"/>
      <point x="335" y="851" type="curve"/>
      <point x="331" y="849" type="line"/>
      <point x="430" y="607"/>
      <point x="392" y="349"/>
      <point x="295" y="134" type="curve" smooth="yes"/>
      <point x="184" y="-110"/>
      <point x="-14" y="-316"/>
      <point x="-224" y="-386" type="curve"/>
    </contour>
  </outline>
</glyph>
<glyph name="greater" format="2">
  <advance width="486"/>
  <unicode hex="003E"/>
  <outline>
    <contour>
      <point x="154" y="115" type="line"/>
      <point x="345" y="274" type="line"/>
      <point x="154" y="433" type="line"/>
      <point x="152" y="429" type="line"/>
      <point x="323" y="274" type="line"/>
      <point x="152" y="119" type="line"/>
    </contour>
  </outline>
</glyph>
<glyph name="J" format="2">
  <advance width="602"/>
  <unicode hex="004A"/>
  <outline>
    <contour>
      <point x="625" y="936" type="curve" smooth="yes"/>
      <point x="342" y="936"/>
      <point x="110" y="673"/>
      <point x="110" y="466" type="curve" smooth="yes"/>
      <point x="110" y="357"/>
      <point x="167" y="237"/>
      <point x="308" y="237" type="curve" smooth="yes"/>
      <point x="312" y="237" type="line"/>
      <point x="300" y="214" type="line" smooth="yes"/>
      <point x="226" y="74"/>
      <point x="61" y="-161"/>
      <point x="-130" y="-150" type="curve" smooth="yes"/>
      <point x="-187" y="-147"/>
      <point x="-277" y="-92"/>
      <point x="-235" y="10" type="curve"/>
      <point x="-236" y="11" type="line"/>
      <point x="-285" y="-102"/>
      <point x="-195" y="-154"/>
      <point x="-130" y="-157" type="curve" smooth="yes"/>
      <point x="98" y="-169"/>
      <point x="232" y="47"/>
      <point x="327" y="227" type="curve"/>
      <point x="329" y="230"/>
      <point x="330" y="235"/>
      <point x="332" y="238" type="curve"/>
      <point x="463" y="251"/>
      <point x="586" y="367"/>
      <point x="586" y="503" type="curve" smooth="yes"/>
      <point x="586" y="554"/>
      <point x="566" y="592"/>
      <point x="535" y="615" type="curve"/>
      <point x="591" y="694"/>
      <point x="653" y="756"/>
      <point x="724" y="774" type="curve"/>
      <point x="760" y="786"/>
      <point x="817" y="811"/>
      <point x="817" y="854" type="curve" smooth="yes"/>
      <point x="817" y="909"/>
      <point x="726" y="936"/>
    </contour>
    <contour>
      <point x="634" y="931" type="curve" smooth="yes"/>
      <point x="733" y="931"/>
      <point x="803" y="902"/>
      <point x="803" y="849" type="curve" smooth="yes"/>
      <point x="803" y="812"/>
      <point x="758" y="791"/>
      <point x="725" y="780" type="curve" smooth="yes"/>
      <point x="654" y="758"/>
      <point x="589" y="696"/>
      <point x="530" y="618" type="curve"/>
      <point x="507" y="634"/>
      <point x="477" y="643"/>
      <point x="447" y="643" type="curve" smooth="yes"/>
      <point x="352" y="643"/>
      <point x="263" y="566"/>
      <point x="263" y="487" type="curve" smooth="yes"/>
      <point x="263" y="469"/>
      <point x="270" y="453"/>
      <point x="282" y="438" type="curve"/>
      <point x="286" y="440" type="line"/>
      <point x="275" y="453"/>
      <point x="272" y="468"/>
      <point x="272" y="484" type="curve" smooth="yes"/>
      <point x="272" y="562"/>
      <point x="354" y="638"/>
      <point x="446" y="638" type="curve" smooth="yes"/>
      <point x="475" y="638"/>
      <point x="504" y="630"/>
      <point x="526" y="613" type="curve"/>
      <point x="441" y="497"/>
      <point x="369" y="348"/>
      <point x="314" y="241" type="curve"/>
      <point x="309" y="241" type="line" smooth="yes"/>
      <point x="170" y="241"/>
      <point x="119" y="352"/>
      <point x="119" y="452" type="curve" smooth="yes"/>
      <point x="119" y="658"/>
      <point x="355" y="931"/>
    </contour>
    <contour>
      <point x="531" y="609" type="curve"/>
      <point x="557" y="587"/>
      <point x="574" y="553"/>
      <point x="574" y="504" type="curve" smooth="yes"/>
      <point x="574" y="369"/>
      <point x="459" y="256"/>
      <point x="334" y="242" type="curve"/>
      <point x="386" y="344"/>
      <point x="451" y="493"/>
    </contour>
  </outline>
</glyph>
<glyph name="bracketright" format="2">
  <advance width="402"/>
  <unicode hex="005D"/>
  <outline>
    <contour>
      <point x="446" y="895" type="line"/>
      <point x="298" y="895" type="line"/>
      <point x="296" y="891" type="line"/>
      <point x="427" y="891" type="line"/>
      <point x="-93" y="-291" type="line"/>
      <point x="-224" y="-291" type="line"/>
      <point x="-226" y="-295" type="line"/>
      <point x="-78" y="-295" type="line"/>
    </contour>
  </outline>
</glyph>
<glyph name="asciicircum" format="2">
  <advance width="548"/>
  <unicode hex="005E"/>
  <outline>
    <contour>
      <point x="283" y="676" type="line"/>
      <point x="283" y="676"/>
      <point x="415" y="775"/>
      <point x="430" y="786" type="curve"/>
      <point x="484" y="680" type="line"/>
      <point x="487" y="682" type="line"/>
      <point x="445" y="814" type="line"/>
      <point x="281" y="679" type="line"/>
    </contour>
  </outline>
</glyph>
<glyph name="grave" format="2">
  <advance width="257"/>
  <unicode hex="0060"/>
  <outline>
    <contour>
      <point x="287" y="696" type="line"/>
      <point x="168" y="781" type="line" smooth="yes"/>
      <point x="164" y="784"/>
      <point x="156" y="788"/>
      <point x="148" y="788" type="curve" smooth="yes"/>
      <point x="140" y="788"/>
      <point x="136" y="784"/>
      <point x="136" y="777" type="curve" smooth="yes"/>
      <point x="136" y="768"/>
      <point x="143" y="763"/>
      <point x="152" y="759" type="curve" smooth="yes"/>
      <point x="285" y="694" type="line"/>
    </contour>
  </outline>
</glyph>
<glyph name="b" format="2">
  <advance width="386"/>
  <unicode hex="0062"/>
  <outline>
    <contour>
      <point x="-17" y="0" type="curve" smooth="yes"/>
      <point x="52" y="-7"/>
      <point x="132" y="71"/>
      <point x="200" y="177" type="curve"/>
      <point x="209" y="173"/>
      <point x="221" y="171"/>
      <point x="234" y="171" type="curve" smooth="yes"/>
      <point x="274" y="171"/>
      <point x="347" y="214"/>
      <point x="389" y="280" type="curve"/>
      <point x="386" y="282" type="line"/>
      <point x="346" y="219"/>
      <point x="274" y="175"/>
      <point x="237" y="175" type="curve" smooth="yes"/>
      <point x="223" y="175"/>
      <point x="212" y="177"/>
      <point x="203" y="181" type="curve"/>
      <point x="244" y="246"/>
      <point x="280" y="320"/>
      <point x="308" y="392" type="curve" smooth="yes"/>
      <point x="336" y="461"/>
      <point x="340" y="548"/>
      <point x="300" y="548" type="curve" smooth="yes"/>
      <point x="248" y="548"/>
      <point x="165" y="414"/>
      <point x="153" y="305" type="curve" smooth="yes"/>
      <point x="148" y="257"/>
      <point x="154" y="207"/>
      <point x="187" y="184" type="curve"/>
      <point x="119" y="69"/>
      <point x="51" y="1"/>
      <point x="-16" y="5" type="curve" smooth="yes"/>
      <point x="-55" y="7"/>
      <point x="-83" y="72"/>
      <point x="-46" y="152" type="curve" smooth="yes"/>
      <point x="336" y="971" type="line"/>
      <point x="316" y="971" type="line"/>
      <point x="-55" y="161" type="line" smooth="yes"/>
      <point x="-95" y="72"/>
      <point x="-59" y="4"/>
    </contour>
    <contour>
      <point x="159" y="301" type="curve" smooth="yes"/>
      <point x="171" y="412"/>
      <point x="253" y="543"/>
      <point x="300" y="543" type="curve" smooth="yes"/>
      <point x="337" y="543"/>
      <point x="319" y="459"/>
      <point x="284" y="377" type="curve" smooth="yes"/>
      <point x="252" y="306"/>
      <point x="221" y="242"/>
      <point x="189" y="189" type="curve"/>
      <point x="159" y="211"/>
      <point x="154" y="258"/>
    </contour>
  </outline>
</glyph>
<glyph name="h" format="2">
  <advance width="476"/>
  <unicode hex="0068"/>
  <outline>
    <contour>
      <point x="254" y="0" type="curve" smooth="yes"/>
      <point x="323" y="0"/>
      <point x="418" y="146"/>
      <point x="479" y="280" type="curve"/>
      <point x="476" y="282" type="line"/>
      <point x="417" y="154"/>
      <point x="322" y="5"/>
      <point x="255" y="5" type="curve" smooth="yes"/>
      <point x="229" y="5"/>
      <point x="210" y="39"/>
      <point x="216" y="86" type="curve" smooth="yes"/>
      <point x="225" y="164"/>
      <point x="269" y="227"/>
      <point x="315" y="299" type="curve" smooth="yes"/>
      <point x="354" y="358"/>
      <point x="393" y="434"/>
      <point x="400" y="490" type="curve" smooth="yes"/>
      <point x="407" y="545"/>
      <point x="374" y="565"/>
      <point x="350" y="565" type="curve" smooth="yes"/>
      <point x="300" y="565"/>
      <point x="227" y="492"/>
      <point x="159" y="404" type="curve"/>
      <point x="173" y="443"/>
      <point x="186" y="480"/>
      <point x="200" y="513" type="curve" smooth="yes"/>
      <point x="207" y="531"/>
      <point x="213" y="550"/>
      <point x="220" y="569" type="curve"/>
      <point x="340" y="663"/>
      <point x="471" y="711"/>
      <point x="583" y="850" type="curve" smooth="yes"/>
      <point x="610" y="883"/>
      <point x="631" y="920"/>
      <point x="631" y="960" type="curve" smooth="yes"/>
      <point x="631" y="991"/>
      <point x="612" y="1017"/>
      <point x="576" y="1021" type="curve" smooth="yes"/>
      <point x="505" y="1026"/>
      <point x="391" y="968"/>
      <point x="313" y="831" type="curve" smooth="yes"/>
      <point x="277" y="767"/>
      <point x="249" y="670"/>
      <point x="215" y="571" type="curve"/>
      <point x="137" y="509"/>
      <point x="63" y="427"/>
      <point x="0" y="282" type="curve"/>
      <point x="3" y="280" type="line"/>
      <point x="63" y="419"/>
      <point x="135" y="500"/>
      <point x="212" y="562" type="curve"/>
      <point x="207" y="546"/>
      <point x="201" y="529"/>
      <point x="195" y="513" type="curve" smooth="yes"/>
      <point x="143" y="384" type="line"/>
      <point x="86" y="306"/>
      <point x="35" y="220"/>
      <point x="8" y="161" type="curve" smooth="yes"/>
      <point x="-35" y="70"/>
      <point x="-65" y="-3"/>
      <point x="-45" y="-3" type="curve" smooth="yes"/>
      <point x="-29" y="-3"/>
      <point x="9" y="45"/>
      <point x="70" y="185" type="curve" smooth="yes"/>
      <point x="79" y="205" type="line" smooth="yes"/>
      <point x="106" y="258"/>
      <point x="130" y="323"/>
      <point x="152" y="386" type="curve"/>
      <point x="222" y="480"/>
      <point x="299" y="560"/>
      <point x="350" y="560" type="curve" smooth="yes"/>
      <point x="372" y="560"/>
      <point x="400" y="548"/>
      <point x="393" y="493" type="curve" smooth="yes"/>
      <point x="385" y="423"/>
      <point x="337" y="371"/>
      <point x="297" y="306" type="curve" smooth="yes"/>
      <point x="252" y="235"/>
      <point x="217" y="167"/>
      <point x="208" y="92" type="curve" smooth="yes"/>
      <point x="203" y="43"/>
      <point x="225" y="0"/>
    </contour>
    <contour>
      <point x="331" y="830" type="curve" smooth="yes"/>
      <point x="404" y="959"/>
      <point x="510" y="1022"/>
      <point x="576" y="1017" type="curve" smooth="yes"/>
      <point x="607" y="1014"/>
      <point x="628" y="993"/>
      <point x="628" y="967" type="curve" smooth="yes"/>
      <point x="628" y="927"/>
      <point x="598" y="887"/>
      <point x="575" y="858" type="curve" smooth="yes"/>
      <point x="462" y="716"/>
      <point x="338" y="666"/>
      <point x="224" y="578" type="curve"/>
      <point x="259" y="674"/>
      <point x="293" y="764"/>
    </contour>
    <contour>
      <point x="62" y="205" type="curve"/>
      <point x="55" y="190" type="line" smooth="yes"/>
      <point x="-21" y="26"/>
      <point x="-36" y="2"/>
      <point x="-44" y="2" type="curve" smooth="yes"/>
      <point x="-58" y="2"/>
      <point x="-31" y="70"/>
      <point x="12" y="158" type="curve" smooth="yes"/>
      <point x="37" y="211"/>
      <point x="83" y="289"/>
      <point x="135" y="362" type="curve"/>
      <point x="112" y="307"/>
      <point x="88" y="251"/>
    </contour>
  </outline>
</glyph>
<glyph name="j" format="2">
  <advance width="194"/>
  <unicode hex="006A"/>
  <outline>
    <contour>
      <point x="154" y="561" type="line"/>
      <point x="118" y="533"/>
      <point x="79" y="459"/>
      <point x="64" y="429" type="curve" smooth="yes"/>
      <point x="-1" y="301"/>
      <point x="-47" y="142"/>
      <point x="-94" y="11" type="curve" smooth="yes"/>
      <point x="-118" y="-55" type="line"/>
      <point x="-172" y="-91"/>
      <point x="-225" y="-122"/>
      <point x="-272" y="-149" type="curve" smooth="yes"/>
      <point x="-352" y="-196"/>
      <point x="-444" y="-248"/>
      <point x="-498" y="-314" type="curve" smooth="yes"/>
      <point x="-524" y="-345"/>
      <point x="-539" y="-383"/>
      <point x="-540" y="-418" type="curve" smooth="yes"/>
      <point x="-543" y="-459"/>
      <point x="-522" y="-493"/>
      <point x="-470" y="-497" type="curve" smooth="yes"/>
      <point x="-399" y="-502"/>
      <point x="-285" y="-444"/>
      <point x="-207" y="-307" type="curve" smooth="yes"/>
      <point x="-172" y="-246"/>
      <point x="-144" y="-153"/>
      <point x="-113" y="-58" type="curve"/>
      <point x="2" y="18"/>
      <point x="122" y="123"/>
      <point x="197" y="280" type="curve"/>
      <point x="194" y="282" type="line"/>
      <point x="121" y="128"/>
      <point x="3" y="26"/>
      <point x="-110" y="-50" type="curve"/>
      <point x="-89" y="11" type="line" smooth="yes"/>
      <point x="-47" y="130"/>
      <point x="10" y="300"/>
      <point x="78" y="424" type="curve" smooth="yes"/>
      <point x="110" y="484"/>
      <point x="138" y="527"/>
      <point x="183" y="561" type="curve"/>
    </contour>
    <contour>
      <point x="-225" y="-306" type="curve" smooth="yes"/>
      <point x="-297" y="-435"/>
      <point x="-404" y="-498"/>
      <point x="-469" y="-493" type="curve" smooth="yes"/>
      <point x="-514" y="-490"/>
      <point x="-538" y="-464"/>
      <point x="-536" y="-425" type="curve" smooth="yes"/>
      <point x="-534" y="-389"/>
      <point x="-516" y="-355"/>
      <point x="-490" y="-322" type="curve" smooth="yes"/>
      <point x="-433" y="-250"/>
      <point x="-332" y="-189"/>
      <point x="-271" y="-153" type="curve" smooth="yes"/>
      <point x="-225" y="-127"/>
      <point x="-173" y="-98"/>
      <point x="-120" y="-63" type="curve"/>
      <point x="-154" y="-156"/>
      <point x="-188" y="-243"/>
    </contour>
    <contour>
      <point x="233" y="735" type="curve"/>
      <point x="231" y="726"/>
      <point x="235" y="717"/>
      <point x="246" y="717" type="curve" smooth="yes"/>
      <point x="256" y="717"/>
      <point x="267" y="724"/>
      <point x="270" y="735" type="curve"/>
      <point x="274" y="746"/>
      <point x="268" y="754"/>
      <point x="258" y="754" type="curve" smooth="yes"/>
      <point x="247" y="754"/>
      <point x="237" y="746"/>
    </contour>
  </outline>
</glyph>
<glyph name="k" format="2">
  <advance width="476"/>
  <unicode hex="006B"/>
  <outline>
    <contour>
      <point x="79" y="205" type="line" smooth="yes"/>
      <point x="109" y="265"/>
      <point x="135" y="339"/>
      <point x="160" y="408" type="curve"/>
      <point x="231" y="507"/>
      <point x="309" y="590"/>
      <point x="362" y="590" type="curve" smooth="yes"/>
      <point x="386" y="590"/>
      <point x="417" y="578"/>
      <point x="417" y="514" type="curve" smooth="yes"/>
      <point x="417" y="438"/>
      <point x="353" y="334"/>
      <point x="271" y="334" type="curve" smooth="yes"/>
      <point x="257" y="334"/>
      <point x="236" y="339"/>
      <point x="223" y="363" type="curve"/>
      <point x="221" y="357" type="line"/>
      <point x="222" y="354"/>
      <point x="223" y="352"/>
      <point x="225" y="350" type="curve"/>
      <point x="221" y="342"/>
      <point x="218" y="334"/>
      <point x="214" y="327" type="curve" smooth="yes"/>
      <point x="176" y="265"/>
      <point x="150" y="212"/>
      <point x="150" y="133" type="curve" smooth="yes"/>
      <point x="150" y="55"/>
      <point x="183" y="0"/>
      <point x="237" y="0" type="curve" smooth="yes"/>
      <point x="322" y="0"/>
      <point x="418" y="146"/>
      <point x="479" y="280" type="curve"/>
      <point x="476" y="282" type="line"/>
      <point x="417" y="154"/>
      <point x="320" y="5"/>
      <point x="238" y="5" type="curve" smooth="yes"/>
      <point x="148" y="5"/>
      <point x="143" y="177"/>
      <point x="223" y="332" type="curve"/>
      <point x="226" y="337"/>
      <point x="230" y="341"/>
      <point x="240" y="337" type="curve"/>
      <point x="253" y="329"/>
      <point x="269" y="327"/>
      <point x="281" y="327" type="curve" smooth="yes"/>
      <point x="378" y="327"/>
      <point x="434" y="438"/>
      <point x="434" y="503" type="curve" smooth="yes"/>
      <point x="434" y="566"/>
      <point x="398" y="596"/>
      <point x="365" y="596" type="curve" smooth="yes"/>
      <point x="312" y="596"/>
      <point x="236" y="519"/>
      <point x="166" y="425" type="curve"/>
      <point x="177" y="456"/>
      <point x="189" y="486"/>
      <point x="200" y="513" type="curve" smooth="yes"/>
      <point x="207" y="531"/>
      <point x="213" y="550"/>
      <point x="220" y="569" type="curve"/>
      <point x="340" y="663"/>
      <point x="471" y="711"/>
      <point x="583" y="850" type="curve" smooth="yes"/>
      <point x="609" y="881"/>
      <point x="630" y="924"/>
      <point x="631" y="959" type="curve" smooth="yes"/>
      <point x="633" y="994"/>
      <point x="615" y="1017"/>
      <point x="576" y="1021" type="curve" smooth="yes"/>
      <point x="505" y="1026"/>
      <point x="391" y="968"/>
      <point x="313" y="831" type="curve" smooth="yes"/>
      <point x="277" y="767"/>
      <point x="249" y="670"/>
      <point x="215" y="571" type="curve"/>
      <point x="137" y="509"/>
      <point x="63" y="427"/>
      <point x="0" y="282" type="curve"/>
      <point x="3" y="280" type="line"/>
      <point x="63" y="419"/>
      <point x="135" y="500"/>
      <point x="212" y="562" type="curve"/>
      <point x="207" y="546"/>
      <point x="201" y="529"/>
      <point x="195" y="513" type="curve" smooth="yes"/>
      <point x="182" y="482"/>
      <point x="168" y="445"/>
      <point x="152" y="406" type="curve"/>
      <point x="92" y="322"/>
      <point x="37" y="227"/>
      <point x="8" y="161" type="curve" smooth="yes"/>
      <point x="-24" y="88"/>
      <point x="-51" y="28"/>
      <point x="-51" y="6" type="curve" smooth="yes"/>
      <point x="-51" y="-1"/>
      <point x="-49" y="-3"/>
      <point x="-45" y="-3" type="curve" smooth="yes"/>
      <point x="-27" y="-3"/>
      <point x="7" y="47"/>
      <point x="70" y="185" type="curve" smooth="yes"/>
    </contour>
    <contour>
      <point x="331" y="830" type="curve" smooth="yes"/>
      <point x="404" y="959"/>
      <point x="510" y="1022"/>
      <point x="576" y="1017" type="curve" smooth="yes"/>
      <point x="610" y="1014"/>
      <point x="627" y="995"/>
      <point x="625" y="962" type="curve" smooth="yes"/>
      <point x="623" y="926"/>
      <point x="601" y="891"/>
      <point x="575" y="858" type="curve" smooth="yes"/>
      <point x="462" y="716"/>
      <point x="338" y="666"/>
      <point x="224" y="578" type="curve"/>
      <point x="259" y="674"/>
      <point x="293" y="764"/>
    </contour>
    <contour>
      <point x="62" y="205" type="curve"/>
      <point x="55" y="190" type="line" smooth="yes"/>
      <point x="-21" y="26"/>
      <point x="-36" y="2"/>
      <point x="-44" y="2" type="curve" smooth="yes"/>
      <point x="-47" y="2"/>
      <point x="-48" y="4"/>
      <point x="-48" y="7" type="curve" smooth="yes"/>
      <point x="-48" y="25"/>
      <point x="-21" y="84"/>
      <point x="12" y="158" type="curve" smooth="yes"/>
      <point x="39" y="218"/>
      <point x="89" y="306"/>
      <point x="144" y="386" type="curve"/>
      <point x="119" y="324"/>
      <point x="91" y="258"/>
    </contour>
  </outline>
</glyph>
<glyph name="macron" format="2">
  <advance width="459"/>
  <unicode hex="00AF"/>
  <outline>
    <contour>
      <point x="204" y="708" type="line"/>
      <point x="204" y="708"/>
      <point x="460" y="708"/>
      <point x="460" y="708" type="curve"/>
      <point x="460" y="714" type="line"/>
      <point x="460" y="714"/>
      <point x="204" y="714"/>
      <point x="204" y="714" type="curve"/>
    </contour>
  </outline>
</glyph>
<glyph name="threesuperior" format="2">
  <advance width="533"/>
  <unicode hex="00B3"/>
  <outline>
    <contour>
      <point x="360" y="438" type="curve" smooth="yes"/>
      <point x="365" y="439"/>
      <point x="371" y="441"/>
      <point x="376" y="443" type="curve"/>
      <point x="405" y="424"/>
      <point x="423" y="389"/>
      <point x="423" y="348" type="curve" smooth="yes"/>
      <point x="423" y="228"/>
      <point x="291" y="73"/>
      <point x="126" y="73" type="curve" smooth="yes"/>
      <point x="97" y="73"/>
      <point x="30" y="88"/>
      <point x="34" y="136" type="curve"/>
      <point x="34" y="141"/>
      <point x="35" y="145"/>
      <point x="40" y="151" type="curve"/>
      <point x="38" y="152" type="line"/>
      <point x="29" y="143"/>
      <point x="26" y="137"/>
      <point x="25" y="127" type="curve" smooth="yes"/>
      <point x="22" y="82"/>
      <point x="96" y="68"/>
      <point x="126" y="68" type="curve" smooth="yes"/>
      <point x="273" y="68"/>
      <point x="438" y="200"/>
      <point x="438" y="338" type="curve" smooth="yes"/>
      <point x="438" y="384"/>
      <point x="415" y="423"/>
      <point x="381" y="445" type="curve"/>
      <point x="452" y="474"/>
      <point x="510" y="547"/>
      <point x="514" y="601" type="curve" smooth="yes"/>
      <point x="518" y="657"/>
      <point x="477" y="684"/>
      <point x="426" y="684" type="curve" smooth="yes"/>
      <point x="360" y="684"/>
      <point x="278" y="625"/>
      <point x="273" y="559" type="curve" smooth="yes"/>
      <point x="272" y="545"/>
      <point x="278" y="520"/>
      <point x="298" y="519" type="curve"/>
      <point x="300" y="521" type="line"/>
      <point x="283" y="523"/>
      <point x="281" y="542"/>
      <point x="283" y="556" type="curve"/>
      <point x="288" y="620"/>
      <point x="363" y="681"/>
      <point x="426" y="681" type="curve" smooth="yes"/>
      <point x="470" y="681"/>
      <point x="504" y="658"/>
      <point x="500" y="606" type="curve" smooth="yes"/>
      <point x="495" y="553"/>
      <point x="444" y="477"/>
      <point x="375" y="449" type="curve"/>
      <point x="359" y="458"/>
      <point x="340" y="464"/>
      <point x="320" y="464" type="curve" smooth="yes"/>
      <point x="300" y="464"/>
      <point x="286" y="456"/>
      <point x="286" y="449" type="curve"/>
      <point x="285" y="441"/>
      <point x="301" y="434"/>
      <point x="326" y="434" type="curve" smooth="yes"/>
      <point x="337" y="434"/>
      <point x="345" y="435"/>
    </contour>
    <contour>
      <point x="323" y="459" type="curve" smooth="yes"/>
      <point x="340" y="459"/>
      <point x="355" y="454"/>
      <point x="369" y="447" type="curve"/>
      <point x="364" y="445"/>
      <point x="359" y="443"/>
      <point x="354" y="442" type="curve" smooth="yes"/>
      <point x="339" y="439"/>
      <point x="332" y="439"/>
      <point x="326" y="439" type="curve" smooth="yes"/>
      <point x="307" y="439"/>
      <point x="298" y="444"/>
      <point x="298" y="450" type="curve" smooth="yes"/>
      <point x="298" y="454"/>
      <point x="309" y="459"/>
    </contour>
  </outline>
</glyph>
<glyph name="acute" format="2">
  <advance width="257"/>
  <unicode hex="00B4"/>
  <outline>
    <contour>
      <point x="138" y="694" type="line"/>
      <point x="271" y="759" type="line" smooth="yes"/>
      <point x="280" y="763"/>
      <point x="287" y="768"/>
      <point x="287" y="777" type="curve" smooth="yes"/>
      <point x="287" y="784"/>
      <point x="283" y="788"/>
      <point x="275" y="788" type="curve" smooth="yes"/>
      <point x="267" y="788"/>
      <point x="259" y="784"/>
      <point x="255" y="781" type="curve" smooth="yes"/>
      <point x="136" y="696" type="line"/>
    </contour>
  </outline>
</glyph>
<glyph name="cedilla" format="2">
  <advance width="175"/>
  <unicode hex="00B8"/>
  <outline>
    <contour>
      <point x="37" y="-6" type="line"/>
      <point x="24" y="-38"/>
      <point x="49" y="-57"/>
      <point x="49" y="-84" type="curve" smooth="yes"/>
      <point x="49" y="-117"/>
      <point x="20" y="-165"/>
      <point x="-47" y="-177" type="curve"/>
      <point x="-47" y="-180" type="line"/>
      <point x="20" y="-167"/>
      <point x="63" y="-131"/>
      <point x="63" y="-97" type="curve" smooth="yes"/>
      <point x="63" y="-69"/>
      <point x="27" y="-41"/>
      <point x="41" y="-8" type="curve"/>
    </contour>
  </outline>
</glyph>
<glyph name="AE" format="2">
  <advance width="1432"/>
  <unicode hex="00C6"/>
  <outline>
    <contour>
      <point x="926" y="-105" type="curve" smooth="yes"/>
      <point x="1168" y="-105"/>
      <point x="1359" y="101"/>
      <point x="1367" y="274" type="curve" smooth="yes"/>
      <point x="1372" y="374"/>
      <point x="1306" y="481"/>
      <point x="1170" y="481" type="curve" smooth="yes"/>
      <point x="1017" y="481"/>
      <point x="890" y="374"/>
      <point x="876" y="232" type="curve" smooth="yes"/>
      <point x="868" y="129"/>
      <point x="932" y="75"/>
      <point x="1008" y="75" type="curve" smooth="yes"/>
      <point x="1094" y="75"/>
      <point x="1173" y="141"/>
      <point x="1179" y="211" type="curve"/>
      <point x="1183" y="234"/>
      <point x="1174" y="252"/>
      <point x="1159" y="270" type="curve"/>
      <point x="1157" y="269" type="line"/>
      <point x="1168" y="251"/>
      <point x="1173" y="232"/>
      <point x="1171" y="211" type="curve" smooth="yes"/>
      <point x="1165" y="143"/>
      <point x="1091" y="79"/>
      <point x="1011" y="79" type="curve" smooth="yes"/>
      <point x="942" y="79"/>
      <point x="880" y="126"/>
      <point x="890" y="232" type="curve" smooth="yes"/>
      <point x="902" y="373"/>
      <point x="1021" y="477"/>
      <point x="1168" y="477" type="curve" smooth="yes"/>
      <point x="1301" y="477"/>
      <point x="1358" y="380"/>
      <point x="1355" y="286" type="curve" smooth="yes"/>
      <point x="1346" y="114"/>
      <point x="1155" y="-97"/>
      <point x="926" y="-97" type="curve" smooth="yes"/>
      <point x="762" y="-97"/>
      <point x="681" y="19"/>
      <point x="688" y="160" type="curve" smooth="yes"/>
      <point x="699" y="379"/>
      <point x="915" y="602"/>
      <point x="1129" y="633" type="curve"/>
      <point x="1173" y="577"/>
      <point x="1248" y="551"/>
      <point x="1289" y="551" type="curve" smooth="yes"/>
      <point x="1336" y="551"/>
      <point x="1345" y="570"/>
      <point x="1345" y="580" type="curve" smooth="yes"/>
      <point x="1345" y="596"/>
      <point x="1309" y="640"/>
      <point x="1179" y="640" type="curve" smooth="yes"/>
      <point x="1166" y="640"/>
      <point x="1152" y="639"/>
      <point x="1139" y="638" type="curve"/>
      <point x="1123" y="662"/>
      <point x="1112" y="693"/>
      <point x="1112" y="730" type="curve" smooth="yes"/>
      <point x="1112" y="863"/>
      <point x="1234" y="960"/>
      <point x="1364" y="960" type="curve" smooth="yes"/>
      <point x="1455" y="960"/>
      <point x="1517" y="896"/>
      <point x="1517" y="829" type="curve" smooth="yes"/>
      <point x="1517" y="791"/>
      <point x="1500" y="734"/>
      <point x="1456" y="722" type="curve"/>
      <point x="1458" y="718" type="line"/>
      <point x="1504" y="730"/>
      <point x="1529" y="785"/>
      <point x="1529" y="824" type="curve" smooth="yes"/>
      <point x="1529" y="893"/>
      <point x="1457" y="964"/>
      <point x="1364" y="964" type="curve" smooth="yes"/>
      <point x="1226" y="964"/>
      <point x="1096" y="865"/>
      <point x="1096" y="730" type="curve" smooth="yes"/>
      <point x="1096" y="693"/>
      <point x="1108" y="661"/>
      <point x="1127" y="636" type="curve"/>
      <point x="999" y="619"/>
      <point x="867" y="539"/>
      <point x="778" y="432" type="curve"/>
      <point x="908" y="715" type="line" smooth="yes"/>
      <point x="937" y="779"/>
      <point x="992" y="893"/>
      <point x="1026" y="915" type="curve" smooth="yes"/>
      <point x="1039" y="923"/>
      <point x="1048" y="934"/>
      <point x="1048" y="942" type="curve" smooth="yes"/>
      <point x="1048" y="959"/>
      <point x="1039" y="982"/>
      <point x="1009" y="982" type="curve" smooth="yes"/>
      <point x="823" y="982"/>
      <point x="637" y="630"/>
      <point x="428" y="350" type="curve"/>
      <point x="323" y="350" type="line"/>
      <point x="323" y="345" type="line"/>
      <point x="424" y="345" type="line"/>
      <point x="400" y="313" type="line" smooth="yes"/>
      <point x="230" y="88"/>
      <point x="22" y="-91"/>
      <point x="-218" y="-77" type="curve" smooth="yes"/>
      <point x="-269" y="-74"/>
      <point x="-342" y="-24"/>
      <point x="-288" y="69" type="curve"/>
      <point x="-289" y="70" type="line"/>
      <point x="-351" y="-33"/>
      <point x="-277" y="-80"/>
      <point x="-219" y="-83" type="curve" smooth="yes"/>
      <point x="-86" y="-90"/>
      <point x="36" y="-52"/>
      <point x="143" y="25" type="curve" smooth="yes"/>
      <point x="243" y="96"/>
      <point x="328" y="201"/>
      <point x="409" y="309" type="curve" smooth="yes"/>
      <point x="435" y="345" type="line"/>
      <point x="719" y="345" type="line"/>
      <point x="691" y="292"/>
      <point x="673" y="235"/>
      <point x="671" y="178" type="curve" smooth="yes"/>
      <point x="663" y="35"/>
      <point x="748" y="-105"/>
    </contour>
    <contour>
      <point x="828" y="879" type="curve" smooth="yes"/>
      <point x="882" y="926"/>
      <point x="934" y="969"/>
      <point x="995" y="969" type="curve" smooth="yes"/>
      <point x="1023" y="969"/>
      <point x="1044" y="957"/>
      <point x="1044" y="942" type="curve" smooth="yes"/>
      <point x="1044" y="935"/>
      <point x="1037" y="926"/>
      <point x="1024" y="919" type="curve" smooth="yes"/>
      <point x="989" y="899"/>
      <point x="918" y="779"/>
      <point x="889" y="715" type="curve" smooth="yes"/>
      <point x="723" y="352" type="line"/>
      <point x="723" y="351"/>
      <point x="722" y="351"/>
      <point x="722" y="350" type="curve"/>
      <point x="439" y="350" type="line"/>
      <point x="581" y="545"/>
      <point x="702" y="758"/>
    </contour>
    <contour>
      <point x="758" y="925" type="line"/>
      <point x="730" y="856"/>
      <point x="679" y="831"/>
      <point x="602" y="831" type="curve" smooth="yes"/>
      <point x="501" y="831"/>
      <point x="388" y="876"/>
      <point x="305" y="876" type="curve" smooth="yes"/>
      <point x="143" y="876"/>
      <point x="1" y="727"/>
      <point x="1" y="580" type="curve" smooth="yes"/>
      <point x="1" y="481"/>
      <point x="59" y="373"/>
      <point x="185" y="370" type="curve" smooth="yes"/>
      <point x="313" y="370"/>
      <point x="438" y="482"/>
      <point x="438" y="615" type="curve" smooth="yes"/>
      <point x="438" y="699"/>
      <point x="377" y="743"/>
      <point x="309" y="743" type="curve" smooth="yes"/>
      <point x="222" y="743"/>
      <point x="139" y="671"/>
      <point x="139" y="599" type="curve" smooth="yes"/>
      <point x="139" y="582"/>
      <point x="147" y="569"/>
      <point x="157" y="554" type="curve"/>
      <point x="161" y="556" type="line"/>
      <point x="153" y="569"/>
      <point x="149" y="582"/>
      <point x="149" y="596" type="curve" smooth="yes"/>
      <point x="149" y="668"/>
      <point x="222" y="738"/>
      <point x="308" y="738" type="curve" smooth="yes"/>
      <point x="369" y="738"/>
      <point x="424" y="700"/>
      <point x="424" y="616" type="curve" smooth="yes"/>
      <point x="424" y="485"/>
      <point x="311" y="379"/>
      <point x="194" y="374" type="curve" smooth="yes"/>
      <point x="64" y="374"/>
      <point x="12" y="474"/>
      <point x="12" y="568" type="curve" smooth="yes"/>
      <point x="12" y="696"/>
      <point x="141" y="869"/>
      <point x="313" y="869" type="curve" smooth="yes"/>
      <point x="391" y="869"/>
      <point x="495" y="826"/>
      <point x="590" y="826" type="curve" smooth="yes"/>
      <point x="673" y="826"/>
      <point x="731" y="849"/>
      <point x="765" y="919" type="curve"/>
    </contour>
    <contour>
      <point x="1279" y="557" type="curve" smooth="yes"/>
      <point x="1244" y="557"/>
      <point x="1180" y="581"/>
      <point x="1142" y="634" type="curve"/>
      <point x="1154" y="636"/>
      <point x="1167" y="637"/>
      <point x="1180" y="637" type="curve" smooth="yes"/>
      <point x="1296" y="637"/>
      <point x="1328" y="597"/>
      <point x="1328" y="582" type="curve" smooth="yes"/>
      <point x="1328" y="568"/>
      <point x="1308" y="557"/>
    </contour>
  </outline>
</glyph>
<glyph name="icircumflex" format="2">
  <advance width="187"/>
  <unicode hex="00EE"/>
  <outline>
    <contour>
      <point x="123" y="550" type="line"/>
      <point x="0" y="282" type="line"/>
      <point x="-55" y="161" type="line" smooth="yes"/>
      <point x="-95" y="72"/>
      <point x="-77" y="0"/>
      <point x="-35" y="0" type="curve" smooth="yes"/>
      <point x="34" y="0"/>
      <point x="129" y="146"/>
      <point x="190" y="280" type="curve"/>
      <point x="187" y="282" type="line"/>
      <point x="128" y="154"/>
      <point x="32" y="4"/>
      <point x="-34" y="4" type="curve" smooth="yes"/>
      <point x="-73" y="4"/>
      <point x="-83" y="72"/>
      <point x="-46" y="152" type="curve" smooth="yes"/>
      <point x="144" y="550" type="line"/>
    </contour>
    <contour>
      <point x="63" y="676" type="line"/>
      <point x="63" y="676"/>
      <point x="195" y="775"/>
      <point x="210" y="786" type="curve"/>
      <point x="210" y="786"/>
      <point x="264" y="680"/>
      <point x="264" y="680" type="curve"/>
      <point x="267" y="682" type="line"/>
      <point x="267" y="682"/>
      <point x="225" y="814"/>
      <point x="225" y="814" type="curve"/>
      <point x="225" y="814"/>
      <point x="61" y="679"/>
      <point x="61" y="679" type="curve"/>
    </contour>
  </outline>
</glyph>
<glyph name="divide" format="2">
  <advance width="302"/>
  <unicode hex="00F7"/>
  <outline>
    <contour>
      <point x="5" y="15" type="curve"/>
      <point x="2" y="4"/>
      <point x="7" y="-8"/>
      <point x="21" y="-8" type="curve" smooth="yes"/>
      <point x="34" y="-8"/>
      <point x="48" y="1"/>
      <point x="52" y="15" type="curve"/>
      <point x="57" y="29"/>
      <point x="49" y="39"/>
      <point x="37" y="39" type="curve" smooth="yes"/>
      <point x="23" y="39"/>
      <point x="10" y="29"/>
    </contour>
    <contour>
      <point x="164" y="418" type="curve"/>
      <point x="161" y="407"/>
      <point x="166" y="395"/>
      <point x="180" y="395" type="curve" smooth="yes"/>
      <point x="193" y="395"/>
      <point x="207" y="404"/>
      <point x="211" y="418" type="curve"/>
      <point x="216" y="432"/>
      <point x="208" y="442"/>
      <point x="196" y="442" type="curve" smooth="yes"/>
      <point x="182" y="442"/>
      <point x="169" y="432"/>
    </contour>
  </outline>
</glyph>
<glyph name="udieresis" format="2">
  <advance width="374"/>
  <unicode hex="00FC"/>
  <outline>
    <contour>
      <point x="310" y="550" type="line"/>
      <point x="187" y="282" type="line"/>
      <point x="177" y="261" type="line" smooth="yes"/>
      <point x="117" y="138"/>
      <point x="28" y="4"/>
      <point x="-34" y="4" type="curve" smooth="yes"/>
      <point x="-73" y="4"/>
      <point x="-83" y="72"/>
      <point x="-46" y="152" type="curve" smooth="yes"/>
      <point x="144" y="550" type="line"/>
      <point x="123" y="550" type="line"/>
      <point x="0" y="282" type="line"/>
      <point x="-55" y="161" type="line" smooth="yes"/>
      <point x="-95" y="72"/>
      <point x="-77" y="0"/>
      <point x="-35" y="0" type="curve" smooth="yes"/>
      <point x="18" y="0"/>
      <point x="86" y="85"/>
      <point x="142" y="186" type="curve"/>
      <point x="131" y="161" type="line" smooth="yes"/>
      <point x="91" y="72"/>
      <point x="110" y="0"/>
      <point x="152" y="0" type="curve" smooth="yes"/>
      <point x="221" y="0"/>
      <point x="316" y="146"/>
      <point x="377" y="280" type="curve"/>
      <point x="374" y="282" type="line"/>
      <point x="315" y="154"/>
      <point x="219" y="4"/>
      <point x="152" y="4" type="curve" smooth="yes"/>
      <point x="113" y="4"/>
      <point x="103" y="72"/>
      <point x="140" y="152" type="curve" smooth="yes"/>
      <point x="331" y="550" type="line"/>
    </contour>
    <contour>
      <point x="213" y="735" type="curve"/>
      <point x="211" y="726"/>
      <point x="215" y="717"/>
      <point x="226" y="717" type="curve" smooth="yes"/>
      <point x="236" y="717"/>
      <point x="247" y="724"/>
      <point x="250" y="735" type="curve"/>
      <point x="254" y="746"/>
      <point x="248" y="754"/>
      <point x="238" y="754" type="curve" smooth="yes"/>
      <point x="227" y="754"/>
      <point x="217" y="746"/>
    </contour>
    <contour>
      <point x="318" y="735" type="curve"/>
      <point x="316" y="726"/>
      <point x="320" y="717"/>
      <point x="331" y="717" type="curve" smooth="yes"/>
      <point x="341" y="717"/>
      <point x="352" y="724"/>
      <point x="355" y="735" type="curve"/>
      <point x="359" y="746"/>
      <point x="353" y="754"/>
      <point x="343" y="754" type="curve" smooth="yes"/>
      <point x="332" y="754"/>
      <point x="322" y="746"/>
    </contour>
  </outline>
</glyph>
<glyph name="dcaron" format="2">
  <advance width="659"/>
  <unicode hex="010F"/>
  <outline>
    <contour>
      <point x="261" y="558" type="curve" smooth="yes"/>
      <point x="310" y="558"/>
      <point x="324" y="524"/>
      <point x="318" y="485" type="curve" smooth="yes"/>
      <point x="313" y="449"/>
      <point x="293" y="408"/>
      <point x="266" y="382" type="curve"/>
      <point x="267" y="379" type="line"/>
      <point x="297" y="407"/>
      <point x="321" y="449"/>
      <point x="326" y="485" type="curve" smooth="yes"/>
      <point x="332" y="527"/>
      <point x="312" y="563"/>
      <point x="261" y="563" type="curve" smooth="yes"/>
      <point x="183" y="563"/>
      <point x="65" y="438"/>
      <point x="-1" y="280" type="curve" smooth="yes"/>
      <point x="-21" y="227"/>
      <point x="-36" y="181"/>
      <point x="-43" y="131" type="curve" smooth="yes"/>
      <point x="-54" y="46"/>
      <point x="-28" y="-12"/>
      <point x="18" y="-12" type="curve" smooth="yes"/>
      <point x="64" y="-12"/>
      <point x="142" y="50"/>
      <point x="193" y="136" type="curve"/>
      <point x="167" y="59"/>
      <point x="186" y="0"/>
      <point x="224" y="0" type="curve" smooth="yes"/>
      <point x="293" y="0"/>
      <point x="388" y="146"/>
      <point x="449" y="280" type="curve"/>
      <point x="446" y="282" type="line"/>
      <point x="387" y="154"/>
      <point x="291" y="4"/>
      <point x="224" y="4" type="curve" smooth="yes"/>
      <point x="185" y="4"/>
      <point x="175" y="72"/>
      <point x="212" y="152" type="curve" smooth="yes"/>
      <point x="595" y="971" type="line"/>
      <point x="575" y="971" type="line"/>
      <point x="213" y="183" type="line"/>
      <point x="215" y="188" type="line"/>
      <point x="157" y="71"/>
      <point x="72" y="-6"/>
      <point x="20" y="-6" type="curve" smooth="yes"/>
      <point x="-23" y="-6"/>
      <point x="-37" y="45"/>
      <point x="-27" y="123" type="curve" smooth="yes"/>
      <point x="-20" y="174"/>
      <point x="-8" y="220"/>
      <point x="14" y="275" type="curve" smooth="yes"/>
      <point x="82" y="430"/>
      <point x="192" y="558"/>
    </contour>
    <contour>
      <point x="657" y="774" type="curve" smooth="yes"/>
      <point x="642" y="774"/>
      <point x="628" y="761"/>
      <point x="628" y="747" type="curve" smooth="yes"/>
      <point x="628" y="739"/>
      <point x="632" y="731"/>
      <point x="643" y="731" type="curve" smooth="yes"/>
      <point x="645" y="731"/>
      <point x="649" y="731"/>
      <point x="651" y="732" type="curve"/>
      <point x="652" y="729"/>
      <point x="654" y="725"/>
      <point x="650" y="718" type="curve"/>
      <point x="636" y="698"/>
      <point x="621" y="680"/>
      <point x="601" y="666" type="curve"/>
      <point x="603" y="662" type="line"/>
      <point x="632" y="682"/>
      <point x="673" y="723"/>
      <point x="673" y="753" type="curve" smooth="yes"/>
      <point x="673" y="766"/>
      <point x="665" y="774"/>
    </contour>
  </outline>
</glyph>
<glyph name="gbreve" format="2">
  <advance width="446"/>
  <unicode hex="011F"/>
  <outline>
    <contour>
      <point x="273" y="558" type="curve" smooth="yes"/>
      <point x="318" y="558"/>
      <point x="332" y="529"/>
      <point x="326" y="495" type="curve"/>
      <point x="328" y="495" type="line"/>
      <point x="334" y="532"/>
      <point x="323" y="563"/>
      <point x="273" y="563" type="curve" smooth="yes"/>
      <point x="189" y="563"/>
      <point x="65" y="438"/>
      <point x="-1" y="280" type="curve" smooth="yes"/>
      <point x="-21" y="227"/>
      <point x="-36" y="181"/>
      <point x="-43" y="131" type="curve" smooth="yes"/>
      <point x="-54" y="54"/>
      <point x="-27" y="5"/>
      <point x="17" y="5" type="curve" smooth="yes"/>
      <point x="67" y="5"/>
      <point x="143" y="82"/>
      <point x="212" y="174" type="curve"/>
      <point x="193" y="117"/>
      <point x="175" y="62"/>
      <point x="157" y="11" type="curve" smooth="yes"/>
      <point x="133" y="-56" type="line"/>
      <point x="79" y="-92"/>
      <point x="26" y="-122"/>
      <point x="-20" y="-149" type="curve" smooth="yes"/>
      <point x="-100" y="-196"/>
      <point x="-192" y="-248"/>
      <point x="-246" y="-314" type="curve" smooth="yes"/>
      <point x="-272" y="-345"/>
      <point x="-287" y="-383"/>
      <point x="-288" y="-418" type="curve" smooth="yes"/>
      <point x="-291" y="-459"/>
      <point x="-270" y="-493"/>
      <point x="-218" y="-497" type="curve" smooth="yes"/>
      <point x="-147" y="-502"/>
      <point x="-33" y="-444"/>
      <point x="44" y="-307" type="curve" smooth="yes"/>
      <point x="78" y="-246"/>
      <point x="106" y="-153"/>
      <point x="138" y="-58" type="curve"/>
      <point x="254" y="18"/>
      <point x="374" y="123"/>
      <point x="449" y="280" type="curve"/>
      <point x="446" y="282" type="line"/>
      <point x="373" y="128"/>
      <point x="254" y="26"/>
      <point x="140" y="-50" type="curve"/>
      <point x="147" y="-30"/>
      <point x="154" y="-9"/>
      <point x="162" y="11" type="curve" smooth="yes"/>
      <point x="181" y="65"/>
      <point x="204" y="132"/>
      <point x="230" y="199" type="curve"/>
      <point x="281" y="270"/>
      <point x="327" y="347"/>
      <point x="352" y="401" type="curve" smooth="yes"/>
      <point x="395" y="492"/>
      <point x="425" y="565"/>
      <point x="405" y="565" type="curve" smooth="yes"/>
      <point x="389" y="565"/>
      <point x="351" y="517"/>
      <point x="289" y="377" type="curve" smooth="yes"/>
      <point x="280" y="357" type="line" smooth="yes"/>
      <point x="257" y="304"/>
      <point x="237" y="248"/>
      <point x="218" y="192" type="curve"/>
      <point x="147" y="95"/>
      <point x="67" y="10"/>
      <point x="17" y="10" type="curve" smooth="yes"/>
      <point x="-22" y="10"/>
      <point x="-37" y="53"/>
      <point x="-27" y="123" type="curve" smooth="yes"/>
      <point x="-20" y="174"/>
      <point x="-8" y="220"/>
      <point x="14" y="275" type="curve"/>
      <point x="88" y="430"/>
      <point x="198" y="558"/>
    </contour>
    <contour>
      <point x="26" y="-306" type="curve" smooth="yes"/>
      <point x="-45" y="-435"/>
      <point x="-152" y="-498"/>
      <point x="-217" y="-493" type="curve" smooth="yes"/>
      <point x="-262" y="-490"/>
      <point x="-286" y="-464"/>
      <point x="-284" y="-425" type="curve" smooth="yes"/>
      <point x="-282" y="-389"/>
      <point x="-264" y="-355"/>
      <point x="-238" y="-322" type="curve" smooth="yes"/>
      <point x="-181" y="-250"/>
      <point x="-80" y="-189"/>
      <point x="-19" y="-153" type="curve" smooth="yes"/>
      <point x="26" y="-127"/>
      <point x="77" y="-98"/>
      <point x="130" y="-64" type="curve"/>
      <point x="96" y="-156"/>
      <point x="63" y="-243"/>
    </contour>
    <contour>
      <point x="405" y="560" type="curve" smooth="yes"/>
      <point x="419" y="560"/>
      <point x="391" y="492"/>
      <point x="348" y="404" type="curve" smooth="yes"/>
      <point x="325" y="356"/>
      <point x="285" y="288"/>
      <point x="239" y="222" type="curve"/>
      <point x="257" y="268"/>
      <point x="277" y="314"/>
      <point x="297" y="357" type="curve" smooth="yes"/>
      <point x="304" y="372" type="line" smooth="yes"/>
      <point x="382" y="536"/>
      <point x="397" y="560"/>
    </contour>
    <contour>
      <point x="412" y="740" type="line"/>
      <point x="406" y="711"/>
      <point x="375" y="687"/>
      <point x="348" y="687" type="curve" smooth="yes"/>
      <point x="327" y="687"/>
      <point x="313" y="700"/>
      <point x="313" y="718" type="curve" smooth="yes"/>
      <point x="313" y="726"/>
      <point x="314" y="732"/>
      <point x="318" y="740" type="curve"/>
      <point x="301" y="740" type="line"/>
      <point x="297" y="733"/>
      <point x="296" y="726"/>
      <point x="296" y="719" type="curve" smooth="yes"/>
      <point x="296" y="698"/>
      <point x="317" y="683"/>
      <point x="348" y="683" type="curve" smooth="yes"/>
      <point x="385" y="683"/>
      <point x="423" y="707"/>
      <point x="429" y="740" type="curve"/>
    </contour>
  </outline>
</glyph>
<glyph name="lacute" format="2">
  <advance width="187"/>
  <unicode hex="013A"/>
  <outline>
    <contour>
      <point x="316" y="971" type="line"/>
      <point x="-55" y="161" type="line" smooth="yes"/>
      <point x="-95" y="72"/>
      <point x="-77" y="0"/>
      <point x="-35" y="0" type="curve" smooth="yes"/>
      <point x="34" y="0"/>
      <point x="129" y="146"/>
      <point x="190" y="280" type="curve"/>
      <point x="187" y="282" type="line"/>
      <point x="128" y="154"/>
      <point x="32" y="4"/>
      <point x="-34" y="4" type="curve" smooth="yes"/>
      <point x="-73" y="4"/>
      <point x="-83" y="72"/>
      <point x="-46" y="152" type="curve" smooth="yes"/>
      <point x="336" y="971" type="line"/>
    </contour>
    <contour>
      <point x="366" y="1070" type="line"/>
      <point x="499" y="1135" type="line" smooth="yes"/>
      <point x="508" y="1139"/>
      <point x="515" y="1144"/>
      <point x="515" y="1153" type="curve" smooth="yes"/>
      <point x="515" y="1160"/>
      <point x="511" y="1164"/>
      <point x="503" y="1164" type="curve" smooth="yes"/>
      <point x="495" y="1164"/>
      <point x="487" y="1160"/>
      <point x="483" y="1157" type="curve" smooth="yes"/>
      <point x="364" y="1072" type="line"/>
    </contour>
  </outline>
</glyph>
<glyph name="Lcaron" format="2">
  <advance width="740"/>
  <unicode hex="013D"/>
  <outline>
    <contour>
      <point x="836" y="970" type="curve" smooth="yes"/>
      <point x="660" y="970"/>
      <point x="467" y="554"/>
      <point x="374" y="380" type="curve" smooth="yes"/>
      <point x="363" y="359"/>
      <point x="351" y="338"/>
      <point x="339" y="317" type="curve"/>
      <point x="329" y="317" type="line" smooth="yes"/>
      <point x="182" y="317"/>
      <point x="54" y="414"/>
      <point x="54" y="567" type="curve" smooth="yes"/>
      <point x="54" y="711"/>
      <point x="168" y="817"/>
      <point x="287" y="817" type="curve" smooth="yes"/>
      <point x="373" y="817"/>
      <point x="428" y="760"/>
      <point x="428" y="693" type="curve" smooth="yes"/>
      <point x="428" y="627"/>
      <point x="376" y="543"/>
      <point x="292" y="543" type="curve" smooth="yes"/>
      <point x="280" y="543"/>
      <point x="237" y="545"/>
      <point x="221" y="586" type="curve"/>
      <point x="216" y="584" type="line"/>
      <point x="235" y="545"/>
      <point x="271" y="539"/>
      <point x="295" y="539" type="curve" smooth="yes"/>
      <point x="385" y="539"/>
      <point x="438" y="624"/>
      <point x="438" y="692" type="curve" smooth="yes"/>
      <point x="438" y="766"/>
      <point x="376" y="821"/>
      <point x="286" y="821" type="curve" smooth="yes"/>
      <point x="162" y="821"/>
      <point x="37" y="718"/>
      <point x="37" y="570" type="curve" smooth="yes"/>
      <point x="37" y="414"/>
      <point x="174" y="312"/>
      <point x="328" y="312" type="curve" smooth="yes"/>
      <point x="336" y="312" type="line"/>
      <point x="263" y="195"/>
      <point x="157" y="83"/>
      <point x="23" y="44" type="curve"/>
      <point x="-9" y="53"/>
      <point x="-47" y="62"/>
      <point x="-92" y="62" type="curve" smooth="yes"/>
      <point x="-144" y="62"/>
      <point x="-138" y="23"/>
      <point x="-83" y="23" type="curve" smooth="yes"/>
      <point x="-45" y="23"/>
      <point x="-10" y="26"/>
      <point x="22" y="33" type="curve"/>
      <point x="96" y="7"/>
      <point x="172" y="-39"/>
      <point x="239" y="-81" type="curve" smooth="yes"/>
      <point x="352" y="-152"/>
      <point x="501" y="-240"/>
      <point x="648" y="-240" type="curve" smooth="yes"/>
      <point x="834" y="-240"/>
      <point x="940" y="-119"/>
      <point x="916" y="-33" type="curve"/>
      <point x="912" y="-35" type="line"/>
      <point x="935" y="-119"/>
      <point x="806" y="-224"/>
      <point x="624" y="-224" type="curve" smooth="yes"/>
      <point x="475" y="-224"/>
      <point x="358" y="-149"/>
      <point x="242" y="-76" type="curve" smooth="yes"/>
      <point x="173" y="-32"/>
      <point x="117" y="11"/>
      <point x="42" y="38" type="curve"/>
      <point x="188" y="76"/>
      <point x="283" y="183"/>
      <point x="359" y="313" type="curve"/>
      <point x="650" y="339"/>
      <point x="910" y="716"/>
      <point x="910" y="872" type="curve" smooth="yes"/>
      <point x="910" y="918"/>
      <point x="885" y="970"/>
    </contour>
    <contour>
      <point x="835" y="966" type="curve" smooth="yes"/>
      <point x="879" y="966"/>
      <point x="899" y="928"/>
      <point x="899" y="885" type="curve" smooth="yes"/>
      <point x="899" y="732"/>
      <point x="649" y="348"/>
      <point x="363" y="319" type="curve"/>
      <point x="376" y="341"/>
      <point x="388" y="364"/>
      <point x="400" y="387" type="curve" smooth="yes"/>
      <point x="490" y="561"/>
      <point x="674" y="966"/>
    </contour>
    <contour>
      <point x="-83" y="29" type="curve" smooth="yes"/>
      <point x="-123" y="29"/>
      <point x="-118" y="54"/>
      <point x="-83" y="54" type="curve" smooth="yes"/>
      <point x="-55" y="54"/>
      <point x="-26" y="48"/>
      <point x="4" y="39" type="curve"/>
      <point x="-24" y="32"/>
      <point x="-53" y="29"/>
    </contour>
    <contour>
      <point x="1026" y="840" type="curve" smooth="yes"/>
      <point x="1011" y="840"/>
      <point x="997" y="827"/>
      <point x="997" y="813" type="curve" smooth="yes"/>
      <point x="997" y="805"/>
      <point x="1001" y="797"/>
      <point x="1012" y="797" type="curve" smooth="yes"/>
      <point x="1014" y="797"/>
      <point x="1018" y="797"/>
      <point x="1020" y="798" type="curve"/>
      <point x="1021" y="795"/>
      <point x="1023" y="791"/>
      <point x="1019" y="784" type="curve"/>
      <point x="1005" y="764"/>
      <point x="990" y="746"/>
      <point x="970" y="732" type="curve"/>
      <point x="972" y="728" type="line"/>
      <point x="1001" y="748"/>
      <point x="1042" y="789"/>
      <point x="1042" y="819" type="curve" smooth="yes"/>
      <point x="1042" y="832"/>
      <point x="1034" y="840"/>
    </contour>
  </outline>
</glyph>
<glyph name="Ncommaaccent" format="2">
  <advance width="997"/>
  <unicode hex="0145"/>
  <outline>
    <contour>
      <point x="416" y="-138" type="curve" smooth="yes"/>
      <point x="401" y="-138"/>
      <point x="387" y="-151"/>
      <point x="387" y="-165" type="curve" smooth="yes"/>
      <point x="387" y="-173"/>
      <point x="391" y="-181"/>
      <point x="402" y="-181" type="curve" smooth="yes"/>
      <point x="404" y="-181"/>
      <point x="408" y="-181"/>
      <point x="410" y="-180" type="curve"/>
      <point x="411" y="-183"/>
      <point x="413" y="-187"/>
      <point x="409" y="-194" type="curve"/>
      <point x="395" y="-214"/>
      <point x="380" y="-232"/>
      <point x="360" y="-246" type="curve"/>
      <point x="362" y="-250" type="line"/>
      <point x="391" y="-230"/>
      <point x="432" y="-189"/>
      <point x="432" y="-159" type="curve" smooth="yes"/>
      <point x="432" y="-146"/>
      <point x="424" y="-138"/>
    </contour>
    <contour>
      <point x="747" y="644" type="curve" smooth="yes"/>
      <point x="747" y="710"/>
      <point x="759" y="771"/>
      <point x="794" y="822" type="curve"/>
      <point x="809" y="833"/>
      <point x="824" y="842"/>
      <point x="840" y="847" type="curve"/>
      <point x="894" y="868"/>
      <point x="887" y="895"/>
      <point x="832" y="870" type="curve"/>
      <point x="807" y="855"/>
      <point x="788" y="835"/>
      <point x="773" y="810" type="curve"/>
      <point x="647" y="701"/>
      <point x="532" y="446"/>
      <point x="471" y="329" type="curve" smooth="yes"/>
      <point x="395" y="186"/>
      <point x="254" y="-64"/>
      <point x="52" y="-52" type="curve" smooth="yes"/>
      <point x="-7" y="-49"/>
      <point x="-109" y="9"/>
      <point x="-73" y="117" type="curve"/>
      <point x="-74" y="118" type="line"/>
      <point x="-115" y="-1"/>
      <point x="-16" y="-56"/>
      <point x="53" y="-59" type="curve" smooth="yes"/>
      <point x="295" y="-72"/>
      <point x="404" y="162"/>
      <point x="500" y="347" type="curve" smooth="yes"/>
      <point x="555" y="454"/>
      <point x="652" y="694"/>
      <point x="767" y="801" type="curve"/>
      <point x="740" y="752"/>
      <point x="730" y="689"/>
      <point x="730" y="625" type="curve" smooth="yes"/>
      <point x="730" y="554"/>
      <point x="739" y="478"/>
      <point x="747" y="407" type="curve" smooth="yes"/>
      <point x="756" y="321"/>
      <point x="766" y="242"/>
      <point x="770" y="183" type="curve"/>
      <point x="748" y="129"/>
      <point x="730" y="77"/>
      <point x="715" y="28" type="curve" smooth="yes"/>
      <point x="710" y="11"/>
      <point x="705" y="-6"/>
      <point x="705" y="-17" type="curve" smooth="yes"/>
      <point x="705" y="-35"/>
      <point x="709" y="-46"/>
      <point x="720" y="-46" type="curve" smooth="yes"/>
      <point x="744" y="-47"/>
      <point x="787" y="-5"/>
      <point x="787" y="124" type="curve" smooth="yes"/>
      <point x="787" y="146"/>
      <point x="785" y="170"/>
      <point x="783" y="195" type="curve"/>
      <point x="927" y="535"/>
      <point x="1179" y="913"/>
      <point x="1390" y="913" type="curve" smooth="yes"/>
      <point x="1430" y="913"/>
      <point x="1468" y="885"/>
      <point x="1476" y="841" type="curve"/>
      <point x="1478" y="847"/>
      <point x="1479" y="852"/>
      <point x="1479" y="857" type="curve" smooth="yes"/>
      <point x="1479" y="893"/>
      <point x="1416" y="921"/>
      <point x="1375" y="921" type="curve" smooth="yes"/>
      <point x="1165" y="921"/>
      <point x="920" y="548"/>
      <point x="781" y="212" type="curve"/>
      <point x="773" y="281"/>
      <point x="759" y="356"/>
      <point x="752" y="432" type="curve" smooth="yes"/>
      <point x="744" y="505"/>
      <point x="747" y="578"/>
    </contour>
    <contour>
      <point x="758" y="925" type="line"/>
      <point x="730" y="856"/>
      <point x="679" y="831"/>
      <point x="602" y="831" type="curve" smooth="yes"/>
      <point x="501" y="831"/>
      <point x="388" y="876"/>
      <point x="305" y="876" type="curve" smooth="yes"/>
      <point x="143" y="876"/>
      <point x="1" y="727"/>
      <point x="1" y="580" type="curve" smooth="yes"/>
      <point x="1" y="481"/>
      <point x="59" y="373"/>
      <point x="185" y="370" type="curve" smooth="yes"/>
      <point x="313" y="370"/>
      <point x="438" y="482"/>
      <point x="438" y="615" type="curve" smooth="yes"/>
      <point x="438" y="699"/>
      <point x="377" y="743"/>
      <point x="309" y="743" type="curve" smooth="yes"/>
      <point x="222" y="743"/>
      <point x="139" y="671"/>
      <point x="139" y="599" type="curve" smooth="yes"/>
      <point x="139" y="582"/>
      <point x="147" y="569"/>
      <point x="157" y="554" type="curve"/>
      <point x="161" y="556" type="line"/>
      <point x="153" y="569"/>
      <point x="149" y="582"/>
      <point x="149" y="596" type="curve" smooth="yes"/>
      <point x="149" y="668"/>
      <point x="222" y="738"/>
      <point x="308" y="738" type="curve" smooth="yes"/>
      <point x="369" y="738"/>
      <point x="424" y="700"/>
      <point x="424" y="616" type="curve" smooth="yes"/>
      <point x="424" y="485"/>
      <point x="311" y="379"/>
      <point x="194" y="374" type="curve" smooth="yes"/>
      <point x="64" y="374"/>
      <point x="12" y="474"/>
      <point x="12" y="568" type="curve" smooth="yes"/>
      <point x="12" y="696"/>
      <point x="141" y="869"/>
      <point x="313" y="869" type="curve" smooth="yes"/>
      <point x="391" y="869"/>
      <point x="495" y="826"/>
      <point x="590" y="826" type="curve" smooth="yes"/>
      <point x="673" y="826"/>
      <point x="731" y="849"/>
      <point x="765" y="919" type="curve"/>
    </contour>
    <contour>
      <point x="719" y="26" type="curve" smooth="yes"/>
      <point x="733" y="70"/>
      <point x="751" y="117"/>
      <point x="770" y="165" type="curve"/>
      <point x="771" y="157"/>
      <point x="771" y="150"/>
      <point x="771" y="143" type="curve" smooth="yes"/>
      <point x="771" y="44"/>
      <point x="739" y="-33"/>
      <point x="721" y="-33" type="curve" smooth="yes"/>
      <point x="715" y="-33"/>
      <point x="711" y="-27"/>
      <point x="711" y="-15" type="curve" smooth="yes"/>
      <point x="711" y="-6"/>
      <point x="714" y="8"/>
    </contour>
    <contour>
      <point x="832" y="866" type="curve"/>
      <point x="862" y="881"/>
      <point x="866" y="864"/>
      <point x="840" y="853" type="curve"/>
      <point x="826" y="848"/>
      <point x="813" y="840"/>
      <point x="800" y="831" type="curve"/>
      <point x="809" y="843"/>
      <point x="820" y="855"/>
    </contour>
  </outline>
</glyph>
<glyph name="oe" format="2">
  <advance width="620"/>
  <unicode hex="0153"/>
  <outline>
    <contour>
      <point x="620" y="282" type="line"/>
      <point x="555" y="145"/>
      <point x="445" y="-6"/>
      <point x="331" y="-6" type="curve" smooth="yes"/>
      <point x="274" y="-6"/>
      <point x="241" y="57"/>
      <point x="259" y="167" type="curve" smooth="yes"/>
      <point x="270" y="230"/>
      <point x="294" y="292"/>
      <point x="324" y="348" type="curve"/>
      <point x="326" y="325"/>
      <point x="352" y="292"/>
      <point x="399" y="292" type="curve" smooth="yes"/>
      <point x="481" y="292"/>
      <point x="586" y="403"/>
      <point x="595" y="491" type="curve" smooth="yes"/>
      <point x="600" y="525"/>
      <point x="581" y="563"/>
      <point x="542" y="563" type="curve" smooth="yes"/>
      <point x="480" y="563"/>
      <point x="381" y="480"/>
      <point x="313" y="362" type="curve"/>
      <point x="318" y="386"/>
      <point x="320" y="410"/>
      <point x="322" y="435" type="curve" smooth="yes"/>
      <point x="326" y="510"/>
      <point x="302" y="563"/>
      <point x="254" y="563" type="curve" smooth="yes"/>
      <point x="175" y="563"/>
      <point x="66" y="439"/>
      <point x="0" y="282" type="curve" smooth="yes"/>
      <point x="-23" y="224"/>
      <point x="-34" y="173"/>
      <point x="-37" y="116" type="curve" smooth="yes"/>
      <point x="-41" y="41"/>
      <point x="-16" y="-10"/>
      <point x="31" y="-12" type="curve" smooth="yes"/>
      <point x="96" y="-12"/>
      <point x="182" y="73"/>
      <point x="247" y="191" type="curve"/>
      <point x="245" y="175" type="line" smooth="yes"/>
      <point x="225" y="60"/>
      <point x="263" y="-12"/>
      <point x="331" y="-12" type="curve" smooth="yes"/>
      <point x="446" y="-12"/>
      <point x="556" y="140"/>
      <point x="623" y="280" type="curve"/>
    </contour>
    <contour>
      <point x="256" y="558" type="curve" smooth="yes"/>
      <point x="296" y="558"/>
      <point x="312" y="510"/>
      <point x="308" y="444" type="curve" smooth="yes"/>
      <point x="305" y="388"/>
      <point x="293" y="334"/>
      <point x="269" y="276" type="curve" smooth="yes"/>
      <point x="208" y="121"/>
      <point x="101" y="-7"/>
      <point x="31" y="-7" type="curve"/>
      <point x="-8" y="-4"/>
      <point x="-27" y="41"/>
      <point x="-23" y="107" type="curve" smooth="yes"/>
      <point x="-20" y="163"/>
      <point x="-8" y="217"/>
      <point x="16" y="275" type="curve" smooth="yes"/>
      <point x="77" y="430"/>
      <point x="186" y="558"/>
    </contour>
    <contour>
      <point x="585" y="498" type="curve" smooth="yes"/>
      <point x="574" y="404"/>
      <point x="472" y="297"/>
      <point x="394" y="297" type="curve" smooth="yes"/>
      <point x="353" y="297"/>
      <point x="328" y="330"/>
      <point x="328" y="351" type="curve"/>
      <point x="325" y="351" type="line"/>
      <point x="389" y="469"/>
      <point x="482" y="558"/>
      <point x="541" y="558" type="curve" smooth="yes"/>
      <point x="575" y="558"/>
      <point x="588" y="530"/>
    </contour>
  </outline>
</glyph>
<glyph name="rcaron" format="2">
  <advance width="340"/>
  <unicode hex="0159"/>
  <outline>
    <contour>
      <point x="3" y="280" type="line"/>
      <point x="78" y="428"/>
      <point x="146" y="554"/>
      <point x="182" y="649" type="curve"/>
      <point x="215" y="603"/>
      <point x="255" y="562"/>
      <point x="252" y="496" type="curve" smooth="yes"/>
      <point x="249" y="429"/>
      <point x="200" y="370"/>
      <point x="161" y="306" type="curve" smooth="yes"/>
      <point x="116" y="235"/>
      <point x="81" y="167"/>
      <point x="72" y="92" type="curve" smooth="yes"/>
      <point x="67" y="43"/>
      <point x="89" y="0"/>
      <point x="118" y="0" type="curve" smooth="yes"/>
      <point x="187" y="0"/>
      <point x="282" y="146"/>
      <point x="343" y="280" type="curve"/>
      <point x="340" y="282" type="line"/>
      <point x="281" y="154"/>
      <point x="186" y="5"/>
      <point x="119" y="5" type="curve" smooth="yes"/>
      <point x="93" y="5"/>
      <point x="74" y="39"/>
      <point x="80" y="86" type="curve" smooth="yes"/>
      <point x="89" y="164"/>
      <point x="133" y="227"/>
      <point x="179" y="299" type="curve" smooth="yes"/>
      <point x="218" y="358"/>
      <point x="256" y="437"/>
      <point x="259" y="496" type="curve" smooth="yes"/>
      <point x="262" y="568"/>
      <point x="217" y="607"/>
      <point x="183" y="653" type="curve"/>
      <point x="198" y="692"/>
      <point x="206" y="726"/>
      <point x="208" y="754" type="curve" smooth="yes"/>
      <point x="211" y="806"/>
      <point x="194" y="831"/>
      <point x="178" y="831" type="curve" smooth="yes"/>
      <point x="163" y="831"/>
      <point x="142" y="816"/>
      <point x="140" y="768" type="curve" smooth="yes"/>
      <point x="137" y="721"/>
      <point x="156" y="686"/>
      <point x="179" y="653" type="curve"/>
      <point x="144" y="559"/>
      <point x="75" y="432"/>
      <point x="0" y="282" type="curve"/>
    </contour>
    <contour>
      <point x="148" y="757" type="curve" smooth="yes"/>
      <point x="151" y="803"/>
      <point x="168" y="825"/>
      <point x="181" y="825" type="curve" smooth="yes"/>
      <point x="195" y="825"/>
      <point x="207" y="804"/>
      <point x="204" y="754" type="curve" smooth="yes"/>
      <point x="202" y="727"/>
      <point x="194" y="695"/>
      <point x="180" y="657" type="curve"/>
      <point x="161" y="685"/>
      <point x="146" y="715"/>
    </contour>
    <contour>
      <point x="434" y="814" type="line"/>
      <point x="434" y="814"/>
      <point x="296" y="715"/>
      <point x="281" y="704" type="curve"/>
      <point x="281" y="704"/>
      <point x="233" y="810"/>
      <point x="233" y="810" type="curve"/>
      <point x="230" y="808" type="line"/>
      <point x="230" y="808"/>
      <point x="272" y="676"/>
      <point x="272" y="676" type="curve"/>
      <point x="272" y="676"/>
      <point x="436" y="811"/>
      <point x="436" y="811" type="curve"/>
    </contour>
  </outline>
</glyph>
<glyph name="sacute" format="2">
  <advance width="296"/>
  <unicode hex="015B"/>
  <outline>
    <contour>
      <point x="3" y="280" type="line"/>
      <point x="71" y="414"/>
      <point x="128" y="529"/>
      <point x="162" y="620" type="curve"/>
      <point x="193" y="536"/>
      <point x="233" y="436"/>
      <point x="207" y="305" type="curve" smooth="yes"/>
      <point x="169" y="112"/>
      <point x="37" y="-8"/>
      <point x="-61" y="-8" type="curve" smooth="yes"/>
      <point x="-105" y="-8"/>
      <point x="-128" y="30"/>
      <point x="-125" y="78" type="curve" smooth="yes"/>
      <point x="-122" y="148"/>
      <point x="-58" y="274"/>
      <point x="29" y="266" type="curve" smooth="yes"/>
      <point x="53" y="264"/>
      <point x="70" y="239"/>
      <point x="68" y="207" type="curve" smooth="yes"/>
      <point x="67" y="188"/>
      <point x="61" y="166"/>
      <point x="48" y="146" type="curve"/>
      <point x="53" y="144" type="line"/>
      <point x="71" y="167"/>
      <point x="82" y="191"/>
      <point x="83" y="212" type="curve" smooth="yes"/>
      <point x="84" y="245"/>
      <point x="61" y="268"/>
      <point x="30" y="270" type="curve" smooth="yes"/>
      <point x="-68" y="279"/>
      <point x="-137" y="146"/>
      <point x="-140" y="84" type="curve" smooth="yes"/>
      <point x="-143" y="33"/>
      <point x="-112" y="-12"/>
      <point x="-61" y="-12" type="curve" smooth="yes"/>
      <point x="47" y="-12"/>
      <point x="187" y="105"/>
      <point x="225" y="305" type="curve" smooth="yes"/>
      <point x="250" y="438"/>
      <point x="200" y="542"/>
      <point x="166" y="631" type="curve"/>
      <point x="183" y="679"/>
      <point x="194" y="721"/>
      <point x="196" y="754" type="curve" smooth="yes"/>
      <point x="199" y="806"/>
      <point x="182" y="831"/>
      <point x="166" y="831" type="curve" smooth="yes"/>
      <point x="151" y="831"/>
      <point x="130" y="816"/>
      <point x="128" y="768" type="curve" smooth="yes"/>
      <point x="125" y="724"/>
      <point x="141" y="678"/>
      <point x="160" y="626" type="curve"/>
      <point x="126" y="535"/>
      <point x="69" y="419"/>
      <point x="0" y="282" type="curve"/>
    </contour>
    <contour>
      <point x="136" y="757" type="curve" smooth="yes"/>
      <point x="139" y="803"/>
      <point x="156" y="825"/>
      <point x="169" y="825" type="curve" smooth="yes"/>
      <point x="183" y="825"/>
      <point x="195" y="804"/>
      <point x="192" y="754" type="curve" smooth="yes"/>
      <point x="190" y="722"/>
      <point x="180" y="682"/>
      <point x="164" y="636" type="curve"/>
      <point x="147" y="680"/>
      <point x="134" y="719"/>
    </contour>
    <contour>
      <point x="235" y="694" type="line"/>
      <point x="368" y="759" type="line" smooth="yes"/>
      <point x="377" y="763"/>
      <point x="384" y="768"/>
      <point x="384" y="777" type="curve" smooth="yes"/>
      <point x="384" y="784"/>
      <point x="380" y="788"/>
      <point x="372" y="788" type="curve" smooth="yes"/>
      <point x="364" y="788"/>
      <point x="356" y="784"/>
      <point x="352" y="781" type="curve" smooth="yes"/>
      <point x="233" y="696" type="line"/>
    </contour>
  </outline>
</glyph>
<glyph name="tcaron" format="2">
  <advance width="399"/>
  <unicode hex="0165"/>
  <outline>
    <contour>
      <point x="7" y="621" type="line"/>
      <point x="154" y="621" type="line"/>
      <point x="-56" y="161" type="line" smooth="yes"/>
      <point x="-97" y="72"/>
      <point x="-78" y="0"/>
      <point x="-36" y="0" type="curve" smooth="yes"/>
      <point x="33" y="0"/>
      <point x="128" y="146"/>
      <point x="189" y="280" type="curve"/>
      <point x="186" y="282" type="line"/>
      <point x="127" y="154"/>
      <point x="31" y="4"/>
      <point x="-35" y="4" type="curve" smooth="yes"/>
      <point x="-74" y="4"/>
      <point x="-84" y="72"/>
      <point x="-47" y="152" type="curve" smooth="yes"/>
      <point x="173" y="621" type="line"/>
      <point x="335" y="621" type="line"/>
      <point x="335" y="625" type="line"/>
      <point x="175" y="625" type="line"/>
      <point x="255" y="794" type="line"/>
      <point x="234" y="794" type="line"/>
      <point x="156" y="625" type="line"/>
      <point x="7" y="625" type="line"/>
    </contour>
    <contour>
      <point x="432" y="774" type="curve" smooth="yes"/>
      <point x="417" y="774"/>
      <point x="403" y="761"/>
      <point x="403" y="747" type="curve" smooth="yes"/>
      <point x="403" y="739"/>
      <point x="407" y="731"/>
      <point x="418" y="731" type="curve" smooth="yes"/>
      <point x="420" y="731"/>
      <point x="424" y="731"/>
      <point x="426" y="732" type="curve"/>
      <point x="427" y="729"/>
      <point x="429" y="725"/>
      <point x="425" y="718" type="curve"/>
      <point x="411" y="698"/>
      <point x="396" y="680"/>
      <point x="376" y="666" type="curve"/>
      <point x="378" y="662" type="line"/>
      <point x="407" y="682"/>
      <point x="448" y="723"/>
      <point x="448" y="753" type="curve" smooth="yes"/>
      <point x="448" y="766"/>
      <point x="440" y="774"/>
    </contour>
  </outline>
</glyph>
<glyph name="Uring" format="2">
  <advance width="899"/>
  <unicode hex="016E"/>
  <outline>
    <contour>
      <point x="301" y="113" type="curve" smooth="yes"/>
      <point x="301" y="50"/>
      <point x="324" y="-8"/>
      <point x="397" y="-8" type="curve" smooth="yes"/>
      <point x="514" y="-8"/>
      <point x="664" y="182"/>
      <point x="749" y="317" type="curve"/>
      <point x="730" y="275"/>
      <point x="712" y="232"/>
      <point x="696" y="190" type="curve" smooth="yes"/>
      <point x="666" y="112"/>
      <point x="639" y="21"/>
      <point x="639" y="-55" type="curve" smooth="yes"/>
      <point x="639" y="-139"/>
      <point x="675" y="-212"/>
      <point x="758" y="-212" type="curve" smooth="yes"/>
      <point x="842" y="-212"/>
      <point x="865" y="-152"/>
      <point x="865" y="-124" type="curve" smooth="yes"/>
      <point x="865" y="-113"/>
      <point x="859" y="-87"/>
      <point x="837" y="-79" type="curve"/>
      <point x="836" y="-81" type="line"/>
      <point x="854" y="-90"/>
      <point x="858" y="-107"/>
      <point x="858" y="-117" type="curve" smooth="yes"/>
      <point x="858" y="-143"/>
      <point x="838" y="-208"/>
      <point x="758" y="-208" type="curve" smooth="yes"/>
      <point x="688" y="-208"/>
      <point x="654" y="-140"/>
      <point x="654" y="-61" type="curve" smooth="yes"/>
      <point x="654" y="11"/>
      <point x="679" y="99"/>
      <point x="710" y="177" type="curve" smooth="yes"/>
      <point x="855" y="542"/>
      <point x="1075" y="949"/>
      <point x="1304" y="949" type="curve" smooth="yes"/>
      <point x="1344" y="949"/>
      <point x="1382" y="921"/>
      <point x="1390" y="877" type="curve"/>
      <point x="1392" y="883"/>
      <point x="1393" y="888"/>
      <point x="1393" y="893" type="curve" smooth="yes"/>
      <point x="1393" y="929"/>
      <point x="1347" y="953"/>
      <point x="1306" y="953" type="curve" smooth="yes"/>
      <point x="1114" y="953"/>
      <point x="911" y="666"/>
      <point x="769" y="362" type="curve"/>
      <point x="691" y="228"/>
      <point x="526" y="-2"/>
      <point x="403" y="-2" type="curve" smooth="yes"/>
      <point x="337" y="-2"/>
      <point x="313" y="44"/>
      <point x="313" y="97" type="curve" smooth="yes"/>
      <point x="313" y="195"/>
      <point x="383" y="335"/>
      <point x="478" y="505" type="curve" smooth="yes"/>
      <point x="548" y="630"/>
      <point x="651" y="739"/>
      <point x="707" y="783" type="curve" smooth="yes"/>
      <point x="740" y="809"/>
      <point x="788" y="825"/>
      <point x="788" y="858" type="curve" smooth="yes"/>
      <point x="788" y="934"/>
      <point x="608" y="976"/>
      <point x="470" y="976" type="curve" smooth="yes"/>
      <point x="469" y="976" type="line" smooth="yes"/>
      <point x="235" y="976"/>
      <point x="-32" y="835"/>
      <point x="-32" y="595" type="curve" smooth="yes"/>
      <point x="-32" y="497"/>
      <point x="26" y="390"/>
      <point x="152" y="387" type="curve" smooth="yes"/>
      <point x="280" y="387"/>
      <point x="405" y="499"/>
      <point x="405" y="632" type="curve" smooth="yes"/>
      <point x="405" y="716"/>
      <point x="344" y="760"/>
      <point x="276" y="760" type="curve" smooth="yes"/>
      <point x="189" y="760"/>
      <point x="106" y="688"/>
      <point x="106" y="616" type="curve" smooth="yes"/>
      <point x="106" y="599"/>
      <point x="114" y="586"/>
      <point x="124" y="571" type="curve"/>
      <point x="128" y="573" type="line"/>
      <point x="120" y="586"/>
      <point x="116" y="599"/>
      <point x="116" y="613" type="curve" smooth="yes"/>
      <point x="116" y="685"/>
      <point x="189" y="755"/>
      <point x="275" y="755" type="curve" smooth="yes"/>
      <point x="336" y="755"/>
      <point x="391" y="717"/>
      <point x="391" y="633" type="curve" smooth="yes"/>
      <point x="391" y="502"/>
      <point x="278" y="396"/>
      <point x="161" y="391" type="curve" smooth="yes"/>
      <point x="31" y="391"/>
      <point x="-21" y="490"/>
      <point x="-21" y="583" type="curve" smooth="yes"/>
      <point x="-21" y="774"/>
      <point x="181" y="968"/>
      <point x="470" y="971" type="curve" smooth="yes"/>
      <point x="615" y="971"/>
      <point x="777" y="926"/>
      <point x="777" y="858" type="curve" smooth="yes"/>
      <point x="777" y="828"/>
      <point x="735" y="811"/>
      <point x="706" y="788" type="curve" smooth="yes"/>
      <point x="643" y="738"/>
      <point x="539" y="630"/>
      <point x="461" y="505" type="curve" smooth="yes"/>
      <point x="388" y="388"/>
      <point x="301" y="238"/>
    </contour>
    <contour>
      <point x="1026" y="1151" type="curve" smooth="yes"/>
      <point x="1026" y="1130"/>
      <point x="1047" y="1115"/>
      <point x="1078" y="1115" type="curve" smooth="yes"/>
      <point x="1118" y="1115"/>
      <point x="1160" y="1144"/>
      <point x="1160" y="1181" type="curve" smooth="yes"/>
      <point x="1160" y="1202"/>
      <point x="1141" y="1218"/>
      <point x="1109" y="1218" type="curve" smooth="yes"/>
      <point x="1070" y="1218"/>
      <point x="1026" y="1188"/>
    </contour>
    <contour>
      <point x="1109" y="1214" type="curve" smooth="yes"/>
      <point x="1130" y="1214"/>
      <point x="1143" y="1200"/>
      <point x="1143" y="1181" type="curve" smooth="yes"/>
      <point x="1143" y="1148"/>
      <point x="1108" y="1119"/>
      <point x="1078" y="1119" type="curve" smooth="yes"/>
      <point x="1057" y="1119"/>
      <point x="1043" y="1132"/>
      <point x="1043" y="1150" type="curve" smooth="yes"/>
      <point x="1043" y="1184"/>
      <point x="1079" y="1214"/>
    </contour>
  </outline>
</glyph>
<glyph name="uhungarumlaut" format="2">
  <advance width="374"/>
  <unicode hex="0171"/>
  <outline>
    <contour>
      <point x="310" y="550" type="line"/>
      <point x="187" y="282" type="line"/>
      <point x="177" y="261" type="line" smooth="yes"/>
      <point x="117" y="138"/>
      <point x="28" y="4"/>
      <point x="-34" y="4" type="curve" smooth="yes"/>
      <point x="-73" y="4"/>
      <point x="-83" y="72"/>
      <point x="-46" y="152" type="curve" smooth="yes"/>
      <point x="144" y="550" type="line"/>
      <point x="123" y="550" type="line"/>
      <point x="0" y="282" type="line"/>
      <point x="-55" y="161" type="line" smooth="yes"/>
      <point x="-95" y="72"/>
      <point x="-77" y="0"/>
      <point x="-35" y="0" type="curve" smooth="yes"/>
      <point x="18" y="0"/>
      <point x="86" y="85"/>
      <point x="142" y="186" type="curve"/>
      <point x="131" y="161" type="line" smooth="yes"/>
      <point x="91" y="72"/>
      <point x="110" y="0"/>
      <point x="152" y="0" type="curve" smooth="yes"/>
      <point x="221" y="0"/>
      <point x="316" y="146"/>
      <point x="377" y="280" type="curve"/>
      <point x="374" y="282" type="line"/>
      <point x="315" y="154"/>
      <point x="219" y="4"/>
      <point x="152" y="4" type="curve" smooth="yes"/>
      <point x="113" y="4"/>
      <point x="103" y="72"/>
      <point x="140" y="152" type="curve" smooth="yes"/>
      <point x="331" y="550" type="line"/>
    </contour>
    <contour>
      <point x="201" y="694" type="line"/>
      <point x="334" y="759" type="line" smooth="yes"/>
      <point x="343" y="763"/>
      <point x="350" y="768"/>
      <point x="350" y="777" type="curve" smooth="yes"/>
      <point x="350" y="784"/>
      <point x="346" y="788"/>
      <point x="338" y="788" type="curve" smooth="yes"/>
      <point x="330" y="788"/>
      <point x="322" y="784"/>
      <point x="318" y="781" type="curve" smooth="yes"/>
      <point x="199" y="696" type="line"/>
    </contour>
    <contour>
      <point x="310" y="694" type="line"/>
      <point x="443" y="759" type="line" smooth="yes"/>
      <point x="452" y="763"/>
      <point x="459" y="768"/>
      <point x="459" y="777" type="curve" smooth="yes"/>
      <point x="459" y="784"/>
      <point x="455" y="788"/>
      <point x="447" y="788" type="curve" smooth="yes"/>
      <point x="439" y="788"/>
      <point x="431" y="784"/>
      <point x="427" y="781" type="curve" smooth="yes"/>
      <point x="308" y="696" type="line"/>
    </contour>
  </outline>
</glyph>
<glyph name="caron" format="2">
  <advance width="392"/>
  <unicode hex="02C7"/>
  <outline>
    <contour>
      <point x="416" y="814" type="line"/>
      <point x="416" y="814"/>
      <point x="278" y="715"/>
      <point x="263" y="704" type="curve"/>
      <point x="263" y="704"/>
      <point x="215" y="810"/>
      <point x="215" y="810" type="curve"/>
      <point x="212" y="808" type="line"/>
      <point x="212" y="808"/>
      <point x="254" y="676"/>
      <point x="254" y="676" type="curve"/>
      <point x="254" y="676"/>
      <point x="418" y="811"/>
      <point x="418" y="811" type="curve"/>
    </contour>
  </outline>
</glyph>
<glyph name="tildecomb" format="2">
  <advance width="561"/>
  <unicode hex="0303"/>
  <outline>
    <contour>
      <point x="286" y="687" type="line"/>
      <point x="306" y="719"/>
      <point x="333" y="731"/>
      <point x="359" y="731" type="curve" smooth="yes"/>
      <point x="407" y="731"/>
      <point x="447" y="693"/>
      <point x="492" y="693" type="curve" smooth="yes"/>
      <point x="518" y="693"/>
      <point x="539" y="710"/>
      <point x="548" y="733" type="curve"/>
      <point x="546" y="733" type="line"/>
      <point x="537" y="713"/>
      <point x="517" y="706"/>
      <point x="498" y="706" type="curve" smooth="yes"/>
      <point x="473" y="706"/>
      <point x="404" y="743"/>
      <point x="373" y="743" type="curve" smooth="yes"/>
      <point x="340" y="743"/>
      <point x="304" y="726"/>
      <point x="283" y="688" type="curve"/>
    </contour>
  </outline>
</glyph>
<glyph name="endash" format="2">
  <advance width="504"/>
  <unicode hex="2013"/>
  <outline>
    <contour>
      <point x="81" y="316" type="line"/>
      <point x="81" y="316"/>
      <point x="409" y="316"/>
      <point x="409" y="316" type="curve"/>
      <point x="409" y="321" type="line"/>
      <point x="409" y="321"/>
      <point x="81" y="321"/>
      <point x="81" y="321" type="curve"/>
    </contour>
  </outline>
</glyph>
<glyph name="ellipsis" format="2">
  <advance width="445"/>
  <unicode hex="2026"/>
  <outline>
    <contour>
      <point x="10" y="15" type="curve"/>
      <point x="8" y="6"/>
      <point x="12" y="-3"/>
      <point x="23" y="-3" type="curve" smooth="yes"/>
      <point x="33" y="-3"/>
      <point x="44" y="4"/>
      <point x="47" y="15" type="curve"/>
      <point x="51" y="26"/>
      <point x="45" y="34"/>
      <point x="35" y="34" type="curve" smooth="yes"/>
      <point x="24" y="34"/>
      <point x="14" y="26"/>
    </contour>
    <contour>
      <point x="128" y="15" type="curve"/>
      <point x="126" y="6"/>
      <point x="130" y="-3"/>
      <point x="141" y="-3" type="curve" smooth="yes"/>
      <point x="151" y="-3"/>
      <point x="162" y="4"/>
      <point x="165" y="15" type="curve"/>
      <point x="169" y="26"/>
      <point x="163" y="34"/>
      <point x="153" y="34" type="curve" smooth="yes"/>
      <point x="142" y="34"/>
      <point x="132" y="26"/>
    </contour>
    <contour>
      <point x="246" y="15" type="curve"/>
      <point x="244" y="6"/>
      <point x="248" y="-3"/>
      <point x="259" y="-3" type="curve" smooth="yes"/>
      <point x="269" y="-3"/>
      <point x="280" y="4"/>
      <point x="283" y="15" type="curve"/>
      <point x="287" y="26"/>
      <point x="281" y="34"/>
      <point x="271" y="34" type="curve" smooth="yes"/>
      <point x="260" y="34"/>
      <point x="250" y="26"/>
    </contour>
  </outline>
</glyph>
<glyph name="C.big" format="2">
  <advance width="882"/>
  <outline>
    <contour>
      <point x="1188" y="949" type="curve" smooth="yes"/>
      <point x="1188" y="831"/>
      <point x="1077" y="669"/>
      <point x="897" y="669" type="curve" smooth="yes"/>
      <point x="763" y="669"/>
      <point x="705" y="760"/>
      <point x="705" y="837" type="curve" smooth="yes"/>
      <point x="705" y="918"/>
      <point x="769" y="1019"/>
      <point x="883" y="1019" type="curve" smooth="yes"/>
      <point x="971" y="1019"/>
      <point x="1017" y="958"/>
      <point x="1017" y="912" type="curve" smooth="yes"/>
      <point x="1017" y="887"/>
      <point x="1004" y="844"/>
      <point x="967" y="827" type="curve"/>
      <point x="969" y="823" type="line"/>
      <point x="1008" y="841"/>
      <point x="1021" y="886"/>
      <point x="1021" y="912" type="curve" smooth="yes"/>
      <point x="1021" y="960"/>
      <point x="974" y="1023"/>
      <point x="881" y="1023" type="curve" smooth="yes"/>
      <point x="764" y="1023"/>
      <point x="693" y="924"/>
      <point x="693" y="842" type="curve" smooth="yes"/>
      <point x="693" y="770"/>
      <point x="748" y="665"/>
      <point x="899" y="665" type="curve" smooth="yes"/>
      <point x="1081" y="665"/>
      <point x="1202" y="819"/>
      <point x="1202" y="937" type="curve" smooth="yes"/>
      <point x="1202" y="1043"/>
      <point x="1120" y="1196"/>
      <point x="869" y="1196" type="curve" smooth="yes"/>
      <point x="391" y="1196"/>
      <point x="-42" y="640"/>
      <point x="-42" y="260" type="curve" smooth="yes"/>
      <point x="-42" y="70"/>
      <point x="63" y="-134"/>
      <point x="315" y="-134" type="curve" smooth="yes"/>
      <point x="602" y="-134"/>
      <point x="832" y="130"/>
      <point x="832" y="341" type="curve" smooth="yes"/>
      <point x="832" y="461"/>
      <point x="757" y="593"/>
      <point x="580" y="593" type="curve" smooth="yes"/>
      <point x="399" y="593"/>
      <point x="215" y="455"/>
      <point x="215" y="268" type="curve" smooth="yes"/>
      <point x="215" y="145"/>
      <point x="295" y="78"/>
      <point x="387" y="78" type="curve" smooth="yes"/>
      <point x="495" y="78"/>
      <point x="604" y="169"/>
      <point x="604" y="260" type="curve" smooth="yes"/>
      <point x="604" y="286"/>
      <point x="595" y="304"/>
      <point x="580" y="321" type="curve"/>
      <point x="577" y="320" type="line"/>
      <point x="588" y="303"/>
      <point x="595" y="285"/>
      <point x="595" y="262" type="curve" smooth="yes"/>
      <point x="595" y="176"/>
      <point x="495" y="83"/>
      <point x="391" y="83" type="curve" smooth="yes"/>
      <point x="317" y="83"/>
      <point x="231" y="131"/>
      <point x="231" y="264" type="curve" smooth="yes"/>
      <point x="231" y="446"/>
      <point x="391" y="588"/>
      <point x="577" y="588" type="curve" smooth="yes"/>
      <point x="750" y="588"/>
      <point x="819" y="465"/>
      <point x="819" y="349" type="curve" smooth="yes"/>
      <point x="819" y="134"/>
      <point x="581" y="-128"/>
      <point x="313" y="-128" type="curve" smooth="yes"/>
      <point x="97" y="-128"/>
      <point x="-26" y="41"/>
      <point x="-26" y="245" type="curve" smooth="yes"/>
      <point x="-26" y="614"/>
      <point x="393" y="1191"/>
      <point x="867" y="1191" type="curve" smooth="yes"/>
      <point x="1074" y="1191"/>
      <point x="1188" y="1080"/>
    </contour>
  </outline>
</glyph>
<glyph name="L.7" format="2">
  <advance width="642"/>
  <outline>
    <contour>
      <point x="-167" y="113" type="curve" smooth="yes"/>
      <point x="-203" y="113"/>
      <point x="-221" y="97"/>
      <point x="-221" y="84" type="curve" smooth="yes"/>
      <point x="-221" y="53"/>
      <point x="-169" y="30"/>
      <point x="-87" y="30" type="curve" smooth="yes"/>
      <point x="-38" y="30"/>
      <point x="6" y="35"/>
      <point x="46" y="46" type="curve"/>
      <point x="130" y="10"/>
      <point x="228" y="-41"/>
      <point x="335" y="-98" type="curve" smooth="yes"/>
      <point x="651" y="-265"/>
      <point x="1067" y="-483"/>
      <point x="1409" y="-483" type="curve" smooth="yes"/>
      <point x="1833" y="-483"/>
      <point x="1969" y="-309"/>
      <point x="1969" y="-178" type="curve" smooth="yes"/>
      <point x="1969" y="-111"/>
      <point x="1916" y="-58"/>
      <point x="1853" y="-58" type="curve" smooth="yes"/>
      <point x="1838" y="-58"/>
      <point x="1830" y="-60"/>
      <point x="1816" y="-64" type="curve"/>
      <point x="1817" y="-68" type="line"/>
      <point x="1831" y="-65"/>
      <point x="1838" y="-63"/>
      <point x="1853" y="-63" type="curve" smooth="yes"/>
      <point x="1912" y="-63"/>
      <point x="1962" y="-111"/>
      <point x="1962" y="-174" type="curve" smooth="yes"/>
      <point x="1962" y="-303"/>
      <point x="1806" y="-467"/>
      <point x="1384" y="-467" type="curve" smooth="yes"/>
      <point x="1048" y="-467"/>
      <point x="651" y="-259"/>
      <point x="337" y="-93" type="curve" smooth="yes"/>
      <point x="236" y="-40"/>
      <point x="140" y="11"/>
      <point x="55" y="49" type="curve"/>
      <point x="193" y="89"/>
      <point x="284" y="189"/>
      <point x="359" y="313" type="curve"/>
      <point x="649" y="339"/>
      <point x="910" y="716"/>
      <point x="910" y="872" type="curve" smooth="yes"/>
      <point x="910" y="918"/>
      <point x="885" y="970"/>
      <point x="836" y="970" type="curve" smooth="yes"/>
      <point x="660" y="970"/>
      <point x="467" y="554"/>
      <point x="374" y="380" type="curve" smooth="yes"/>
      <point x="363" y="359"/>
      <point x="352" y="338"/>
      <point x="339" y="317" type="curve"/>
      <point x="329" y="317" type="line" smooth="yes"/>
      <point x="182" y="317"/>
      <point x="54" y="414"/>
      <point x="54" y="567" type="curve" smooth="yes"/>
      <point x="54" y="711"/>
      <point x="168" y="817"/>
      <point x="287" y="817" type="curve" smooth="yes"/>
      <point x="373" y="817"/>
      <point x="428" y="760"/>
      <point x="428" y="693" type="curve" smooth="yes"/>
      <point x="428" y="627"/>
      <point x="376" y="543"/>
      <point x="292" y="543" type="curve" smooth="yes"/>
      <point x="280" y="543"/>
      <point x="237" y="545"/>
      <point x="221" y="586" type="curve"/>
      <point x="216" y="584" type="line"/>
      <point x="235" y="545"/>
      <point x="271" y="539"/>
      <point x="295" y="539" type="curve" smooth="yes"/>
      <point x="385" y="539"/>
      <point x="438" y="624"/>
      <point x="438" y="692" type="curve" smooth="yes"/>
      <point x="438" y="766"/>
      <point x="376" y="821"/>
      <point x="286" y="821" type="curve" smooth="yes"/>
      <point x="162" y="821"/>
      <point x="37" y="718"/>
      <point x="37" y="570" type="curve" smooth="yes"/>
      <point x="37" y="414"/>
      <point x="174" y="312"/>
      <point x="328" y="312" type="curve" smooth="yes"/>
      <point x="335" y="312" type="line"/>
      <point x="265" y="201"/>
      <point x="164" y="99"/>
      <point x="38" y="56" type="curve"/>
      <point x="-41" y="91"/>
      <point x="-112" y="113"/>
    </contour>
    <contour>
      <point x="835" y="966" type="curve" smooth="yes"/>
      <point x="879" y="966"/>
      <point x="899" y="928"/>
      <point x="899" y="885" type="curve" smooth="yes"/>
      <point x="899" y="732"/>
      <point x="649" y="347"/>
      <point x="362" y="319" type="curve"/>
      <point x="375" y="341"/>
      <point x="388" y="363"/>
      <point x="400" y="387" type="curve" smooth="yes"/>
      <point x="490" y="561"/>
      <point x="674" y="966"/>
    </contour>
    <contour>
      <point x="-158" y="105" type="curve" smooth="yes"/>
      <point x="-110" y="105"/>
      <point x="-46" y="86"/>
      <point x="29" y="54" type="curve"/>
      <point x="-7" y="42"/>
      <point x="-46" y="36"/>
      <point x="-87" y="36" type="curve" smooth="yes"/>
      <point x="-158" y="36"/>
      <point x="-199" y="50"/>
      <point x="-199" y="78" type="curve" smooth="yes"/>
      <point x="-199" y="92"/>
      <point x="-183" y="105"/>
    </contour>
  </outline>
</glyph>
<glyph name="L.big" format="2">
  <advance width="642"/>
  <outline>
    <contour>
      <point x="349" y="362" type="curve" smooth="yes"/>
      <point x="356" y="362" type="line" smooth="yes"/>
      <point x="373" y="362"/>
      <point x="390" y="362"/>
      <point x="406" y="364" type="curve"/>
      <point x="354" y="273"/>
      <point x="283" y="181"/>
      <point x="194" y="112" type="curve"/>
      <point x="62" y="262"/>
      <point x="-122" y="409"/>
      <point x="-315" y="409" type="curve" smooth="yes"/>
      <point x="-463" y="409"/>
      <point x="-553" y="324"/>
      <point x="-553" y="231" type="curve" smooth="yes"/>
      <point x="-553" y="115"/>
      <point x="-441" y="-13"/>
      <point x="-141" y="-13" type="curve" smooth="yes"/>
      <point x="-4" y="-13"/>
      <point x="107" y="28"/>
      <point x="198" y="94" type="curve"/>
      <point x="231" y="57"/>
      <point x="262" y="18"/>
      <point x="294" y="-24" type="curve" smooth="yes"/>
      <point x="548" y="-364"/>
      <point x="776" y="-719"/>
      <point x="1276" y="-719" type="curve" smooth="yes"/>
      <point x="1623" y="-719"/>
      <point x="1820" y="-509"/>
      <point x="1820" y="-373" type="curve" smooth="yes"/>
      <point x="1820" y="-322"/>
      <point x="1782" y="-262"/>
      <point x="1721" y="-262" type="curve" smooth="yes"/>
      <point x="1709" y="-262"/>
      <point x="1696" y="-264"/>
      <point x="1683" y="-270" type="curve"/>
      <point x="1685" y="-274" type="line"/>
      <point x="1698" y="-269"/>
      <point x="1711" y="-266"/>
      <point x="1721" y="-266" type="curve" smooth="yes"/>
      <point x="1776" y="-266"/>
      <point x="1814" y="-318"/>
      <point x="1814" y="-375" type="curve" smooth="yes"/>
      <point x="1814" y="-503"/>
      <point x="1625" y="-705"/>
      <point x="1284" y="-705" type="curve" smooth="yes"/>
      <point x="819" y="-705"/>
      <point x="521" y="-329"/>
      <point x="301" y="-22" type="curve" smooth="yes"/>
      <point x="274" y="16"/>
      <point x="242" y="58"/>
      <point x="206" y="99" type="curve"/>
      <point x="297" y="168"/>
      <point x="369" y="262"/>
      <point x="429" y="367" type="curve"/>
      <point x="771" y="419"/>
      <point x="1061" y="814"/>
      <point x="1061" y="991" type="curve" smooth="yes"/>
      <point x="1061" y="1046"/>
      <point x="1031" y="1107"/>
      <point x="973" y="1107" type="curve" smooth="yes"/>
      <point x="765" y="1107"/>
      <point x="536" y="611"/>
      <point x="428" y="404" type="curve" smooth="yes"/>
      <point x="410" y="371" type="line"/>
      <point x="393" y="369"/>
      <point x="375" y="368"/>
      <point x="357" y="368" type="curve" smooth="yes"/>
      <point x="348" y="368" type="line" smooth="yes"/>
      <point x="118" y="374"/>
      <point x="-77" y="502"/>
      <point x="-67" y="753" type="curve" smooth="yes"/>
      <point x="-56" y="994"/>
      <point x="143" y="1171"/>
      <point x="346" y="1171" type="curve" smooth="yes"/>
      <point x="488" y="1171"/>
      <point x="577" y="1076"/>
      <point x="572" y="963" type="curve" smooth="yes"/>
      <point x="568" y="853"/>
      <point x="476" y="713"/>
      <point x="337" y="713" type="curve" smooth="yes"/>
      <point x="315" y="713"/>
      <point x="243" y="716"/>
      <point x="219" y="785" type="curve"/>
      <point x="213" y="783" type="line"/>
      <point x="241" y="717"/>
      <point x="300" y="707"/>
      <point x="340" y="707" type="curve" smooth="yes"/>
      <point x="491" y="707"/>
      <point x="584" y="849"/>
      <point x="589" y="962" type="curve" smooth="yes"/>
      <point x="594" y="1086"/>
      <point x="495" y="1177"/>
      <point x="346" y="1177" type="curve" smooth="yes"/>
      <point x="139" y="1177"/>
      <point x="-76" y="1005"/>
      <point x="-86" y="759" type="curve" smooth="yes"/>
      <point x="-97" y="502"/>
      <point x="110" y="366"/>
    </contour>
    <contour>
      <point x="-141" y="-9" type="curve" smooth="yes"/>
      <point x="-428" y="-9"/>
      <point x="-527" y="114"/>
      <point x="-527" y="225" type="curve" smooth="yes"/>
      <point x="-527" y="316"/>
      <point x="-446" y="398"/>
      <point x="-307" y="398" type="curve" smooth="yes"/>
      <point x="-147" y="399"/>
      <point x="24" y="288"/>
      <point x="187" y="107" type="curve"/>
      <point x="95" y="37"/>
      <point x="-14" y="-9"/>
    </contour>
    <contour>
      <point x="457" y="418" type="line" smooth="yes"/>
      <point x="563" y="623"/>
      <point x="781" y="1102"/>
      <point x="972" y="1102" type="curve" smooth="yes"/>
      <point x="1024" y="1102"/>
      <point x="1048" y="1057"/>
      <point x="1048" y="1006" type="curve" smooth="yes"/>
      <point x="1048" y="832"/>
      <point x="768" y="430"/>
      <point x="433" y="374" type="curve"/>
    </contour>
  </outline>
</glyph>
<glyph name="M.big" format="2">
  <advance width="1299"/>
  <outline>
    <contour>
      <point x="441" y="-130" type="line"/>
      <point x="392" y="-163"/>
      <point x="358" y="-221"/>
      <point x="358" y="-289" type="curve" smooth="yes"/>
      <point x="358" y="-508"/>
      <point x="557" y="-600"/>
      <point x="772" y="-600" type="curve" smooth="yes"/>
      <point x="908" y="-600"/>
      <point x="1047" y="-550"/>
      <point x="1183" y="-483" type="curve"/>
      <point x="1286" y="-611"/>
      <point x="1452" y="-693"/>
      <point x="1671" y="-700" type="curve" smooth="yes"/>
      <point x="1686" y="-700" type="line" smooth="yes"/>
      <point x="1936" y="-700"/>
      <point x="2361" y="-557"/>
      <point x="2361" y="-295" type="curve" smooth="yes"/>
      <point x="2361" y="-190"/>
      <point x="2249" y="-92"/>
      <point x="2082" y="-92" type="curve" smooth="yes"/>
      <point x="1865" y="-92"/>
      <point x="1643" y="-213"/>
      <point x="1430" y="-339" type="curve" smooth="yes"/>
      <point x="1352" y="-385"/>
      <point x="1272" y="-432"/>
      <point x="1191" y="-473" type="curve"/>
      <point x="1114" y="-371"/>
      <point x="1073" y="-241"/>
      <point x="1073" y="-95" type="curve" smooth="yes"/>
      <point x="1073" y="269"/>
      <point x="1395" y="785"/>
      <point x="1590" y="1001" type="curve" smooth="yes"/>
      <point x="1633" y="1045"/>
      <point x="1668" y="1079"/>
      <point x="1669" y="1097" type="curve"/>
      <point x="1671" y="1108"/>
      <point x="1664" y="1115"/>
      <point x="1650" y="1115" type="curve" smooth="yes"/>
      <point x="1484" y="1115"/>
      <point x="1146" y="821"/>
      <point x="883" y="517" type="curve"/>
      <point x="883" y="567"/>
      <point x="882" y="617"/>
      <point x="882" y="665" type="curve" smooth="yes"/>
      <point x="882" y="785"/>
      <point x="900" y="916"/>
      <point x="942" y="991" type="curve"/>
      <point x="961" y="1003"/>
      <point x="979" y="1012"/>
      <point x="998" y="1018" type="curve"/>
      <point x="1067" y="1045"/>
      <point x="1056" y="1086"/>
      <point x="988" y="1047" type="curve" smooth="yes"/>
      <point x="969" y="1036"/>
      <point x="953" y="1017"/>
      <point x="939" y="995" type="curve"/>
      <point x="756" y="872"/>
      <point x="563" y="512"/>
      <point x="464" y="348" type="curve" smooth="yes"/>
      <point x="347" y="155"/>
      <point x="142" y="-146"/>
      <point x="-114" y="-130" type="curve" smooth="yes"/>
      <point x="-191" y="-126"/>
      <point x="-315" y="-51"/>
      <point x="-256" y="89" type="curve"/>
      <point x="-257" y="90" type="line"/>
      <point x="-323" y="-61"/>
      <point x="-203" y="-131"/>
      <point x="-116" y="-135" type="curve" smooth="yes"/>
      <point x="191" y="-152"/>
      <point x="358" y="147"/>
      <point x="503" y="382" type="curve" smooth="yes"/>
      <point x="593" y="528"/>
      <point x="762" y="868"/>
      <point x="934" y="985" type="curve"/>
      <point x="881" y="887"/>
      <point x="872" y="715"/>
      <point x="872" y="579" type="curve" smooth="yes"/>
      <point x="872" y="503" type="line"/>
      <point x="686" y="286"/>
      <point x="541" y="66"/>
      <point x="526" y="-55" type="curve" smooth="yes"/>
      <point x="525" y="-65"/>
      <point x="523" y="-75"/>
      <point x="523" y="-84" type="curve" smooth="yes"/>
      <point x="523" y="-156"/>
      <point x="560" y="-194"/>
      <point x="605" y="-194" type="curve" smooth="yes"/>
      <point x="708" y="-194"/>
      <point x="854" y="-3"/>
      <point x="873" y="187" type="curve" smooth="yes"/>
      <point x="884" y="293"/>
      <point x="884" y="401"/>
      <point x="883" y="506" type="curve"/>
      <point x="1142" y="811"/>
      <point x="1480" y="1103"/>
      <point x="1636" y="1103" type="curve" smooth="yes"/>
      <point x="1647" y="1103"/>
      <point x="1651" y="1098"/>
      <point x="1650" y="1091" type="curve"/>
      <point x="1649" y="1075"/>
      <point x="1624" y="1046"/>
      <point x="1582" y="1003" type="curve" smooth="yes"/>
      <point x="1367" y="784"/>
      <point x="1056" y="251"/>
      <point x="1056" y="-94" type="curve" smooth="yes"/>
      <point x="1056" y="-243"/>
      <point x="1098" y="-375"/>
      <point x="1179" y="-478" type="curve"/>
      <point x="1050" y="-542"/>
      <point x="919" y="-589"/>
      <point x="790" y="-589" type="curve" smooth="yes"/>
      <point x="577" y="-589"/>
      <point x="365" y="-502"/>
      <point x="365" y="-285" type="curve" smooth="yes"/>
      <point x="365" y="-217"/>
      <point x="399" y="-164"/>
      <point x="445" y="-133" type="curve"/>
    </contour>
    <contour>
      <point x="1432" y="-344" type="curve" smooth="yes"/>
      <point x="1644" y="-218"/>
      <point x="1863" y="-100"/>
      <point x="2071" y="-100" type="curve" smooth="yes"/>
      <point x="2237" y="-100"/>
      <point x="2342" y="-192"/>
      <point x="2342" y="-299" type="curve" smooth="yes"/>
      <point x="2342" y="-558"/>
      <point x="1928" y="-693"/>
      <point x="1686" y="-693" type="curve" smooth="yes"/>
      <point x="1668" y="-693" type="line" smooth="yes"/>
      <point x="1456" y="-688"/>
      <point x="1295" y="-607"/>
      <point x="1194" y="-477" type="curve"/>
      <point x="1275" y="-436"/>
      <point x="1355" y="-389"/>
    </contour>
    <contour>
      <point x="862" y="224" type="curve" smooth="yes"/>
      <point x="853" y="28"/>
      <point x="710" y="-185"/>
      <point x="597" y="-185" type="curve" smooth="yes"/>
      <point x="558" y="-185"/>
      <point x="535" y="-160"/>
      <point x="535" y="-99" type="curve" smooth="yes"/>
      <point x="535" y="-86"/>
      <point x="536" y="-72"/>
      <point x="539" y="-56" type="curve"/>
      <point x="554" y="62"/>
      <point x="691" y="280"/>
      <point x="872" y="493" type="curve"/>
      <point x="872" y="487" type="line" smooth="yes"/>
      <point x="872" y="403"/>
      <point x="866" y="313"/>
    </contour>
    <contour>
      <point x="798" y="968" type="line"/>
      <point x="770" y="899"/>
      <point x="719" y="874"/>
      <point x="642" y="874" type="curve" smooth="yes"/>
      <point x="541" y="874"/>
      <point x="428" y="919"/>
      <point x="345" y="919" type="curve" smooth="yes"/>
      <point x="183" y="919"/>
      <point x="41" y="770"/>
      <point x="41" y="623" type="curve" smooth="yes"/>
      <point x="41" y="524"/>
      <point x="99" y="416"/>
      <point x="225" y="413" type="curve" smooth="yes"/>
      <point x="353" y="413"/>
      <point x="478" y="525"/>
      <point x="478" y="658" type="curve" smooth="yes"/>
      <point x="478" y="742"/>
      <point x="417" y="786"/>
      <point x="349" y="786" type="curve" smooth="yes"/>
      <point x="262" y="786"/>
      <point x="179" y="714"/>
      <point x="179" y="642" type="curve" smooth="yes"/>
      <point x="179" y="625"/>
      <point x="187" y="612"/>
      <point x="197" y="597" type="curve"/>
      <point x="201" y="599" type="line"/>
      <point x="193" y="612"/>
      <point x="189" y="625"/>
      <point x="189" y="639" type="curve" smooth="yes"/>
      <point x="189" y="711"/>
      <point x="262" y="781"/>
      <point x="348" y="781" type="curve" smooth="yes"/>
      <point x="409" y="781"/>
      <point x="464" y="743"/>
      <point x="464" y="659" type="curve" smooth="yes"/>
      <point x="464" y="528"/>
      <point x="351" y="422"/>
      <point x="234" y="417" type="curve" smooth="yes"/>
      <point x="104" y="417"/>
      <point x="52" y="517"/>
      <point x="52" y="611" type="curve" smooth="yes"/>
      <point x="52" y="739"/>
      <point x="181" y="912"/>
      <point x="353" y="912" type="curve" smooth="yes"/>
      <point x="431" y="912"/>
      <point x="535" y="869"/>
      <point x="630" y="869" type="curve" smooth="yes"/>
      <point x="713" y="869"/>
      <point x="771" y="892"/>
      <point x="805" y="962" type="curve"/>
    </contour>
    <contour>
      <point x="988" y="1042" type="curve" smooth="yes"/>
      <point x="1025" y="1062"/>
      <point x="1031" y="1040"/>
      <point x="998" y="1026" type="curve"/>
      <point x="981" y="1020"/>
      <point x="965" y="1011"/>
      <point x="948" y="1000" type="curve"/>
      <point x="959" y="1018"/>
      <point x="973" y="1034"/>
    </contour>
  </outline>
</glyph>
<glyph name="N.big" format="2">
  <advance width="1055"/>
  <outline>
    <contour>
      <point x="787" y="770" type="curve" smooth="yes"/>
      <point x="787" y="857"/>
      <point x="803" y="937"/>
      <point x="849" y="1004" type="curve"/>
      <point x="871" y="1020"/>
      <point x="893" y="1032"/>
      <point x="915" y="1040" type="curve" smooth="yes"/>
      <point x="986" y="1068"/>
      <point x="977" y="1104"/>
      <point x="904" y="1070" type="curve"/>
      <point x="870" y="1050"/>
      <point x="844" y="1023"/>
      <point x="824" y="989" type="curve"/>
      <point x="659" y="842"/>
      <point x="511" y="503"/>
      <point x="430" y="349" type="curve" smooth="yes"/>
      <point x="312" y="126"/>
      <point x="146" y="-174"/>
      <point x="-131" y="-155" type="curve" smooth="yes"/>
      <point x="-210" y="-150"/>
      <point x="-345" y="-73"/>
      <point x="-297" y="71" type="curve"/>
      <point x="-299" y="72" type="line"/>
      <point x="-353" y="-86"/>
      <point x="-222" y="-159"/>
      <point x="-130" y="-163" type="curve" smooth="yes"/>
      <point x="191" y="-180"/>
      <point x="336" y="131"/>
      <point x="463" y="376" type="curve" smooth="yes"/>
      <point x="537" y="518"/>
      <point x="665" y="838"/>
      <point x="819" y="979" type="curve"/>
      <point x="783" y="914"/>
      <point x="769" y="830"/>
      <point x="769" y="745" type="curve" smooth="yes"/>
      <point x="769" y="651"/>
      <point x="781" y="550"/>
      <point x="791" y="456" type="curve" smooth="yes"/>
      <point x="804" y="335"/>
      <point x="818" y="224"/>
      <point x="822" y="144" type="curve"/>
      <point x="792" y="74"/>
      <point x="768" y="9"/>
      <point x="749" y="-47" type="curve" smooth="yes"/>
      <point x="742" y="-70"/>
      <point x="735" y="-92"/>
      <point x="735" y="-107" type="curve" smooth="yes"/>
      <point x="735" y="-131"/>
      <point x="741" y="-145"/>
      <point x="755" y="-145" type="curve"/>
      <point x="785" y="-147"/>
      <point x="840" y="-91"/>
      <point x="840" y="80" type="curve" smooth="yes"/>
      <point x="840" y="105"/>
      <point x="839" y="131"/>
      <point x="836" y="159" type="curve"/>
      <point x="1040" y="626"/>
      <point x="1464" y="1323"/>
      <point x="2029" y="1323" type="curve" smooth="yes"/>
      <point x="2307" y="1323"/>
      <point x="2400" y="1171"/>
      <point x="2400" y="1049" type="curve" smooth="yes"/>
      <point x="2400" y="970"/>
      <point x="2356" y="888"/>
      <point x="2291" y="881" type="curve"/>
      <point x="2293" y="877" type="line"/>
      <point x="2360" y="884"/>
      <point x="2412" y="972"/>
      <point x="2412" y="1057" type="curve" smooth="yes"/>
      <point x="2412" y="1181"/>
      <point x="2318" y="1335"/>
      <point x="2037" y="1335" type="curve" smooth="yes"/>
      <point x="1469" y="1335"/>
      <point x="1041" y="651"/>
      <point x="835" y="175" type="curve"/>
      <point x="825" y="272"/>
      <point x="804" y="380"/>
      <point x="794" y="489" type="curve" smooth="yes"/>
      <point x="783" y="586"/>
      <point x="787" y="683"/>
    </contour>
    <contour>
      <point x="693" y="1018" type="line"/>
      <point x="665" y="949"/>
      <point x="614" y="924"/>
      <point x="537" y="924" type="curve" smooth="yes"/>
      <point x="436" y="924"/>
      <point x="323" y="969"/>
      <point x="240" y="969" type="curve" smooth="yes"/>
      <point x="78" y="969"/>
      <point x="-64" y="820"/>
      <point x="-64" y="673" type="curve" smooth="yes"/>
      <point x="-64" y="574"/>
      <point x="-6" y="466"/>
      <point x="120" y="463" type="curve" smooth="yes"/>
      <point x="248" y="463"/>
      <point x="373" y="575"/>
      <point x="373" y="708" type="curve" smooth="yes"/>
      <point x="373" y="792"/>
      <point x="312" y="836"/>
      <point x="244" y="836" type="curve" smooth="yes"/>
      <point x="157" y="836"/>
      <point x="74" y="764"/>
      <point x="74" y="692" type="curve" smooth="yes"/>
      <point x="74" y="675"/>
      <point x="82" y="662"/>
      <point x="92" y="647" type="curve"/>
      <point x="96" y="649" type="line"/>
      <point x="88" y="662"/>
      <point x="84" y="675"/>
      <point x="84" y="689" type="curve" smooth="yes"/>
      <point x="84" y="761"/>
      <point x="157" y="831"/>
      <point x="243" y="831" type="curve" smooth="yes"/>
      <point x="304" y="831"/>
      <point x="359" y="793"/>
      <point x="359" y="709" type="curve" smooth="yes"/>
      <point x="359" y="578"/>
      <point x="246" y="472"/>
      <point x="129" y="467" type="curve" smooth="yes"/>
      <point x="-1" y="467"/>
      <point x="-53" y="567"/>
      <point x="-53" y="661" type="curve" smooth="yes"/>
      <point x="-53" y="789"/>
      <point x="76" y="962"/>
      <point x="248" y="962" type="curve" smooth="yes"/>
      <point x="326" y="962"/>
      <point x="430" y="919"/>
      <point x="525" y="919" type="curve" smooth="yes"/>
      <point x="608" y="919"/>
      <point x="666" y="942"/>
      <point x="700" y="1012" type="curve"/>
    </contour>
    <contour>
      <point x="754" y="-50" type="curve" smooth="yes"/>
      <point x="772" y="2"/>
      <point x="795" y="62"/>
      <point x="823" y="127" type="curve"/>
      <point x="823" y="105" type="line" smooth="yes"/>
      <point x="823" y="-26"/>
      <point x="781" y="-128"/>
      <point x="757" y="-128" type="curve" smooth="yes"/>
      <point x="749" y="-128"/>
      <point x="743" y="-120"/>
      <point x="743" y="-104" type="curve" smooth="yes"/>
      <point x="743" y="-92"/>
      <point x="747" y="-74"/>
    </contour>
    <contour>
      <point x="904" y="1065" type="curve"/>
      <point x="944" y="1085"/>
      <point x="949" y="1062"/>
      <point x="915" y="1048" type="curve" smooth="yes"/>
      <point x="895" y="1040"/>
      <point x="876" y="1029"/>
      <point x="857" y="1015" type="curve"/>
      <point x="870" y="1033"/>
      <point x="886" y="1049"/>
    </contour>
  </outline>
</glyph>
<glyph name="O.big" format="2">
  <advance width="1062"/>
  <outline>
    <contour>
      <point x="730" y="736" type="line"/>
      <point x="745" y="712"/>
      <point x="750" y="686"/>
      <point x="750" y="660" type="curve" smooth="yes"/>
      <point x="750" y="523"/>
      <point x="620" y="390"/>
      <point x="480" y="390" type="curve" smooth="yes"/>
      <point x="375" y="390"/>
      <point x="288" y="460"/>
      <point x="288" y="611" type="curve" smooth="yes"/>
      <point x="288" y="867"/>
      <point x="528" y="1080"/>
      <point x="787" y="1080" type="curve" smooth="yes"/>
      <point x="983" y="1080"/>
      <point x="1065" y="930"/>
      <point x="1065" y="764" type="curve" smooth="yes"/>
      <point x="1065" y="413"/>
      <point x="724" y="-85"/>
      <point x="322" y="-85" type="curve" smooth="yes"/>
      <point x="99" y="-85"/>
      <point x="-8" y="90"/>
      <point x="-8" y="308" type="curve" smooth="yes"/>
      <point x="-8" y="716"/>
      <point x="403" y="1159"/>
      <point x="764" y="1159" type="curve"/>
      <point x="762" y="1164" type="line"/>
      <point x="405" y="1164"/>
      <point x="-22" y="735"/>
      <point x="-22" y="326" type="curve" smooth="yes"/>
      <point x="-22" y="101"/>
      <point x="92" y="-96"/>
      <point x="333" y="-96" type="curve" smooth="yes"/>
      <point x="736" y="-96"/>
      <point x="1079" y="409"/>
      <point x="1079" y="739" type="curve" smooth="yes"/>
      <point x="1079" y="923"/>
      <point x="988" y="1088"/>
      <point x="787" y="1088" type="curve" smooth="yes"/>
      <point x="525" y="1088"/>
      <point x="273" y="876"/>
      <point x="273" y="620" type="curve" smooth="yes"/>
      <point x="273" y="466"/>
      <point x="362" y="384"/>
      <point x="473" y="384" type="curve" smooth="yes"/>
      <point x="625" y="384"/>
      <point x="765" y="519"/>
      <point x="765" y="658" type="curve" smooth="yes"/>
      <point x="765" y="689"/>
      <point x="753" y="715"/>
      <point x="736" y="741" type="curve"/>
    </contour>
  </outline>
</glyph>
<glyph name="S.001" format="2">
  <advance width="826"/>
  <outline>
    <contour>
      <point x="785" y="949" type="curve" smooth="yes"/>
      <point x="688" y="949"/>
      <point x="577" y="885"/>
      <point x="577" y="745" type="curve" smooth="yes"/>
      <point x="577" y="603"/>
      <point x="692" y="445"/>
      <point x="692" y="284" type="curve" smooth="yes"/>
      <point x="692" y="68"/>
      <point x="486" y="-78"/>
      <point x="299" y="-78" type="curve" smooth="yes"/>
      <point x="122" y="-78"/>
      <point x="7" y="53"/>
      <point x="7" y="210" type="curve" smooth="yes"/>
      <point x="7" y="388"/>
      <point x="153" y="516"/>
      <point x="291" y="516" type="curve" smooth="yes"/>
      <point x="393" y="516"/>
      <point x="451" y="445"/>
      <point x="451" y="370" type="curve" smooth="yes"/>
      <point x="451" y="289"/>
      <point x="383" y="192"/>
      <point x="287" y="192" type="curve" smooth="yes"/>
      <point x="274" y="192"/>
      <point x="221" y="193"/>
      <point x="205" y="243" type="curve"/>
      <point x="200" y="239" type="line"/>
      <point x="219" y="193"/>
      <point x="262" y="186"/>
      <point x="291" y="186" type="curve" smooth="yes"/>
      <point x="397" y="186"/>
      <point x="462" y="289"/>
      <point x="462" y="371" type="curve" smooth="yes"/>
      <point x="462" y="455"/>
      <point x="393" y="522"/>
      <point x="288" y="522" type="curve" smooth="yes"/>
      <point x="143" y="522"/>
      <point x="-9" y="391"/>
      <point x="-9" y="211" type="curve" smooth="yes"/>
      <point x="-9" y="45"/>
      <point x="121" y="-82"/>
      <point x="303" y="-82" type="curve" smooth="yes"/>
      <point x="506" y="-82"/>
      <point x="706" y="77"/>
      <point x="706" y="292" type="curve" smooth="yes"/>
      <point x="706" y="457"/>
      <point x="590" y="616"/>
      <point x="590" y="758" type="curve" smooth="yes"/>
      <point x="590" y="892"/>
      <point x="695" y="943"/>
      <point x="778" y="943" type="curve" smooth="yes"/>
      <point x="868" y="943"/>
      <point x="916" y="883"/>
      <point x="916" y="825" type="curve" smooth="yes"/>
      <point x="916" y="774"/>
      <point x="880" y="709"/>
      <point x="814" y="709" type="curve" smooth="yes"/>
      <point x="803" y="709"/>
      <point x="793" y="712"/>
      <point x="784" y="717" type="curve"/>
      <point x="782" y="712" type="line"/>
      <point x="795" y="706"/>
      <point x="808" y="704"/>
      <point x="819" y="704" type="curve" smooth="yes"/>
      <point x="882" y="704"/>
      <point x="929" y="767"/>
      <point x="929" y="825" type="curve" smooth="yes"/>
      <point x="929" y="881"/>
      <point x="883" y="949"/>
    </contour>
  </outline>
</glyph>
<glyph name="T.big" format="2">
  <advance width="618"/>
  <outline>
    <contour>
      <point x="923" y="922" type="line"/>
      <point x="709" y="854"/>
      <point x="540" y="476"/>
      <point x="432" y="272" type="curve" smooth="yes"/>
      <point x="348" y="112"/>
      <point x="178" y="-165"/>
      <point x="-61" y="-151" type="curve" smooth="yes"/>
      <point x="-127" y="-147"/>
      <point x="-230" y="-85"/>
      <point x="-182" y="33" type="curve"/>
      <point x="-183" y="34" type="line"/>
      <point x="-238" y="-94"/>
      <point x="-136" y="-152"/>
      <point x="-63" y="-155" type="curve" smooth="yes"/>
      <point x="197" y="-169"/>
      <point x="350" y="78"/>
      <point x="458" y="286" type="curve" smooth="yes"/>
      <point x="560" y="480"/>
      <point x="713" y="858"/>
      <point x="920" y="909" type="curve"/>
    </contour>
    <contour>
      <point x="50" y="605" type="line"/>
      <point x="31" y="629"/>
      <point x="27" y="657"/>
      <point x="33" y="686" type="curve"/>
      <point x="43" y="782"/>
      <point x="149" y="870"/>
      <point x="263" y="870" type="curve" smooth="yes"/>
      <point x="363" y="870"/>
      <point x="454" y="805"/>
      <point x="437" y="657" type="curve" smooth="yes"/>
      <point x="417" y="483"/>
      <point x="264" y="345"/>
      <point x="96" y="339" type="curve" smooth="yes"/>
      <point x="-93" y="339"/>
      <point x="-170" y="485"/>
      <point x="-170" y="622" type="curve" smooth="yes"/>
      <point x="-170" y="886"/>
      <point x="114" y="1169"/>
      <point x="504" y="1169" type="curve" smooth="yes"/>
      <point x="779" y="1169"/>
      <point x="1150" y="993"/>
      <point x="1424" y="993" type="curve" smooth="yes"/>
      <point x="1499" y="993"/>
      <point x="1565" y="1009"/>
      <point x="1621" y="1051" type="curve"/>
      <point x="1618" y="1056" type="line"/>
      <point x="1562" y="1014"/>
      <point x="1497" y="999"/>
      <point x="1424" y="999" type="curve" smooth="yes"/>
      <point x="1149" y="999"/>
      <point x="797" y="1174"/>
      <point x="502" y="1174" type="curve" smooth="yes"/>
      <point x="102" y="1174"/>
      <point x="-179" y="904"/>
      <point x="-179" y="633" type="curve" smooth="yes"/>
      <point x="-179" y="492"/>
      <point x="-97" y="339"/>
      <point x="84" y="334" type="curve" smooth="yes"/>
      <point x="260" y="334"/>
      <point x="428" y="478"/>
      <point x="449" y="656" type="curve" smooth="yes"/>
      <point x="467" y="801"/>
      <point x="372" y="876"/>
      <point x="264" y="876" type="curve" smooth="yes"/>
      <point x="146" y="876"/>
      <point x="31" y="784"/>
      <point x="21" y="686" type="curve"/>
      <point x="14" y="654"/>
      <point x="24" y="627"/>
      <point x="43" y="602" type="curve"/>
    </contour>
  </outline>
</glyph>
<glyph name="a.5" format="2">
  <advance width="403"/>
  <outline>
    <contour>
      <point x="261" y="558" type="curve" smooth="yes"/>
      <point x="303" y="558"/>
      <point x="319" y="533"/>
      <point x="319" y="501" type="curve" smooth="yes"/>
      <point x="319" y="462"/>
      <point x="297" y="412"/>
      <point x="266" y="382" type="curve"/>
      <point x="267" y="379" type="line"/>
      <point x="301" y="411"/>
      <point x="327" y="460"/>
      <point x="327" y="499" type="curve" smooth="yes"/>
      <point x="327" y="535"/>
      <point x="306" y="563"/>
      <point x="261" y="563" type="curve" smooth="yes"/>
      <point x="160" y="563"/>
      <point x="-13" y="349"/>
      <point x="-43" y="131" type="curve" smooth="yes"/>
      <point x="-45" y="118"/>
      <point x="-46" y="105"/>
      <point x="-46" y="94" type="curve" smooth="yes"/>
      <point x="-46" y="29"/>
      <point x="-21" y="-12"/>
      <point x="18" y="-12" type="curve" smooth="yes"/>
      <point x="66" y="-12"/>
      <point x="152" y="59"/>
      <point x="202" y="151" type="curve"/>
      <point x="193" y="120"/>
      <point x="187" y="84"/>
      <point x="187" y="47" type="curve" smooth="yes"/>
      <point x="187" y="-32"/>
      <point x="230" y="-129"/>
      <point x="347" y="-129" type="curve" smooth="yes"/>
      <point x="477" y="-129"/>
      <point x="556" y="-18"/>
      <point x="556" y="71" type="curve" smooth="yes"/>
      <point x="556" y="139"/>
      <point x="506" y="188"/>
      <point x="456" y="188" type="curve" smooth="yes"/>
      <point x="440" y="188"/>
      <point x="425" y="183"/>
      <point x="413" y="174" type="curve"/>
      <point x="415" y="170" type="line"/>
      <point x="427" y="179"/>
      <point x="442" y="184"/>
      <point x="456" y="184" type="curve" smooth="yes"/>
      <point x="504" y="184"/>
      <point x="550" y="143"/>
      <point x="550" y="77" type="curve" smooth="yes"/>
      <point x="550" y="-10"/>
      <point x="475" y="-125"/>
      <point x="347" y="-125" type="curve" smooth="yes"/>
      <point x="237" y="-125"/>
      <point x="197" y="-37"/>
      <point x="197" y="40" type="curve" smooth="yes"/>
      <point x="197" y="92"/>
      <point x="211" y="146"/>
      <point x="228" y="185" type="curve" smooth="yes"/>
      <point x="403" y="550" type="line"/>
      <point x="382" y="550" type="line"/>
      <point x="217" y="191" type="line"/>
      <point x="213" y="183" type="line" smooth="yes"/>
      <point x="155" y="69"/>
      <point x="71" y="-6"/>
      <point x="20" y="-6" type="curve" smooth="yes"/>
      <point x="-14" y="-6"/>
      <point x="-30" y="26"/>
      <point x="-30" y="79" type="curve" smooth="yes"/>
      <point x="-30" y="298"/>
      <point x="170" y="558"/>
    </contour>
  </outline>
</glyph>
<glyph name="a.9" format="2">
  <advance width="687"/>
  <outline>
    <contour>
      <point x="261" y="558" type="curve" smooth="yes"/>
      <point x="310" y="558"/>
      <point x="324" y="524"/>
      <point x="318" y="485" type="curve" smooth="yes"/>
      <point x="313" y="449"/>
      <point x="293" y="408"/>
      <point x="266" y="382" type="curve"/>
      <point x="267" y="379" type="line"/>
      <point x="297" y="407"/>
      <point x="321" y="449"/>
      <point x="326" y="485" type="curve" smooth="yes"/>
      <point x="332" y="527"/>
      <point x="312" y="563"/>
      <point x="261" y="563" type="curve" smooth="yes"/>
      <point x="183" y="563"/>
      <point x="65" y="438"/>
      <point x="-1" y="280" type="curve" smooth="yes"/>
      <point x="-21" y="227"/>
      <point x="-36" y="181"/>
      <point x="-43" y="131" type="curve" smooth="yes"/>
      <point x="-54" y="46"/>
      <point x="-28" y="-12"/>
      <point x="18" y="-12" type="curve" smooth="yes"/>
      <point x="65" y="-12"/>
      <point x="144" y="52"/>
      <point x="195" y="140" type="curve"/>
      <point x="149" y="2"/>
      <point x="228" y="-139"/>
      <point x="364" y="-141" type="curve" smooth="yes"/>
      <point x="492" y="-141"/>
      <point x="617" y="-29"/>
      <point x="617" y="104" type="curve" smooth="yes"/>
      <point x="617" y="179"/>
      <point x="556" y="232"/>
      <point x="488" y="232" type="curve" smooth="yes"/>
      <point x="401" y="232"/>
      <point x="334" y="160"/>
      <point x="334" y="88" type="curve" smooth="yes"/>
      <point x="334" y="71"/>
      <point x="342" y="58"/>
      <point x="352" y="43" type="curve"/>
      <point x="356" y="45" type="line"/>
      <point x="348" y="58"/>
      <point x="344" y="71"/>
      <point x="344" y="85" type="curve" smooth="yes"/>
      <point x="344" y="157"/>
      <point x="401" y="227"/>
      <point x="487" y="227" type="curve" smooth="yes"/>
      <point x="548" y="227"/>
      <point x="603" y="189"/>
      <point x="603" y="105" type="curve" smooth="yes"/>
      <point x="603" y="-26"/>
      <point x="490" y="-132"/>
      <point x="373" y="-137" type="curve" smooth="yes"/>
      <point x="218" y="-139"/>
      <point x="150" y="22"/>
      <point x="219" y="168" type="curve" smooth="yes"/>
      <point x="403" y="550" type="line"/>
      <point x="382" y="550" type="line"/>
      <point x="214" y="185" type="line"/>
      <point x="215" y="188" type="line"/>
      <point x="157" y="71"/>
      <point x="72" y="-6"/>
      <point x="20" y="-6" type="curve" smooth="yes"/>
      <point x="-23" y="-6"/>
      <point x="-37" y="45"/>
      <point x="-27" y="123" type="curve" smooth="yes"/>
      <point x="-20" y="174"/>
      <point x="-8" y="220"/>
      <point x="14" y="275" type="curve" smooth="yes"/>
      <point x="82" y="430"/>
      <point x="192" y="558"/>
    </contour>
  </outline>
</glyph>
<glyph name="a.999.1" format="2">
  <advance width="446"/>
  <outline>
    <contour>
      <point x="745" y="416" type="curve" smooth="yes"/>
      <point x="858" y="416"/>
      <point x="875" y="302"/>
      <point x="857" y="206" type="curve" smooth="yes"/>
      <point x="813" y="-35"/>
      <point x="593" y="-219"/>
      <point x="415" y="-219" type="curve" smooth="yes"/>
      <point x="257" y="-219"/>
      <point x="117" y="-74"/>
      <point x="212" y="152" type="curve" smooth="yes"/>
      <point x="297" y="329" type="line"/>
      <point x="367" y="356"/>
      <point x="421" y="432"/>
      <point x="424" y="495" type="curve" smooth="yes"/>
      <point x="427" y="546"/>
      <point x="389" y="585"/>
      <point x="327" y="583" type="curve" smooth="yes"/>
      <point x="229" y="580"/>
      <point x="68" y="452"/>
      <point x="-1" y="280" type="curve" smooth="yes"/>
      <point x="-21" y="227"/>
      <point x="-36" y="181"/>
      <point x="-43" y="131" type="curve" smooth="yes"/>
      <point x="-54" y="46"/>
      <point x="-28" y="-12"/>
      <point x="18" y="-12" type="curve" smooth="yes"/>
      <point x="64" y="-12"/>
      <point x="143" y="51"/>
      <point x="194" y="138" type="curve"/>
      <point x="117" y="-68"/>
      <point x="242" y="-223"/>
      <point x="415" y="-223" type="curve" smooth="yes"/>
      <point x="589" y="-223"/>
      <point x="825" y="-44"/>
      <point x="870" y="196" type="curve" smooth="yes"/>
      <point x="888" y="291"/>
      <point x="862" y="420"/>
      <point x="746" y="420" type="curve" smooth="yes"/>
      <point x="643" y="420"/>
      <point x="514" y="310"/>
      <point x="487" y="164" type="curve" smooth="yes"/>
      <point x="472" y="82"/>
      <point x="496" y="12"/>
      <point x="549" y="-19" type="curve"/>
      <point x="550" y="-15" type="line"/>
      <point x="502" y="16"/>
      <point x="481" y="82"/>
      <point x="495" y="162" type="curve" smooth="yes"/>
      <point x="523" y="307"/>
      <point x="648" y="416"/>
    </contour>
    <contour>
      <point x="327" y="579" type="curve" smooth="yes"/>
      <point x="387" y="582"/>
      <point x="416" y="545"/>
      <point x="413" y="496" type="curve" smooth="yes"/>
      <point x="410" y="438"/>
      <point x="364" y="369"/>
      <point x="302" y="339" type="curve"/>
      <point x="364" y="469" type="line"/>
      <point x="343" y="469" type="line"/>
      <point x="280" y="330" type="line"/>
      <point x="266" y="326"/>
      <point x="252" y="324"/>
      <point x="238" y="324" type="curve" smooth="yes"/>
      <point x="201" y="324"/>
      <point x="159" y="343"/>
      <point x="157" y="396" type="curve"/>
      <point x="153" y="396" type="line"/>
      <point x="155" y="340"/>
      <point x="206" y="319"/>
      <point x="245" y="319" type="curve" smooth="yes"/>
      <point x="255" y="319"/>
      <point x="266" y="320"/>
      <point x="276" y="323" type="curve"/>
      <point x="213" y="185" type="line" smooth="yes"/>
      <point x="155" y="70"/>
      <point x="71" y="-6"/>
      <point x="20" y="-6" type="curve" smooth="yes"/>
      <point x="-23" y="-6"/>
      <point x="-37" y="45"/>
      <point x="-27" y="123" type="curve" smooth="yes"/>
      <point x="-20" y="174"/>
      <point x="-8" y="220"/>
      <point x="14" y="275" type="curve" smooth="yes"/>
      <point x="85" y="445"/>
      <point x="241" y="575"/>
    </contour>
  </outline>
</glyph>
<glyph name="b.7.baja" format="2">
  <advance width="386"/>
  <outline>
    <contour>
      <point x="61" y="380" type="line" smooth="yes"/>
      <point x="134" y="551"/>
      <point x="215" y="716"/>
      <point x="335" y="831" type="curve"/>
      <point x="506" y="750"/>
      <point x="679" y="652"/>
      <point x="858" y="652" type="curve" smooth="yes"/>
      <point x="978" y="652"/>
      <point x="1045" y="721"/>
      <point x="1045" y="796" type="curve" smooth="yes"/>
      <point x="1045" y="886"/>
      <point x="945" y="985"/>
      <point x="743" y="991" type="curve" smooth="yes"/>
      <point x="724" y="991" type="line" smooth="yes"/>
      <point x="559" y="991"/>
      <point x="430" y="936"/>
      <point x="332" y="849" type="curve" smooth="yes"/>
      <point x="324" y="842" type="line"/>
      <point x="205" y="896"/>
      <point x="86" y="942"/>
      <point x="-32" y="942" type="curve" smooth="yes"/>
      <point x="-249" y="942"/>
      <point x="-338" y="819"/>
      <point x="-338" y="727" type="curve" smooth="yes"/>
      <point x="-338" y="685"/>
      <point x="-311" y="630"/>
      <point x="-252" y="630" type="curve" smooth="yes"/>
      <point x="-251" y="630"/>
      <point x="-248" y="631"/>
      <point x="-246" y="631" type="curve"/>
      <point x="-246" y="633" type="line"/>
      <point x="-250" y="633" type="line" smooth="yes"/>
      <point x="-307" y="633"/>
      <point x="-330" y="682"/>
      <point x="-330" y="722" type="curve" smooth="yes"/>
      <point x="-330" y="812"/>
      <point x="-234" y="935"/>
      <point x="-18" y="935" type="curve" smooth="yes"/>
      <point x="94" y="935"/>
      <point x="206" y="891"/>
      <point x="320" y="838" type="curve"/>
      <point x="206" y="729"/>
      <point x="144" y="591"/>
      <point x="64" y="419" type="curve" smooth="yes"/>
      <point x="0" y="282" type="line"/>
      <point x="-55" y="161" type="line" smooth="yes"/>
      <point x="-95" y="72"/>
      <point x="-59" y="4"/>
      <point x="-17" y="0" type="curve" smooth="yes"/>
      <point x="52" y="-7"/>
      <point x="132" y="71"/>
      <point x="200" y="177" type="curve"/>
      <point x="209" y="173"/>
      <point x="221" y="171"/>
      <point x="234" y="171" type="curve" smooth="yes"/>
      <point x="274" y="171"/>
      <point x="347" y="214"/>
      <point x="389" y="280" type="curve"/>
      <point x="386" y="282" type="line"/>
      <point x="346" y="219"/>
      <point x="274" y="175"/>
      <point x="237" y="175" type="curve" smooth="yes"/>
      <point x="223" y="175"/>
      <point x="212" y="177"/>
      <point x="203" y="181" type="curve"/>
      <point x="244" y="246"/>
      <point x="280" y="320"/>
      <point x="308" y="392" type="curve" smooth="yes"/>
      <point x="336" y="461"/>
      <point x="340" y="548"/>
      <point x="300" y="548" type="curve" smooth="yes"/>
      <point x="248" y="548"/>
      <point x="165" y="414"/>
      <point x="153" y="305" type="curve" smooth="yes"/>
      <point x="148" y="257"/>
      <point x="154" y="207"/>
      <point x="187" y="184" type="curve"/>
      <point x="119" y="69"/>
      <point x="51" y="1"/>
      <point x="-16" y="5" type="curve" smooth="yes"/>
      <point x="-55" y="7"/>
      <point x="-83" y="72"/>
      <point x="-46" y="152" type="curve" smooth="yes"/>
    </contour>
    <contour>
      <point x="743" y="986" type="line" smooth="yes"/>
      <point x="940" y="982"/>
      <point x="1029" y="888"/>
      <point x="1029" y="801" type="curve" smooth="yes"/>
      <point x="1029" y="727"/>
      <point x="963" y="660"/>
      <point x="845" y="660" type="curve" smooth="yes"/>
      <point x="683" y="660"/>
      <point x="512" y="755"/>
      <point x="340" y="835" type="curve"/>
      <point x="438" y="927"/>
      <point x="563" y="986"/>
      <point x="730" y="986" type="curve" smooth="yes"/>
    </contour>
    <contour>
      <point x="159" y="301" type="curve" smooth="yes"/>
      <point x="171" y="412"/>
      <point x="253" y="543"/>
      <point x="300" y="543" type="curve" smooth="yes"/>
      <point x="337" y="543"/>
      <point x="319" y="459"/>
      <point x="284" y="377" type="curve" smooth="yes"/>
      <point x="252" y="306"/>
      <point x="221" y="242"/>
      <point x="189" y="189" type="curve"/>
      <point x="159" y="211"/>
      <point x="154" y="258"/>
    </contour>
  </outline>
</glyph>
<glyph name="b.7" format="2">
  <advance width="386"/>
  <outline>
    <contour>
      <point x="29" y="312" type="line"/>
      <point x="61" y="380" type="line" smooth="yes"/>
      <point x="136" y="557"/>
      <point x="244" y="771"/>
      <point x="410" y="923" type="curve"/>
      <point x="511" y="870" type="line"/>
      <point x="706" y="780"/>
      <point x="889" y="693"/>
      <point x="1067" y="693" type="curve" smooth="yes"/>
      <point x="1220" y="693"/>
      <point x="1306" y="781"/>
      <point x="1306" y="878" type="curve" smooth="yes"/>
      <point x="1306" y="992"/>
      <point x="1179" y="1117"/>
      <point x="922" y="1124" type="curve" smooth="yes"/>
      <point x="898" y="1124" type="line" smooth="yes"/>
      <point x="686" y="1124"/>
      <point x="524" y="1052"/>
      <point x="399" y="940" type="curve"/>
      <point x="395" y="936" type="line"/>
      <point x="204" y="1032"/>
      <point x="-16" y="1134"/>
      <point x="-195" y="1134" type="curve" smooth="yes"/>
      <point x="-497" y="1134"/>
      <point x="-651" y="950"/>
      <point x="-651" y="807" type="curve" smooth="yes"/>
      <point x="-651" y="753"/>
      <point x="-617" y="683"/>
      <point x="-541" y="683" type="curve" smooth="yes"/>
      <point x="-538" y="683"/>
      <point x="-536" y="684"/>
      <point x="-533" y="684" type="curve"/>
      <point x="-533" y="687" type="line"/>
      <point x="-538" y="687" type="line" smooth="yes"/>
      <point x="-611" y="687"/>
      <point x="-641" y="750"/>
      <point x="-641" y="801" type="curve" smooth="yes"/>
      <point x="-641" y="942"/>
      <point x="-478" y="1124"/>
      <point x="-178" y="1124" type="curve" smooth="yes"/>
      <point x="-11" y="1124"/>
      <point x="201" y="1029"/>
      <point x="391" y="932" type="curve"/>
      <point x="239" y="792"/>
      <point x="145" y="594"/>
      <point x="64" y="419" type="curve" smooth="yes"/>
      <point x="14" y="312" type="line"/>
      <point x="-55" y="161" type="line" smooth="yes"/>
      <point x="-95" y="72"/>
      <point x="-59" y="4"/>
      <point x="-17" y="0" type="curve" smooth="yes"/>
      <point x="52" y="-7"/>
      <point x="132" y="71"/>
      <point x="200" y="177" type="curve"/>
      <point x="209" y="173"/>
      <point x="221" y="171"/>
      <point x="234" y="171" type="curve" smooth="yes"/>
      <point x="274" y="171"/>
      <point x="347" y="214"/>
      <point x="389" y="280" type="curve"/>
      <point x="386" y="282" type="line"/>
      <point x="346" y="219"/>
      <point x="274" y="175"/>
      <point x="237" y="175" type="curve" smooth="yes"/>
      <point x="223" y="175"/>
      <point x="212" y="177"/>
      <point x="203" y="181" type="curve"/>
      <point x="244" y="246"/>
      <point x="280" y="320"/>
      <point x="308" y="392" type="curve" smooth="yes"/>
      <point x="336" y="461"/>
      <point x="340" y="548"/>
      <point x="300" y="548" type="curve" smooth="yes"/>
      <point x="248" y="548"/>
      <point x="165" y="414"/>
      <point x="153" y="305" type="curve" smooth="yes"/>
      <point x="148" y="257"/>
      <point x="154" y="207"/>
      <point x="187" y="184" type="curve"/>
      <point x="119" y="69"/>
      <point x="51" y="1"/>
      <point x="-16" y="5" type="curve" smooth="yes"/>
      <point x="-55" y="7"/>
      <point x="-83" y="72"/>
      <point x="-46" y="152" type="curve" smooth="yes"/>
    </contour>
    <contour>
      <point x="922" y="1119" type="line" smooth="yes"/>
      <point x="1174" y="1114"/>
      <point x="1288" y="993"/>
      <point x="1288" y="882" type="curve" smooth="yes"/>
      <point x="1288" y="787"/>
      <point x="1204" y="701"/>
      <point x="1053" y="701" type="curve" smooth="yes"/>
      <point x="886" y="701"/>
      <point x="700" y="788"/>
      <point x="514" y="875" type="curve" smooth="yes"/>
      <point x="414" y="926" type="line"/>
      <point x="540" y="1040"/>
      <point x="699" y="1119"/>
      <point x="905" y="1119" type="curve" smooth="yes"/>
    </contour>
    <contour>
      <point x="159" y="301" type="curve" smooth="yes"/>
      <point x="171" y="412"/>
      <point x="253" y="543"/>
      <point x="300" y="543" type="curve" smooth="yes"/>
      <point x="337" y="543"/>
      <point x="319" y="459"/>
      <point x="284" y="377" type="curve" smooth="yes"/>
      <point x="252" y="306"/>
      <point x="221" y="242"/>
      <point x="189" y="189" type="curve"/>
      <point x="159" y="211"/>
      <point x="154" y="258"/>
    </contour>
  </outline>
</glyph>
<glyph name="c.5" format="2">
  <advance width="330"/>
  <outline>
    <contour>
      <point x="365" y="72" type="curve" smooth="yes"/>
      <point x="365" y="140"/>
      <point x="315" y="189"/>
      <point x="265" y="189" type="curve" smooth="yes"/>
      <point x="249" y="189"/>
      <point x="234" y="184"/>
      <point x="222" y="175" type="curve"/>
      <point x="224" y="171" type="line"/>
      <point x="236" y="180"/>
      <point x="251" y="185"/>
      <point x="265" y="185" type="curve" smooth="yes"/>
      <point x="313" y="185"/>
      <point x="359" y="144"/>
      <point x="359" y="78" type="curve" smooth="yes"/>
      <point x="359" y="-9"/>
      <point x="284" y="-124"/>
      <point x="156" y="-124" type="curve" smooth="yes"/>
      <point x="30" y="-124"/>
      <point x="-23" y="-15"/>
      <point x="-23" y="104" type="curve" smooth="yes"/>
      <point x="-23" y="157"/>
      <point x="-8" y="215"/>
      <point x="8" y="255" type="curve" smooth="yes"/>
      <point x="72" y="417"/>
      <point x="192" y="558"/>
      <point x="266" y="558" type="curve" smooth="yes"/>
      <point x="299" y="558"/>
      <point x="314" y="533"/>
      <point x="314" y="504" type="curve" smooth="yes"/>
      <point x="314" y="446"/>
      <point x="258" y="339"/>
      <point x="193" y="339" type="curve" smooth="yes"/>
      <point x="168" y="339"/>
      <point x="154" y="390"/>
      <point x="184" y="435" type="curve"/>
      <point x="180" y="437" type="line"/>
      <point x="139" y="386"/>
      <point x="158" y="335"/>
      <point x="193" y="335" type="curve" smooth="yes"/>
      <point x="261" y="335"/>
      <point x="326" y="439"/>
      <point x="326" y="496" type="curve" smooth="yes"/>
      <point x="326" y="530"/>
      <point x="305" y="563"/>
      <point x="267" y="563" type="curve" smooth="yes"/>
      <point x="189" y="563"/>
      <point x="58" y="428"/>
      <point x="-7" y="262" type="curve" smooth="yes"/>
      <point x="-23" y="222"/>
      <point x="-33" y="166"/>
      <point x="-33" y="111" type="curve" smooth="yes"/>
      <point x="-33" y="-10"/>
      <point x="23" y="-128"/>
      <point x="156" y="-128" type="curve" smooth="yes"/>
      <point x="286" y="-128"/>
      <point x="365" y="-17"/>
    </contour>
  </outline>
</glyph>
<glyph name="d.999" format="2">
  <advance width="446"/>
  <outline>
    <contour>
      <point x="575" y="971" type="line"/>
      <point x="213" y="183" type="line"/>
      <point x="215" y="188" type="line"/>
      <point x="157" y="71"/>
      <point x="72" y="-6"/>
      <point x="20" y="-6" type="curve" smooth="yes"/>
      <point x="-23" y="-6"/>
      <point x="-37" y="45"/>
      <point x="-27" y="123" type="curve" smooth="yes"/>
      <point x="-20" y="174"/>
      <point x="-8" y="220"/>
      <point x="14" y="275" type="curve" smooth="yes"/>
      <point x="82" y="430"/>
      <point x="192" y="558"/>
      <point x="261" y="558" type="curve" smooth="yes"/>
      <point x="310" y="558"/>
      <point x="324" y="524"/>
      <point x="318" y="485" type="curve" smooth="yes"/>
      <point x="313" y="449"/>
      <point x="293" y="408"/>
      <point x="266" y="382" type="curve"/>
      <point x="267" y="379" type="line"/>
      <point x="297" y="407"/>
      <point x="321" y="449"/>
      <point x="326" y="485" type="curve" smooth="yes"/>
      <point x="332" y="527"/>
      <point x="312" y="563"/>
      <point x="261" y="563" type="curve" smooth="yes"/>
      <point x="183" y="563"/>
      <point x="65" y="438"/>
      <point x="-1" y="280" type="curve" smooth="yes"/>
      <point x="-21" y="227"/>
      <point x="-36" y="181"/>
      <point x="-43" y="131" type="curve" smooth="yes"/>
      <point x="-54" y="46"/>
      <point x="-28" y="-12"/>
      <point x="18" y="-12" type="curve" smooth="yes"/>
      <point x="64" y="-12"/>
      <point x="143" y="51"/>
      <point x="194" y="138" type="curve"/>
      <point x="117" y="-68"/>
      <point x="242" y="-223"/>
      <point x="415" y="-223" type="curve" smooth="yes"/>
      <point x="589" y="-223"/>
      <point x="825" y="-44"/>
      <point x="870" y="196" type="curve" smooth="yes"/>
      <point x="888" y="291"/>
      <point x="862" y="420"/>
      <point x="746" y="420" type="curve" smooth="yes"/>
      <point x="643" y="420"/>
      <point x="514" y="310"/>
      <point x="487" y="164" type="curve" smooth="yes"/>
      <point x="472" y="82"/>
      <point x="496" y="12"/>
      <point x="549" y="-19" type="curve"/>
      <point x="550" y="-15" type="line"/>
      <point x="502" y="16"/>
      <point x="481" y="82"/>
      <point x="495" y="162" type="curve" smooth="yes"/>
      <point x="523" y="307"/>
      <point x="648" y="416"/>
      <point x="745" y="416" type="curve" smooth="yes"/>
      <point x="858" y="416"/>
      <point x="875" y="302"/>
      <point x="857" y="206" type="curve" smooth="yes"/>
      <point x="813" y="-35"/>
      <point x="593" y="-219"/>
      <point x="415" y="-219" type="curve" smooth="yes"/>
      <point x="257" y="-219"/>
      <point x="117" y="-74"/>
      <point x="212" y="152" type="curve" smooth="yes"/>
      <point x="595" y="971" type="line"/>
    </contour>
  </outline>
</glyph>
<glyph name="e.9" format="2">
  <advance width="509"/>
  <outline>
    <contour>
      <point x="155" y="-142" type="curve" smooth="yes"/>
      <point x="283" y="-142"/>
      <point x="408" y="-30"/>
      <point x="408" y="103" type="curve" smooth="yes"/>
      <point x="408" y="178"/>
      <point x="347" y="231"/>
      <point x="279" y="231" type="curve" smooth="yes"/>
      <point x="192" y="231"/>
      <point x="125" y="159"/>
      <point x="125" y="87" type="curve" smooth="yes"/>
      <point x="125" y="70"/>
      <point x="133" y="57"/>
      <point x="143" y="42" type="curve"/>
      <point x="147" y="44" type="line"/>
      <point x="139" y="57"/>
      <point x="135" y="70"/>
      <point x="135" y="84" type="curve" smooth="yes"/>
      <point x="135" y="156"/>
      <point x="192" y="226"/>
      <point x="278" y="226" type="curve" smooth="yes"/>
      <point x="339" y="226"/>
      <point x="394" y="188"/>
      <point x="394" y="104" type="curve" smooth="yes"/>
      <point x="394" y="-26"/>
      <point x="279" y="-138"/>
      <point x="161" y="-138" type="curve" smooth="yes"/>
      <point x="35" y="-138"/>
      <point x="-30" y="-22"/>
      <point x="-30" y="81" type="curve" smooth="yes"/>
      <point x="-30" y="137"/>
      <point x="-17" y="179"/>
      <point x="-5" y="218" type="curve" smooth="yes"/>
      <point x="9" y="264"/>
      <point x="25" y="308"/>
      <point x="49" y="349" type="curve"/>
      <point x="50" y="326"/>
      <point x="77" y="292"/>
      <point x="124" y="292" type="curve" smooth="yes"/>
      <point x="208" y="292"/>
      <point x="321" y="412"/>
      <point x="321" y="502" type="curve" smooth="yes"/>
      <point x="321" y="532"/>
      <point x="302" y="563"/>
      <point x="267" y="563" type="curve" smooth="yes"/>
      <point x="162" y="563"/>
      <point x="-39" y="330"/>
      <point x="-39" y="94" type="curve" smooth="yes"/>
      <point x="-39" y="-21"/>
      <point x="35" y="-142"/>
    </contour>
    <contour>
      <point x="310" y="498" type="curve" smooth="yes"/>
      <point x="299" y="404"/>
      <point x="197" y="297"/>
      <point x="119" y="297" type="curve" smooth="yes"/>
      <point x="78" y="297"/>
      <point x="53" y="330"/>
      <point x="53" y="351" type="curve"/>
      <point x="50" y="351" type="line"/>
      <point x="114" y="469"/>
      <point x="207" y="558"/>
      <point x="266" y="558" type="curve" smooth="yes"/>
      <point x="300" y="558"/>
      <point x="313" y="530"/>
    </contour>
  </outline>
</glyph>
<glyph name="f.6" format="2">
  <advance width="162"/>
  <outline>
    <contour>
      <point x="-67" y="81" type="curve" smooth="yes"/>
      <point x="-74" y="81" type="line"/>
      <point x="-55" y="125" type="line" smooth="yes"/>
      <point x="53" y="377"/>
      <point x="207" y="732"/>
      <point x="373" y="890" type="curve" smooth="yes"/>
      <point x="425" y="937"/>
      <point x="496" y="976"/>
      <point x="554" y="957" type="curve" smooth="yes"/>
      <point x="569" y="952"/>
      <point x="573" y="967"/>
      <point x="561" y="970" type="curve" smooth="yes"/>
      <point x="508" y="983"/>
      <point x="426" y="945"/>
      <point x="371" y="893" type="curve" smooth="yes"/>
      <point x="202" y="733"/>
      <point x="40" y="374"/>
      <point x="-72" y="128" type="curve" smooth="yes"/>
      <point x="-92" y="83" type="line"/>
      <point x="-119" y="88"/>
      <point x="-139" y="102"/>
      <point x="-141" y="127" type="curve"/>
      <point x="-145" y="127" type="line"/>
      <point x="-143" y="100"/>
      <point x="-124" y="84"/>
      <point x="-95" y="78" type="curve"/>
      <point x="-190" y="-125"/>
      <point x="-353" y="-453"/>
      <point x="-555" y="-438" type="curve" smooth="yes"/>
      <point x="-600" y="-435"/>
      <point x="-624" y="-403"/>
      <point x="-619" y="-364" type="curve"/>
      <point x="-618" y="-344"/>
      <point x="-606" y="-307"/>
      <point x="-581" y="-304" type="curve"/>
      <point x="-584" y="-303" type="line"/>
      <point x="-608" y="-306"/>
      <point x="-628" y="-338"/>
      <point x="-630" y="-357" type="curve" smooth="yes"/>
      <point x="-634" y="-398"/>
      <point x="-608" y="-438"/>
      <point x="-556" y="-442" type="curve" smooth="yes"/>
      <point x="-437" y="-451"/>
      <point x="-338" y="-375"/>
      <point x="-256" y="-261" type="curve" smooth="yes"/>
      <point x="-186" y="-164"/>
      <point x="-128" y="-41"/>
      <point x="-76" y="76" type="curve"/>
      <point x="-67" y="76" type="line" smooth="yes"/>
      <point x="28" y="76"/>
      <point x="105" y="164"/>
      <point x="165" y="280" type="curve"/>
      <point x="162" y="282" type="line"/>
      <point x="103" y="172"/>
      <point x="26" y="81"/>
    </contour>
  </outline>
</glyph>
<glyph name="f.7" format="2">
  <advance width="215"/>
  <outline>
    <contour>
      <point x="18" y="483" type="line"/>
      <point x="93" y="483" type="line"/>
      <point x="45" y="388"/>
      <point x="0" y="290"/>
      <point x="-39" y="202" type="curve" smooth="yes"/>
      <point x="-100" y="61"/>
      <point x="-231" y="-178"/>
      <point x="-430" y="-349" type="curve"/>
      <point x="-532" y="-300" type="line" smooth="yes"/>
      <point x="-727" y="-210"/>
      <point x="-910" y="-123"/>
      <point x="-1088" y="-123" type="curve" smooth="yes"/>
      <point x="-1241" y="-123"/>
      <point x="-1327" y="-211"/>
      <point x="-1327" y="-308" type="curve" smooth="yes"/>
      <point x="-1327" y="-425"/>
      <point x="-1192" y="-554"/>
      <point x="-919" y="-554" type="curve" smooth="yes"/>
      <point x="-718" y="-554"/>
      <point x="-551" y="-474"/>
      <point x="-417" y="-361" type="curve"/>
      <point x="-191" y="-472"/>
      <point x="43" y="-590"/>
      <point x="268" y="-590" type="curve" smooth="yes"/>
      <point x="570" y="-590"/>
      <point x="724" y="-406"/>
      <point x="724" y="-263" type="curve" smooth="yes"/>
      <point x="724" y="-209"/>
      <point x="690" y="-139"/>
      <point x="614" y="-139" type="curve" smooth="yes"/>
      <point x="611" y="-139"/>
      <point x="609" y="-140"/>
      <point x="606" y="-140" type="curve"/>
      <point x="606" y="-143" type="line"/>
      <point x="611" y="-143" type="line" smooth="yes"/>
      <point x="684" y="-143"/>
      <point x="714" y="-206"/>
      <point x="714" y="-257" type="curve" smooth="yes"/>
      <point x="714" y="-398"/>
      <point x="551" y="-580"/>
      <point x="251" y="-580" type="curve" smooth="yes"/>
      <point x="38" y="-580"/>
      <point x="-188" y="-469"/>
      <point x="-413" y="-358" type="curve"/>
      <point x="-223" y="-197"/>
      <point x="-96" y="28"/>
      <point x="-30" y="184" type="curve" smooth="yes"/>
      <point x="10" y="278"/>
      <point x="55" y="382"/>
      <point x="105" y="483" type="curve"/>
      <point x="253" y="483" type="line"/>
      <point x="253" y="487" type="line"/>
      <point x="107" y="487" type="line"/>
      <point x="120" y="513"/>
      <point x="132" y="538"/>
      <point x="146" y="564" type="curve"/>
      <point x="159" y="562"/>
      <point x="172" y="562"/>
      <point x="186" y="562" type="curve" smooth="yes"/>
      <point x="424" y="562"/>
      <point x="615" y="778"/>
      <point x="628" y="895" type="curve" smooth="yes"/>
      <point x="635" y="949"/>
      <point x="598" y="996"/>
      <point x="550" y="996" type="curve" smooth="yes"/>
      <point x="409" y="996"/>
      <point x="263" y="799"/>
      <point x="138" y="569" type="curve"/>
      <point x="7" y="586"/>
      <point x="-86" y="673"/>
      <point x="-71" y="804" type="curve" smooth="yes"/>
      <point x="-58" y="929"/>
      <point x="39" y="1019"/>
      <point x="144" y="1019" type="curve" smooth="yes"/>
      <point x="218" y="1019"/>
      <point x="276" y="963"/>
      <point x="268" y="898" type="curve" smooth="yes"/>
      <point x="261" y="838"/>
      <point x="220" y="777"/>
      <point x="142" y="777" type="curve" smooth="yes"/>
      <point x="128" y="777"/>
      <point x="90" y="777"/>
      <point x="76" y="802" type="curve"/>
      <point x="71" y="800" type="line"/>
      <point x="88" y="773"/>
      <point x="128" y="773"/>
      <point x="142" y="773" type="curve" smooth="yes"/>
      <point x="225" y="773"/>
      <point x="271" y="835"/>
      <point x="277" y="896" type="curve" smooth="yes"/>
      <point x="286" y="964"/>
      <point x="224" y="1023"/>
      <point x="145" y="1023" type="curve" smooth="yes"/>
      <point x="33" y="1023"/>
      <point x="-71" y="932"/>
      <point x="-85" y="806" type="curve" smooth="yes"/>
      <point x="-100" y="672"/>
      <point x="-1" y="583"/>
      <point x="136" y="565" type="curve"/>
      <point x="95" y="487" type="line"/>
      <point x="18" y="487" type="line"/>
    </contour>
    <contour>
      <point x="-926" y="-549" type="curve" smooth="yes"/>
      <point x="-1190" y="-549"/>
      <point x="-1309" y="-425"/>
      <point x="-1309" y="-312" type="curve" smooth="yes"/>
      <point x="-1309" y="-217"/>
      <point x="-1225" y="-131"/>
      <point x="-1074" y="-131" type="curve" smooth="yes"/>
      <point x="-907" y="-131"/>
      <point x="-721" y="-218"/>
      <point x="-535" y="-305" type="curve" smooth="yes"/>
      <point x="-502" y="-320"/>
      <point x="-468" y="-336"/>
      <point x="-434" y="-353" type="curve"/>
      <point x="-568" y="-466"/>
      <point x="-732" y="-549"/>
    </contour>
    <contour>
      <point x="548" y="992" type="curve" smooth="yes"/>
      <point x="589" y="992"/>
      <point x="625" y="955"/>
      <point x="620" y="903" type="curve" smooth="yes"/>
      <point x="607" y="788"/>
      <point x="422" y="566"/>
      <point x="186" y="566" type="curve" smooth="yes"/>
      <point x="173" y="566"/>
      <point x="160" y="567"/>
      <point x="148" y="568" type="curve"/>
      <point x="268" y="797"/>
      <point x="408" y="992"/>
    </contour>
  </outline>
</glyph>
<glyph name="f.999" format="2">
  <advance width="215"/>
  <outline>
    <contour>
      <point x="67" y="529" type="line"/>
      <point x="78" y="516"/>
      <point x="89" y="503"/>
      <point x="101" y="492" type="curve"/>
      <point x="36" y="366"/>
      <point x="-22" y="236"/>
      <point x="-72" y="128" type="curve" smooth="yes"/>
      <point x="-121" y="23"/>
      <point x="-194" y="-139"/>
      <point x="-286" y="-263" type="curve" smooth="yes"/>
      <point x="-303" y="-286"/>
      <point x="-320" y="-307"/>
      <point x="-338" y="-327" type="curve"/>
      <point x="-359" y="-333"/>
      <point x="-380" y="-338"/>
      <point x="-401" y="-343" type="curve" smooth="yes"/>
      <point x="-482" y="-360"/>
      <point x="-595" y="-388"/>
      <point x="-595" y="-421" type="curve" smooth="yes"/>
      <point x="-595" y="-433"/>
      <point x="-573" y="-441"/>
      <point x="-556" y="-442" type="curve" smooth="yes"/>
      <point x="-463" y="-449"/>
      <point x="-381" y="-399"/>
      <point x="-311" y="-323" type="curve"/>
      <point x="-34" y="-229"/>
      <point x="222" y="1"/>
      <point x="222" y="265" type="curve" smooth="yes"/>
      <point x="222" y="320"/>
      <point x="201" y="398"/>
      <point x="157" y="446" type="curve"/>
      <point x="240" y="387"/>
      <point x="335" y="360"/>
      <point x="422" y="360" type="curve" smooth="yes"/>
      <point x="582" y="360"/>
      <point x="680" y="456"/>
      <point x="688" y="561" type="curve" smooth="yes"/>
      <point x="694" y="642"/>
      <point x="642" y="700"/>
      <point x="562" y="700" type="curve" smooth="yes"/>
      <point x="514" y="700"/>
      <point x="457" y="670"/>
      <point x="453" y="611" type="curve" smooth="yes"/>
      <point x="451" y="586"/>
      <point x="462" y="561"/>
      <point x="484" y="554" type="curve"/>
      <point x="487" y="558" type="line"/>
      <point x="469" y="565"/>
      <point x="461" y="588"/>
      <point x="463" y="611" type="curve" smooth="yes"/>
      <point x="467" y="668"/>
      <point x="519" y="696"/>
      <point x="562" y="696" type="curve" smooth="yes"/>
      <point x="635" y="696"/>
      <point x="680" y="641"/>
      <point x="674" y="563" type="curve" smooth="yes"/>
      <point x="666" y="460"/>
      <point x="571" y="367"/>
      <point x="413" y="367" type="curve" smooth="yes"/>
      <point x="314" y="367"/>
      <point x="197" y="406"/>
      <point x="109" y="490" type="curve"/>
      <point x="189" y="651"/>
      <point x="279" y="802"/>
      <point x="374" y="890" type="curve" smooth="yes"/>
      <point x="425" y="938"/>
      <point x="496" y="976"/>
      <point x="554" y="957" type="curve" smooth="yes"/>
      <point x="569" y="952"/>
      <point x="573" y="967"/>
      <point x="561" y="970" type="curve" smooth="yes"/>
      <point x="508" y="983"/>
      <point x="426" y="945"/>
      <point x="371" y="893" type="curve" smooth="yes"/>
      <point x="277" y="804"/>
      <point x="185" y="653"/>
      <point x="103" y="495" type="curve"/>
      <point x="91" y="507"/>
      <point x="80" y="520"/>
      <point x="69" y="534" type="curve"/>
    </contour>
    <contour>
      <point x="-255" y="-253" type="curve" smooth="yes"/>
      <point x="-175" y="-143"/>
      <point x="-114" y="-4"/>
      <point x="-56" y="126" type="curve" smooth="yes"/>
      <point x="-10" y="232"/>
      <point x="43" y="356"/>
      <point x="102" y="477" type="curve"/>
      <point x="175" y="449"/>
      <point x="210" y="348"/>
      <point x="210" y="285" type="curve" smooth="yes"/>
      <point x="210" y="14"/>
      <point x="-45" y="-224"/>
      <point x="-305" y="-316" type="curve"/>
      <point x="-287" y="-296"/>
      <point x="-271" y="-275"/>
    </contour>
    <contour>
      <point x="-553" y="-438" type="curve"/>
      <point x="-560" y="-438"/>
      <point x="-575" y="-432"/>
      <point x="-575" y="-421" type="curve" smooth="yes"/>
      <point x="-575" y="-391"/>
      <point x="-471" y="-364"/>
      <point x="-400" y="-348" type="curve" smooth="yes"/>
      <point x="-344" y="-333" type="line"/>
      <point x="-408" y="-399"/>
      <point x="-478" y="-443"/>
    </contour>
  </outline>
</glyph>
<glyph name="g.7" format="2">
  <advance width="446"/>
  <outline>
    <contour>
      <point x="273" y="558" type="curve" smooth="yes"/>
      <point x="318" y="558"/>
      <point x="332" y="529"/>
      <point x="326" y="495" type="curve"/>
      <point x="328" y="495" type="line"/>
      <point x="334" y="532"/>
      <point x="323" y="563"/>
      <point x="273" y="563" type="curve" smooth="yes"/>
      <point x="189" y="563"/>
      <point x="65" y="438"/>
      <point x="-1" y="280" type="curve" smooth="yes"/>
      <point x="-21" y="227"/>
      <point x="-36" y="181"/>
      <point x="-43" y="131" type="curve" smooth="yes"/>
      <point x="-54" y="54"/>
      <point x="-27" y="5"/>
      <point x="17" y="5" type="curve" smooth="yes"/>
      <point x="65" y="5"/>
      <point x="137" y="76"/>
      <point x="204" y="164" type="curve"/>
      <point x="129" y="-8"/>
      <point x="23" y="-209"/>
      <point x="-136" y="-353" type="curve"/>
      <point x="-239" y="-300" type="line" smooth="yes"/>
      <point x="-434" y="-210"/>
      <point x="-617" y="-123"/>
      <point x="-795" y="-123" type="curve" smooth="yes"/>
      <point x="-948" y="-123"/>
      <point x="-1034" y="-211"/>
      <point x="-1034" y="-308" type="curve" smooth="yes"/>
      <point x="-1034" y="-422"/>
      <point x="-907" y="-547"/>
      <point x="-650" y="-554" type="curve" smooth="yes"/>
      <point x="-626" y="-554" type="line" smooth="yes"/>
      <point x="-414" y="-554"/>
      <point x="-252" y="-482"/>
      <point x="-127" y="-370" type="curve"/>
      <point x="-123" y="-366" type="line"/>
      <point x="68" y="-462"/>
      <point x="288" y="-564"/>
      <point x="467" y="-564" type="curve" smooth="yes"/>
      <point x="769" y="-564"/>
      <point x="923" y="-380"/>
      <point x="923" y="-237" type="curve" smooth="yes"/>
      <point x="923" y="-183"/>
      <point x="889" y="-113"/>
      <point x="813" y="-113" type="curve" smooth="yes"/>
      <point x="810" y="-113"/>
      <point x="808" y="-114"/>
      <point x="805" y="-114" type="curve"/>
      <point x="805" y="-117" type="line"/>
      <point x="810" y="-117" type="line" smooth="yes"/>
      <point x="883" y="-117"/>
      <point x="913" y="-180"/>
      <point x="913" y="-231" type="curve" smooth="yes"/>
      <point x="913" y="-372"/>
      <point x="750" y="-554"/>
      <point x="450" y="-554" type="curve" smooth="yes"/>
      <point x="283" y="-554"/>
      <point x="71" y="-459"/>
      <point x="-119" y="-362" type="curve"/>
      <point x="45" y="-210"/>
      <point x="147" y="7"/>
      <point x="227" y="194" type="curve"/>
      <point x="280" y="267"/>
      <point x="326" y="345"/>
      <point x="352" y="401" type="curve" smooth="yes"/>
      <point x="395" y="492"/>
      <point x="425" y="565"/>
      <point x="405" y="565" type="curve" smooth="yes"/>
      <point x="389" y="565"/>
      <point x="351" y="517"/>
      <point x="289" y="377" type="curve" smooth="yes"/>
      <point x="280" y="357" type="line" smooth="yes"/>
      <point x="261" y="310"/>
      <point x="240" y="248"/>
      <point x="215" y="189" type="curve"/>
      <point x="214" y="188"/>
      <point x="214" y="187"/>
      <point x="214" y="186" type="curve"/>
      <point x="144" y="92"/>
      <point x="66" y="10"/>
      <point x="17" y="10" type="curve" smooth="yes"/>
      <point x="-22" y="10"/>
      <point x="-37" y="53"/>
      <point x="-27" y="123" type="curve" smooth="yes"/>
      <point x="-20" y="174"/>
      <point x="-8" y="220"/>
      <point x="14" y="275" type="curve"/>
      <point x="88" y="430"/>
      <point x="198" y="558"/>
    </contour>
    <contour>
      <point x="-650" y="-549" type="line" smooth="yes"/>
      <point x="-902" y="-544"/>
      <point x="-1016" y="-423"/>
      <point x="-1016" y="-312" type="curve" smooth="yes"/>
      <point x="-1016" y="-217"/>
      <point x="-932" y="-131"/>
      <point x="-781" y="-131" type="curve" smooth="yes"/>
      <point x="-614" y="-131"/>
      <point x="-428" y="-218"/>
      <point x="-242" y="-305" type="curve" smooth="yes"/>
      <point x="-209" y="-321"/>
      <point x="-175" y="-339"/>
      <point x="-140" y="-357" type="curve"/>
      <point x="-267" y="-470"/>
      <point x="-427" y="-549"/>
      <point x="-633" y="-549" type="curve" smooth="yes"/>
    </contour>
    <contour>
      <point x="405" y="560" type="curve" smooth="yes"/>
      <point x="419" y="560"/>
      <point x="391" y="492"/>
      <point x="348" y="404" type="curve" smooth="yes"/>
      <point x="325" y="355"/>
      <point x="284" y="286"/>
      <point x="238" y="220" type="curve"/>
      <point x="258" y="268"/>
      <point x="278" y="315"/>
      <point x="297" y="357" type="curve" smooth="yes"/>
      <point x="304" y="372" type="line" smooth="yes"/>
      <point x="382" y="536"/>
      <point x="397" y="560"/>
    </contour>
    <contour>
      <point x="235" y="13" type="line"/>
      <point x="318" y="81"/>
      <point x="395" y="167"/>
      <point x="449" y="280" type="curve"/>
      <point x="446" y="282" type="line"/>
      <point x="392" y="169"/>
      <point x="314" y="83"/>
      <point x="231" y="15" type="curve"/>
    </contour>
  </outline>
</glyph>
<glyph name="g.baja" format="2">
  <advance width="446"/>
  <outline>
    <contour>
      <point x="273" y="558" type="curve"/>
      <point x="318" y="558"/>
      <point x="332" y="529"/>
      <point x="326" y="495" type="curve"/>
      <point x="328" y="495" type="line"/>
      <point x="334" y="532"/>
      <point x="323" y="563"/>
      <point x="273" y="563" type="curve"/>
      <point x="160" y="575"/>
      <point x="-33" y="307"/>
      <point x="-33" y="150" type="curve" smooth="yes"/>
      <point x="-33" y="85"/>
      <point x="-8" y="43"/>
      <point x="29" y="43" type="curve" smooth="yes"/>
      <point x="87" y="43"/>
      <point x="168" y="135"/>
      <point x="237" y="232" type="curve"/>
      <point x="231" y="212"/>
      <point x="224" y="192"/>
      <point x="217" y="172" type="curve" smooth="yes"/>
      <point x="199" y="123"/>
      <point x="179" y="75"/>
      <point x="158" y="30" type="curve"/>
      <point x="140" y="23" type="line" smooth="yes"/>
      <point x="45" y="-16"/>
      <point x="-58" y="-43"/>
      <point x="-117" y="-77" type="curve" smooth="yes"/>
      <point x="-158" y="-100"/>
      <point x="-184" y="-125"/>
      <point x="-184" y="-159" type="curve" smooth="yes"/>
      <point x="-184" y="-191"/>
      <point x="-155" y="-215"/>
      <point x="-111" y="-215" type="curve" smooth="yes"/>
      <point x="-39" y="-215"/>
      <point x="76" y="-159"/>
      <point x="149" y="-24" type="curve" smooth="yes"/>
      <point x="159" y="-6"/>
      <point x="168" y="14"/>
      <point x="176" y="35" type="curve"/>
      <point x="288" y="85"/>
      <point x="395" y="158"/>
      <point x="449" y="280" type="curve"/>
      <point x="446" y="282" type="line"/>
      <point x="394" y="164"/>
      <point x="289" y="90"/>
      <point x="178" y="39" type="curve"/>
      <point x="207" y="108"/>
      <point x="230" y="188"/>
      <point x="255" y="258" type="curve"/>
      <point x="293" y="313"/>
      <point x="326" y="368"/>
      <point x="348" y="408" type="curve" smooth="yes"/>
      <point x="396" y="496"/>
      <point x="427" y="565"/>
      <point x="405" y="565" type="curve" smooth="yes"/>
      <point x="389" y="565"/>
      <point x="346" y="520"/>
      <point x="280" y="357" type="curve" smooth="yes"/>
      <point x="266" y="324"/>
      <point x="255" y="287"/>
      <point x="242" y="248" type="curve"/>
      <point x="172" y="147"/>
      <point x="87" y="48"/>
      <point x="29" y="48" type="curve" smooth="yes"/>
      <point x="-2" y="48"/>
      <point x="-18" y="82"/>
      <point x="-18" y="136" type="curve" smooth="yes"/>
      <point x="-18" y="294"/>
      <point x="171" y="568"/>
    </contour>
    <contour>
      <point x="131" y="-23" type="line" smooth="yes"/>
      <point x="63" y="-152"/>
      <point x="-39" y="-210"/>
      <point x="-104" y="-210" type="curve" smooth="yes"/>
      <point x="-145" y="-210"/>
      <point x="-168" y="-191"/>
      <point x="-168" y="-159" type="curve" smooth="yes"/>
      <point x="-168" y="-142"/>
      <point x="-161" y="-125"/>
      <point x="-149" y="-111" type="curve" smooth="yes"/>
      <point x="-102" y="-60"/>
      <point x="27" y="-29"/>
      <point x="155" y="26" type="curve"/>
    </contour>
    <contour>
      <point x="405" y="560" type="curve" smooth="yes"/>
      <point x="419" y="560"/>
      <point x="392" y="497"/>
      <point x="344" y="411" type="curve" smooth="yes"/>
      <point x="325" y="378"/>
      <point x="297" y="330"/>
      <point x="264" y="280" type="curve"/>
      <point x="274" y="308"/>
      <point x="285" y="334"/>
      <point x="297" y="357" type="curve"/>
      <point x="372" y="530"/>
      <point x="397" y="560"/>
    </contour>
  </outline>
</glyph>
<glyph name="h.3" format="2">
  <advance width="401"/>
  <outline>
    <contour>
      <point x="-125" y="-1" type="line"/>
      <point x="-47" y="158" type="line"/>
      <point x="-32" y="188" type="line" smooth="yes"/>
      <point x="37" y="325"/>
      <point x="196" y="560"/>
      <point x="275" y="560" type="curve" smooth="yes"/>
      <point x="297" y="560"/>
      <point x="325" y="548"/>
      <point x="318" y="493" type="curve" smooth="yes"/>
      <point x="310" y="423"/>
      <point x="262" y="371"/>
      <point x="222" y="306" type="curve" smooth="yes"/>
      <point x="177" y="235"/>
      <point x="142" y="167"/>
      <point x="133" y="92" type="curve" smooth="yes"/>
      <point x="128" y="43"/>
      <point x="150" y="0"/>
      <point x="179" y="0" type="curve" smooth="yes"/>
      <point x="248" y="0"/>
      <point x="343" y="146"/>
      <point x="404" y="280" type="curve"/>
      <point x="401" y="282" type="line"/>
      <point x="342" y="154"/>
      <point x="247" y="5"/>
      <point x="180" y="5" type="curve" smooth="yes"/>
      <point x="154" y="5"/>
      <point x="135" y="39"/>
      <point x="141" y="86" type="curve" smooth="yes"/>
      <point x="150" y="164"/>
      <point x="194" y="227"/>
      <point x="240" y="299" type="curve" smooth="yes"/>
      <point x="279" y="358"/>
      <point x="318" y="434"/>
      <point x="325" y="490" type="curve" smooth="yes"/>
      <point x="332" y="545"/>
      <point x="299" y="565"/>
      <point x="275" y="565" type="curve" smooth="yes"/>
      <point x="208" y="565"/>
      <point x="91" y="411"/>
      <point x="12" y="278" type="curve"/>
      <point x="35" y="325" type="line" smooth="yes"/>
      <point x="75" y="405"/>
      <point x="111" y="510"/>
      <point x="152" y="614" type="curve"/>
      <point x="162" y="613"/>
      <point x="171" y="613"/>
      <point x="181" y="613" type="curve" smooth="yes"/>
      <point x="419" y="613"/>
      <point x="587" y="831"/>
      <point x="601" y="948" type="curve" smooth="yes"/>
      <point x="608" y="1002"/>
      <point x="571" y="1056"/>
      <point x="521" y="1059" type="curve" smooth="yes"/>
      <point x="477" y="1062"/>
      <point x="430" y="1053"/>
      <point x="382" y="1018" type="curve" smooth="yes"/>
      <point x="270" y="936"/>
      <point x="197" y="777"/>
      <point x="136" y="620" type="curve"/>
      <point x="2" y="636"/>
      <point x="-96" y="727"/>
      <point x="-81" y="859" type="curve" smooth="yes"/>
      <point x="-68" y="984"/>
      <point x="29" y="1074"/>
      <point x="134" y="1074" type="curve" smooth="yes"/>
      <point x="201" y="1074"/>
      <point x="252" y="1021"/>
      <point x="244" y="959" type="curve" smooth="yes"/>
      <point x="237" y="901"/>
      <point x="198" y="842"/>
      <point x="122" y="842" type="curve" smooth="yes"/>
      <point x="108" y="842"/>
      <point x="70" y="842"/>
      <point x="56" y="867" type="curve"/>
      <point x="51" y="865" type="line"/>
      <point x="68" y="838"/>
      <point x="108" y="838"/>
      <point x="122" y="838" type="curve" smooth="yes"/>
      <point x="203" y="838"/>
      <point x="247" y="898"/>
      <point x="253" y="957" type="curve" smooth="yes"/>
      <point x="262" y="1022"/>
      <point x="207" y="1078"/>
      <point x="135" y="1078" type="curve" smooth="yes"/>
      <point x="23" y="1078"/>
      <point x="-81" y="987"/>
      <point x="-95" y="861" type="curve" smooth="yes"/>
      <point x="-110" y="726"/>
      <point x="-5" y="633"/>
      <point x="135" y="616" type="curve"/>
      <point x="92" y="504"/>
      <point x="55" y="394"/>
      <point x="15" y="313" type="curve" smooth="yes"/>
      <point x="-143" y="-1" type="line"/>
    </contour>
    <contour>
      <point x="519" y="1055" type="curve" smooth="yes"/>
      <point x="562" y="1052"/>
      <point x="598" y="1011"/>
      <point x="593" y="959" type="curve" smooth="yes"/>
      <point x="580" y="844"/>
      <point x="417" y="617"/>
      <point x="181" y="617" type="curve" smooth="yes"/>
      <point x="172" y="617"/>
      <point x="163" y="617"/>
      <point x="154" y="618" type="curve"/>
      <point x="214" y="772"/>
      <point x="285" y="925"/>
      <point x="389" y="1006" type="curve" smooth="yes"/>
      <point x="440" y="1047"/>
      <point x="479" y="1057"/>
    </contour>
  </outline>
</glyph>
<glyph name="h.77.6" format="2">
  <advance width="365"/>
  <outline>
    <contour>
      <point x="268" y="279" type="curve" smooth="yes"/>
      <point x="298" y="343"/>
      <point x="333" y="455"/>
      <point x="333" y="510" type="curve" smooth="yes"/>
      <point x="333" y="551"/>
      <point x="309" y="565"/>
      <point x="288" y="565" type="curve" smooth="yes"/>
      <point x="211" y="565"/>
      <point x="84" y="394"/>
      <point x="4" y="257" type="curve"/>
      <point x="334" y="971" type="line"/>
      <point x="317" y="971" type="line"/>
      <point x="-128" y="7" type="line"/>
      <point x="-111" y="7" type="line"/>
      <point x="-29" y="184" type="line" smooth="yes"/>
      <point x="40" y="321"/>
      <point x="201" y="560"/>
      <point x="288" y="560" type="curve" smooth="yes"/>
      <point x="307" y="560"/>
      <point x="326" y="550"/>
      <point x="326" y="514" type="curve" smooth="yes"/>
      <point x="326" y="440"/>
      <point x="282" y="348"/>
      <point x="248" y="276" type="curve" smooth="yes"/>
      <point x="168" y="91"/>
      <point x="20" y="-224"/>
      <point x="-158" y="-392" type="curve" smooth="yes"/>
      <point x="-161" y="-395" type="line"/>
      <point x="-264" y="-341" type="line"/>
      <point x="-459" y="-251"/>
      <point x="-642" y="-164"/>
      <point x="-820" y="-164" type="curve" smooth="yes"/>
      <point x="-973" y="-164"/>
      <point x="-1059" y="-252"/>
      <point x="-1059" y="-349" type="curve" smooth="yes"/>
      <point x="-1059" y="-463"/>
      <point x="-932" y="-588"/>
      <point x="-675" y="-595" type="curve" smooth="yes"/>
      <point x="-651" y="-595" type="line" smooth="yes"/>
      <point x="-439" y="-595"/>
      <point x="-279" y="-520"/>
      <point x="-152" y="-411" type="curve" smooth="yes"/>
      <point x="-147" y="-407" type="line"/>
      <point x="43" y="-504"/>
      <point x="263" y="-605"/>
      <point x="442" y="-605" type="curve" smooth="yes"/>
      <point x="744" y="-605"/>
      <point x="898" y="-421"/>
      <point x="898" y="-278" type="curve" smooth="yes"/>
      <point x="898" y="-224"/>
      <point x="864" y="-154"/>
      <point x="788" y="-154" type="curve" smooth="yes"/>
      <point x="785" y="-154"/>
      <point x="783" y="-155"/>
      <point x="780" y="-155" type="curve"/>
      <point x="780" y="-158" type="line"/>
      <point x="785" y="-158" type="line" smooth="yes"/>
      <point x="858" y="-158"/>
      <point x="888" y="-221"/>
      <point x="888" y="-272" type="curve" smooth="yes"/>
      <point x="888" y="-413"/>
      <point x="725" y="-595"/>
      <point x="425" y="-595" type="curve" smooth="yes"/>
      <point x="258" y="-595"/>
      <point x="46" y="-501"/>
      <point x="-143" y="-404" type="curve"/>
      <point x="13" y="-262"/>
      <point x="191" y="100"/>
    </contour>
    <contour>
      <point x="-675" y="-590" type="line" smooth="yes"/>
      <point x="-927" y="-585"/>
      <point x="-1041" y="-464"/>
      <point x="-1041" y="-353" type="curve" smooth="yes"/>
      <point x="-1041" y="-258"/>
      <point x="-957" y="-172"/>
      <point x="-806" y="-172" type="curve" smooth="yes"/>
      <point x="-639" y="-172"/>
      <point x="-453" y="-259"/>
      <point x="-267" y="-346" type="curve" smooth="yes"/>
      <point x="-234" y="-362"/>
      <point x="-200" y="-380"/>
      <point x="-165" y="-398" type="curve"/>
      <point x="-299" y="-522"/>
      <point x="-471" y="-590"/>
      <point x="-658" y="-590" type="curve" smooth="yes"/>
    </contour>
  </outline>
</glyph>
<glyph name="h.99" format="2">
  <advance width="617"/>
  <outline>
    <contour>
      <point x="-111" y="7" type="line"/>
      <point x="-29" y="184" type="line" smooth="yes"/>
      <point x="40" y="321"/>
      <point x="201" y="560"/>
      <point x="281" y="560" type="curve" smooth="yes"/>
      <point x="303" y="560"/>
      <point x="331" y="548"/>
      <point x="324" y="493" type="curve" smooth="yes"/>
      <point x="316" y="423"/>
      <point x="268" y="371"/>
      <point x="228" y="306" type="curve" smooth="yes"/>
      <point x="205" y="269"/>
      <point x="182" y="230"/>
      <point x="151" y="163" type="curve" smooth="yes"/>
      <point x="64" y="-26"/>
      <point x="149" y="-192"/>
      <point x="294" y="-194" type="curve" smooth="yes"/>
      <point x="422" y="-194"/>
      <point x="547" y="-82"/>
      <point x="547" y="51" type="curve" smooth="yes"/>
      <point x="547" y="126"/>
      <point x="486" y="179"/>
      <point x="418" y="179" type="curve" smooth="yes"/>
      <point x="331" y="179"/>
      <point x="264" y="107"/>
      <point x="264" y="35" type="curve" smooth="yes"/>
      <point x="264" y="18"/>
      <point x="272" y="5"/>
      <point x="282" y="-10" type="curve"/>
      <point x="286" y="-8" type="line"/>
      <point x="278" y="5"/>
      <point x="274" y="18"/>
      <point x="274" y="32" type="curve" smooth="yes"/>
      <point x="274" y="104"/>
      <point x="331" y="174"/>
      <point x="417" y="174" type="curve" smooth="yes"/>
      <point x="478" y="174"/>
      <point x="533" y="136"/>
      <point x="533" y="52" type="curve" smooth="yes"/>
      <point x="533" y="-79"/>
      <point x="420" y="-185"/>
      <point x="303" y="-190" type="curve" smooth="yes"/>
      <point x="152" y="-192"/>
      <point x="82" y="-37"/>
      <point x="160" y="145" type="curve"/>
      <point x="203" y="231"/>
      <point x="223" y="264"/>
      <point x="246" y="299" type="curve" smooth="yes"/>
      <point x="284" y="359"/>
      <point x="324" y="434"/>
      <point x="331" y="490" type="curve" smooth="yes"/>
      <point x="337" y="542"/>
      <point x="307" y="563"/>
      <point x="284" y="565" type="curve"/>
      <point x="281" y="565" type="line" smooth="yes"/>
      <point x="211" y="565"/>
      <point x="84" y="394"/>
      <point x="4" y="257" type="curve"/>
      <point x="334" y="971" type="line"/>
      <point x="317" y="971" type="line"/>
      <point x="-128" y="7" type="line"/>
    </contour>
  </outline>
</glyph>
<glyph name="i.9" format="2">
  <advance width="407"/>
  <outline>
    <contour>
      <point x="144" y="550" type="line"/>
      <point x="123" y="550" type="line"/>
      <point x="0" y="282" type="line"/>
      <point x="-52" y="169" type="line" smooth="yes"/>
      <point x="-119" y="23"/>
      <point x="-39" y="-138"/>
      <point x="106" y="-140" type="curve" smooth="yes"/>
      <point x="234" y="-140"/>
      <point x="359" y="-28"/>
      <point x="359" y="105" type="curve" smooth="yes"/>
      <point x="359" y="180"/>
      <point x="298" y="233"/>
      <point x="230" y="233" type="curve" smooth="yes"/>
      <point x="143" y="233"/>
      <point x="76" y="161"/>
      <point x="76" y="89" type="curve" smooth="yes"/>
      <point x="76" y="72"/>
      <point x="84" y="59"/>
      <point x="94" y="44" type="curve"/>
      <point x="98" y="46" type="line"/>
      <point x="90" y="59"/>
      <point x="86" y="72"/>
      <point x="86" y="86" type="curve" smooth="yes"/>
      <point x="86" y="158"/>
      <point x="143" y="228"/>
      <point x="229" y="228" type="curve" smooth="yes"/>
      <point x="290" y="228"/>
      <point x="345" y="190"/>
      <point x="345" y="106" type="curve" smooth="yes"/>
      <point x="345" y="-25"/>
      <point x="232" y="-131"/>
      <point x="115" y="-136" type="curve" smooth="yes"/>
      <point x="-40" y="-138"/>
      <point x="-110" y="25"/>
      <point x="-39" y="169" type="curve" smooth="yes"/>
    </contour>
    <contour>
      <point x="197" y="735" type="curve"/>
      <point x="195" y="726"/>
      <point x="199" y="717"/>
      <point x="210" y="717" type="curve" smooth="yes"/>
      <point x="220" y="717"/>
      <point x="231" y="724"/>
      <point x="234" y="735" type="curve"/>
      <point x="238" y="746"/>
      <point x="232" y="754"/>
      <point x="222" y="754" type="curve" smooth="yes"/>
      <point x="211" y="754"/>
      <point x="201" y="746"/>
    </contour>
  </outline>
</glyph>
<glyph name="j.baja" format="2">
  <advance width="190"/>
  <outline>
    <contour>
      <point x="29" y="362" type="curve" smooth="yes"/>
      <point x="7" y="308"/>
      <point x="-22" y="215"/>
      <point x="-46" y="150" type="curve" smooth="yes"/>
      <point x="-63" y="101"/>
      <point x="-84" y="53"/>
      <point x="-105" y="8" type="curve"/>
      <point x="-123" y="1" type="line" smooth="yes"/>
      <point x="-218" y="-38"/>
      <point x="-321" y="-65"/>
      <point x="-380" y="-99" type="curve" smooth="yes"/>
      <point x="-421" y="-122"/>
      <point x="-447" y="-147"/>
      <point x="-447" y="-181" type="curve" smooth="yes"/>
      <point x="-447" y="-213"/>
      <point x="-418" y="-237"/>
      <point x="-374" y="-237" type="curve" smooth="yes"/>
      <point x="-302" y="-237"/>
      <point x="-187" y="-181"/>
      <point x="-114" y="-46" type="curve" smooth="yes"/>
      <point x="-104" y="-28"/>
      <point x="-95" y="-8"/>
      <point x="-86" y="13" type="curve"/>
      <point x="25" y="66"/>
      <point x="139" y="158"/>
      <point x="193" y="280" type="curve"/>
      <point x="190" y="282" type="line"/>
      <point x="138" y="164"/>
      <point x="28" y="72"/>
      <point x="-84" y="18" type="curve"/>
      <point x="-38" y="129"/>
      <point x="1" y="279"/>
      <point x="44" y="364" type="curve" smooth="yes"/>
      <point x="74" y="424" type="line" smooth="yes"/>
      <point x="106" y="484"/>
      <point x="134" y="527"/>
      <point x="179" y="561" type="curve"/>
      <point x="150" y="561" type="line"/>
      <point x="114" y="533"/>
      <point x="75" y="459"/>
      <point x="60" y="429" type="curve" smooth="yes"/>
      <point x="49" y="408"/>
      <point x="39" y="385"/>
    </contour>
    <contour>
      <point x="-132" y="-45" type="curve" smooth="yes"/>
      <point x="-200" y="-174"/>
      <point x="-302" y="-232"/>
      <point x="-367" y="-232" type="curve" smooth="yes"/>
      <point x="-408" y="-232"/>
      <point x="-431" y="-213"/>
      <point x="-431" y="-181" type="curve" smooth="yes"/>
      <point x="-431" y="-164"/>
      <point x="-424" y="-147"/>
      <point x="-412" y="-133" type="curve" smooth="yes"/>
      <point x="-365" y="-82"/>
      <point x="-236" y="-51"/>
      <point x="-107" y="4" type="curve"/>
      <point x="-115" y="-13"/>
      <point x="-124" y="-29"/>
    </contour>
    <contour>
      <point x="229" y="735" type="curve"/>
      <point x="227" y="726"/>
      <point x="231" y="717"/>
      <point x="242" y="717" type="curve" smooth="yes"/>
      <point x="252" y="717"/>
      <point x="263" y="724"/>
      <point x="266" y="735" type="curve"/>
      <point x="270" y="746"/>
      <point x="264" y="754"/>
      <point x="254" y="754" type="curve" smooth="yes"/>
      <point x="243" y="754"/>
      <point x="233" y="746"/>
    </contour>
  </outline>
</glyph>
<glyph name="k.3" format="2">
  <advance width="405"/>
  <outline>
    <contour>
      <point x="-125" y="-1" type="line"/>
      <point x="23" y="301" type="line"/>
      <point x="104" y="433"/>
      <point x="215" y="574"/>
      <point x="283" y="574" type="curve" smooth="yes"/>
      <point x="307" y="574"/>
      <point x="338" y="562"/>
      <point x="338" y="498" type="curve" smooth="yes"/>
      <point x="338" y="430"/>
      <point x="278" y="334"/>
      <point x="200" y="334" type="curve" smooth="yes"/>
      <point x="186" y="334"/>
      <point x="165" y="339"/>
      <point x="152" y="363" type="curve"/>
      <point x="150" y="357" type="line"/>
      <point x="151" y="354"/>
      <point x="152" y="352"/>
      <point x="154" y="350" type="curve"/>
      <point x="150" y="342"/>
      <point x="147" y="334"/>
      <point x="143" y="327" type="curve" smooth="yes"/>
      <point x="105" y="265"/>
      <point x="79" y="212"/>
      <point x="79" y="133" type="curve" smooth="yes"/>
      <point x="79" y="55"/>
      <point x="112" y="0"/>
      <point x="166" y="0" type="curve" smooth="yes"/>
      <point x="251" y="0"/>
      <point x="347" y="146"/>
      <point x="408" y="280" type="curve"/>
      <point x="405" y="282" type="line"/>
      <point x="346" y="154"/>
      <point x="249" y="5"/>
      <point x="167" y="5" type="curve" smooth="yes"/>
      <point x="77" y="5"/>
      <point x="72" y="177"/>
      <point x="152" y="332" type="curve"/>
      <point x="155" y="336"/>
      <point x="159" y="341"/>
      <point x="168" y="337" type="curve"/>
      <point x="182" y="329"/>
      <point x="198" y="327"/>
      <point x="210" y="327" type="curve" smooth="yes"/>
      <point x="303" y="327"/>
      <point x="355" y="430"/>
      <point x="355" y="487" type="curve" smooth="yes"/>
      <point x="355" y="550"/>
      <point x="319" y="580"/>
      <point x="286" y="580" type="curve" smooth="yes"/>
      <point x="222" y="580"/>
      <point x="123" y="464"/>
      <point x="44" y="343" type="curve"/>
      <point x="80" y="421"/>
      <point x="114" y="517"/>
      <point x="152" y="614" type="curve"/>
      <point x="163" y="613"/>
      <point x="173" y="613"/>
      <point x="184" y="613" type="curve" smooth="yes"/>
      <point x="422" y="613"/>
      <point x="590" y="831"/>
      <point x="604" y="948" type="curve" smooth="yes"/>
      <point x="611" y="1002"/>
      <point x="574" y="1056"/>
      <point x="524" y="1059" type="curve" smooth="yes"/>
      <point x="480" y="1062"/>
      <point x="430" y="1053"/>
      <point x="382" y="1018" type="curve" smooth="yes"/>
      <point x="270" y="936"/>
      <point x="197" y="777"/>
      <point x="136" y="620" type="curve"/>
      <point x="4" y="637"/>
      <point x="-93" y="728"/>
      <point x="-78" y="859" type="curve" smooth="yes"/>
      <point x="-65" y="984"/>
      <point x="32" y="1074"/>
      <point x="137" y="1074" type="curve" smooth="yes"/>
      <point x="204" y="1074"/>
      <point x="255" y="1021"/>
      <point x="247" y="959" type="curve" smooth="yes"/>
      <point x="240" y="901"/>
      <point x="201" y="842"/>
      <point x="125" y="842" type="curve" smooth="yes"/>
      <point x="111" y="842"/>
      <point x="73" y="842"/>
      <point x="59" y="867" type="curve"/>
      <point x="54" y="865" type="line"/>
      <point x="71" y="838"/>
      <point x="111" y="838"/>
      <point x="125" y="838" type="curve" smooth="yes"/>
      <point x="206" y="838"/>
      <point x="250" y="898"/>
      <point x="256" y="957" type="curve" smooth="yes"/>
      <point x="265" y="1022"/>
      <point x="210" y="1078"/>
      <point x="138" y="1078" type="curve" smooth="yes"/>
      <point x="26" y="1078"/>
      <point x="-78" y="987"/>
      <point x="-92" y="861" type="curve" smooth="yes"/>
      <point x="-107" y="727"/>
      <point x="-3" y="634"/>
      <point x="135" y="616" type="curve"/>
      <point x="92" y="504"/>
      <point x="55" y="394"/>
      <point x="15" y="313" type="curve" smooth="yes"/>
      <point x="-143" y="-1" type="line"/>
    </contour>
    <contour>
      <point x="522" y="1055" type="curve" smooth="yes"/>
      <point x="565" y="1052"/>
      <point x="601" y="1011"/>
      <point x="596" y="959" type="curve" smooth="yes"/>
      <point x="583" y="844"/>
      <point x="420" y="617"/>
      <point x="184" y="617" type="curve" smooth="yes"/>
      <point x="174" y="617"/>
      <point x="164" y="617"/>
      <point x="154" y="618" type="curve"/>
      <point x="214" y="772"/>
      <point x="285" y="925"/>
      <point x="389" y="1006" type="curve" smooth="yes"/>
      <point x="440" y="1047"/>
      <point x="482" y="1057"/>
    </contour>
  </outline>
</glyph>
<glyph name="k.9.7" format="2">
  <advance width="639"/>
  <outline>
    <contour>
      <point x="141" y="551" type="line"/>
      <point x="167" y="607" type="line"/>
      <point x="173" y="620" type="line"/>
      <point x="453" y="629"/>
      <point x="659" y="893"/>
      <point x="659" y="1008" type="curve" smooth="yes"/>
      <point x="659" y="1066"/>
      <point x="624" y="1114"/>
      <point x="560" y="1114" type="curve" smooth="yes"/>
      <point x="376" y="1114"/>
      <point x="215" y="754"/>
      <point x="157" y="626" type="curve"/>
      <point x="-13" y="628"/>
      <point x="-142" y="725"/>
      <point x="-142" y="877" type="curve" smooth="yes"/>
      <point x="-142" y="1027"/>
      <point x="-24" y="1140"/>
      <point x="97" y="1140" type="curve" smooth="yes"/>
      <point x="175" y="1140"/>
      <point x="226" y="1095"/>
      <point x="226" y="1023" type="curve" smooth="yes"/>
      <point x="226" y="961"/>
      <point x="168" y="905"/>
      <point x="114" y="905" type="curve" smooth="yes"/>
      <point x="104" y="905"/>
      <point x="91" y="907"/>
      <point x="79" y="914" type="curve"/>
      <point x="75" y="912" type="line"/>
      <point x="89" y="902"/>
      <point x="104" y="899"/>
      <point x="118" y="899" type="curve" smooth="yes"/>
      <point x="176" y="899"/>
      <point x="239" y="958"/>
      <point x="239" y="1022" type="curve" smooth="yes"/>
      <point x="239" y="1094"/>
      <point x="177" y="1147"/>
      <point x="92" y="1147" type="curve" smooth="yes"/>
      <point x="-35" y="1147"/>
      <point x="-156" y="1036"/>
      <point x="-156" y="889" type="curve" smooth="yes"/>
      <point x="-156" y="732"/>
      <point x="-23" y="621"/>
      <point x="155" y="620" type="curve"/>
      <point x="147" y="603" type="line"/>
      <point x="123" y="551" type="line"/>
      <point x="-128" y="7" type="line"/>
      <point x="-111" y="7" type="line"/>
      <point x="-19" y="204" type="line" smooth="yes"/>
      <point x="57" y="354"/>
      <point x="215" y="590"/>
      <point x="302" y="590" type="curve" smooth="yes"/>
      <point x="326" y="590"/>
      <point x="357" y="578"/>
      <point x="357" y="514" type="curve" smooth="yes"/>
      <point x="357" y="438"/>
      <point x="293" y="334"/>
      <point x="211" y="334" type="curve" smooth="yes"/>
      <point x="197" y="334"/>
      <point x="176" y="339"/>
      <point x="163" y="363" type="curve"/>
      <point x="161" y="357" type="line"/>
      <point x="162" y="354"/>
      <point x="163" y="352"/>
      <point x="165" y="350" type="curve"/>
      <point x="161" y="342"/>
      <point x="158" y="334"/>
      <point x="154" y="327" type="curve" smooth="yes"/>
      <point x="116" y="258"/>
      <point x="90" y="205"/>
      <point x="90" y="120" type="curve" smooth="yes"/>
      <point x="90" y="2"/>
      <point x="168" y="-104"/>
      <point x="296" y="-104" type="curve" smooth="yes"/>
      <point x="424" y="-104"/>
      <point x="549" y="8"/>
      <point x="549" y="141" type="curve" smooth="yes"/>
      <point x="549" y="216"/>
      <point x="488" y="269"/>
      <point x="420" y="269" type="curve" smooth="yes"/>
      <point x="333" y="269"/>
      <point x="266" y="197"/>
      <point x="266" y="125" type="curve" smooth="yes"/>
      <point x="266" y="108"/>
      <point x="274" y="95"/>
      <point x="284" y="80" type="curve"/>
      <point x="288" y="82" type="line"/>
      <point x="280" y="95"/>
      <point x="276" y="108"/>
      <point x="276" y="122" type="curve" smooth="yes"/>
      <point x="276" y="194"/>
      <point x="333" y="264"/>
      <point x="419" y="264" type="curve" smooth="yes"/>
      <point x="480" y="264"/>
      <point x="535" y="226"/>
      <point x="535" y="142" type="curve" smooth="yes"/>
      <point x="535" y="12"/>
      <point x="420" y="-100"/>
      <point x="302" y="-100" type="curve" smooth="yes"/>
      <point x="175" y="-100"/>
      <point x="105" y="-4"/>
      <point x="105" y="108" type="curve" smooth="yes"/>
      <point x="105" y="176"/>
      <point x="124" y="252"/>
      <point x="163" y="332" type="curve"/>
      <point x="166" y="337"/>
      <point x="170" y="341"/>
      <point x="180" y="337" type="curve"/>
      <point x="193" y="329"/>
      <point x="209" y="327"/>
      <point x="221" y="327" type="curve" smooth="yes"/>
      <point x="318" y="327"/>
      <point x="374" y="438"/>
      <point x="374" y="503" type="curve" smooth="yes"/>
      <point x="374" y="566"/>
      <point x="338" y="596"/>
      <point x="305" y="596" type="curve" smooth="yes"/>
      <point x="228" y="596"/>
      <point x="99" y="425"/>
      <point x="15" y="279" type="curve"/>
    </contour>
    <contour>
      <point x="644" y="1017" type="curve" smooth="yes"/>
      <point x="644" y="903"/>
      <point x="449" y="634"/>
      <point x="176" y="626" type="curve"/>
      <point x="231" y="750"/>
      <point x="387" y="1108"/>
      <point x="562" y="1108" type="curve" smooth="yes"/>
      <point x="615" y="1108"/>
      <point x="644" y="1072"/>
    </contour>
  </outline>
</glyph>
<glyph name="k.baja" format="2">
  <advance width="416"/>
  <outline>
    <contour>
      <point x="-111" y="7" type="line"/>
      <point x="-30" y="181" type="line" smooth="yes"/>
      <point x="41" y="323"/>
      <point x="209" y="576"/>
      <point x="298" y="576" type="curve" smooth="yes"/>
      <point x="322" y="576"/>
      <point x="353" y="564"/>
      <point x="353" y="500" type="curve" smooth="yes"/>
      <point x="353" y="424"/>
      <point x="289" y="320"/>
      <point x="207" y="320" type="curve" smooth="yes"/>
      <point x="193" y="320"/>
      <point x="172" y="325"/>
      <point x="159" y="349" type="curve"/>
      <point x="157" y="343" type="line"/>
      <point x="157" y="340"/>
      <point x="159" y="337"/>
      <point x="161" y="336" type="curve"/>
      <point x="157" y="328"/>
      <point x="154" y="320"/>
      <point x="150" y="313" type="curve"/>
      <point x="114" y="258"/>
      <point x="90" y="205"/>
      <point x="90" y="133" type="curve" smooth="yes"/>
      <point x="90" y="55"/>
      <point x="123" y="0"/>
      <point x="177" y="0" type="curve" smooth="yes"/>
      <point x="262" y="0"/>
      <point x="358" y="146"/>
      <point x="419" y="280" type="curve"/>
      <point x="416" y="282" type="line"/>
      <point x="357" y="154"/>
      <point x="260" y="5"/>
      <point x="178" y="5" type="curve" smooth="yes"/>
      <point x="130" y="5"/>
      <point x="107" y="53"/>
      <point x="107" y="121" type="curve" smooth="yes"/>
      <point x="107" y="175"/>
      <point x="123" y="252"/>
      <point x="159" y="318" type="curve" smooth="yes"/>
      <point x="162" y="323"/>
      <point x="166" y="327"/>
      <point x="176" y="323" type="curve"/>
      <point x="189" y="315"/>
      <point x="205" y="313"/>
      <point x="217" y="313" type="curve" smooth="yes"/>
      <point x="314" y="313"/>
      <point x="370" y="424"/>
      <point x="370" y="489" type="curve" smooth="yes"/>
      <point x="370" y="552"/>
      <point x="334" y="582"/>
      <point x="301" y="582" type="curve" smooth="yes"/>
      <point x="222" y="582"/>
      <point x="86" y="398"/>
      <point x="3" y="254" type="curve"/>
      <point x="273" y="839" type="line"/>
      <point x="256" y="839" type="line"/>
      <point x="-128" y="7" type="line"/>
    </contour>
  </outline>
</glyph>
<glyph name="l.5" format="2">
  <advance width="149"/>
  <outline>
    <contour>
      <point x="297" y="72" type="curve" smooth="yes"/>
      <point x="297" y="140"/>
      <point x="247" y="189"/>
      <point x="197" y="189" type="curve" smooth="yes"/>
      <point x="181" y="189"/>
      <point x="166" y="184"/>
      <point x="154" y="175" type="curve"/>
      <point x="156" y="171" type="line"/>
      <point x="168" y="180"/>
      <point x="183" y="185"/>
      <point x="197" y="185" type="curve" smooth="yes"/>
      <point x="245" y="185"/>
      <point x="291" y="144"/>
      <point x="291" y="78" type="curve" smooth="yes"/>
      <point x="291" y="-9"/>
      <point x="216" y="-124"/>
      <point x="88" y="-124" type="curve" smooth="yes"/>
      <point x="-22" y="-124"/>
      <point x="-62" y="-36"/>
      <point x="-62" y="41" type="curve" smooth="yes"/>
      <point x="-62" y="93"/>
      <point x="-48" y="148"/>
      <point x="-31" y="187" type="curve" smooth="yes"/>
      <point x="336" y="971" type="line"/>
      <point x="316" y="971" type="line"/>
      <point x="-42" y="192" type="line" smooth="yes"/>
      <point x="-60" y="153"/>
      <point x="-72" y="102"/>
      <point x="-72" y="48" type="curve" smooth="yes"/>
      <point x="-72" y="-31"/>
      <point x="-29" y="-128"/>
      <point x="88" y="-128" type="curve" smooth="yes"/>
      <point x="218" y="-128"/>
      <point x="297" y="-17"/>
    </contour>
  </outline>
</glyph>
